{
.appVersion = "945";
classes = (
{
automatic = 1;
code = "Eth Lslash Scaron Yacute Thorn Zcaron A B C D E F G H I J K L M N O P Q R S T U V W X Y Z Adieresis Aring Ccedilla Eacute Ntilde Odieresis Udieresis AE Oslash Omega Agrave Atilde Otilde OE Ydieresis Acircumflex Ecircumflex Aacute Edieresis Egrave Iacute Icircumflex Idieresis Igrave Oacute Ocircumflex Ograve Uacute Ucircumflex Ugrave Amacron Abreve Aogonek uni01CD AEacute Cacute Ccircumflex Cdotaccent Ccaron Dcaron Dcroat Emacron Ebreve Edotaccent Eogonek Ecaron Gcircumflex Gbreve Gdotaccent Gcommaaccent Hcircumflex Hbar Itilde Imacron Ibreve Iogonek Idotaccent uni01CF IJ Jcircumflex Kcommaaccent Lacute Lcommaaccent Lcaron Ldot Nacute Ncommaaccent Ncaron Eng Omacron Obreve Ohungarumlaut uni01D1 Oslashacute Racute Rcommaaccent Rcaron Sacute Scircumflex Scedilla Scommaaccent Tcedilla Tcommaaccent Tcaron Tbar Utilde Umacron Ubreve Uring Uhungarumlaut Uogonek uni01D3 Wcircumflex Wgrave Wacute Wdieresis Ygrave Ycircumflex Zacute Zdotaccent";
name = Uppercase;
}
);
copyright = "Copyright © 2016 by Red Hat, Inc. All rights reserved.";
customParameters = (
{
name = description;
value = "Copyright (c) 2011-2016 by Red Hat, Inc. All rights reserved.";
},
{
name = vendorID;
value = DELV;
},
{
name = glyphOrder;
value = (
.notdef,
Eth,
eth,
Lslash,
lslash,
Scaron,
scaron,
Yacute,
yacute,
Thorn,
thorn,
Zcaron,
zcaron,
onehalf,
onequarter,
onesuperior,
threequarters,
threesuperior,
twosuperior,
brokenbar,
minus,
multiply,
space,
exclam,
quotedbl,
numbersign,
dollar,
percent,
ampersand,
quotesingle,
parenleft,
parenright,
asterisk,
plus,
comma,
hyphen,
period,
slash,
zero,
one,
two,
three,
four,
five,
six,
seven,
eight,
nine,
colon,
semicolon,
less,
equal,
greater,
question,
at,
A,
B,
C,
D,
E,
F,
G,
H,
I,
J,
K,
L,
M,
N,
O,
P,
Q,
R,
S,
T,
U,
V,
W,
X,
Y,
Z,
bracketleft,
backslash,
bracketright,
asciicircum,
underscore,
grave,
a,
b,
c,
d,
e,
f,
g,
h,
i,
j,
k,
l,
m,
n,
o,
p,
q,
r,
s,
t,
u,
v,
w,
x,
y,
z,
braceleft,
bar,

glyphs = (
{
glyphname = Eth;
lastChange = "2016-11-17 05:24:08 +0000";
layers = (
{
layerId = "02CCC12B-AAA5-4DEC-99A9-D81829579BCD";
paths = (
{
closed = 1;
nodes = (
"90 0 LINE",
"282 0 LINE SMOOTH",
"539 0 OFFCURVE",
"620 189 OFFCURVE",
"620 350 CURVE SMOOTH",
"620 523 OFFCURVE",
"530 700 OFFCURVE",
"286 700 CURVE SMOOTH",
"90 700 LINE",
"90 398 LINE",
"25 398 LINE",
"25 302 LINE",
"90 302 LINE"
);
},
{
closed = 1;
nodes = (
"194 98 LINE",
"194 302 LINE",
"345 302 LINE",
"345 398 LINE",
"194 398 LINE",
"194 602 LINE",
"310 602 LINE SMOOTH",
"453 602 OFFCURVE",
"512 476 OFFCURVE",
"512 350 CURVE SMOOTH",
"512 232 OFFCURVE",
"459 98 OFFCURVE",
"299 98 CURVE SMOOTH"
);
}
);
width = 685;
},
{
layerId = "DE4AFDBE-F375-44ED-A5DB-4773839D6964";
paths = (
{
closed = 1;
nodes = (
"105 0 LINE",
"287 0 LINE SMOOTH",
"539 0 OFFCURVE",
"608 189 OFFCURVE",
"608 350 CURVE SMOOTH",
"608 523 OFFCURVE",
"528 700 OFFCURVE",
"291 700 CURVE SMOOTH",
"105 700 LINE",
"105 380 LINE",
"35 380 LINE",
"35 318 LINE",
"105 318 LINE"
);
},
{
closed = 1;
nodes = (
"175 63 LINE",
"175 318 LINE",
"330 318 LINE",
"330 380 LINE",
"175 380 LINE",
"175 637 LINE",
"303 637 LINE SMOOTH",
"469 637 OFFCURVE",
"535 495 OFFCURVE",
"535 350 CURVE SMOOTH",
"535 214 OFFCURVE",
"480 63 OFFCURVE",
"292 63 CURVE SMOOTH"
);
}
);
width = 678;
},
{
layerId = "1ED176E8-AB71-4F43-9CA1-B943ACA5B6F8";
paths = (
{
closed = 1;
nodes = (
"80 0 LINE",
"312 0 LINE SMOOTH",
"569 0 OFFCURVE",
"655 190 OFFCURVE",
"655 350 CURVE SMOOTH",
"655 524 OFFCURVE",
"561 700 OFFCURVE",
"316 700 CURVE SMOOTH",
"80 700 LINE",
"80 413 LINE",
"18 413 LINE",
"18 287 LINE",
"80 287 LINE"
);
},
{
closed = 1;
nodes = (
"215 128 LINE",
"215 287 LINE",
"358 287 LINE",
"358 413 LINE",
"215 413 LINE",
"215 572 LINE",
"339 572 LINE SMOOTH",
"462 572 OFFCURVE",
"515 459 OFFCURVE",
"515 350 CURVE SMOOTH",
"515 247 OFFCURVE",
"466 128 OFFCURVE",
"328 128 CURVE SMOOTH"
);
}
);
width = 710;
},
{
layerId = "3BB16070-9AE0-46D6-9B05-19A363C2D547";
paths = (
{
closed = 1;
nodes = (
"110 0 LINE",
"266 0 LINE SMOOTH",
"512 0 OFFCURVE",
"580 189 OFFCURVE",
"580 350 CURVE SMOOTH",
"580 523 OFFCURVE",
"502 700 OFFCURVE",
"270 700 CURVE SMOOTH",
"110 700 LINE",
"110 367 LINE",
"40 367 LINE",
"40 331 LINE",
"110 331 LINE"
);
},
{
closed = 1;
nodes = (
"146 36 LINE",
"146 331 LINE",
"321 331 LINE",
"321 367 LINE",
"146 367 LINE",
"146 664 LINE",
"270 664 LINE SMOOTH",
"473 664 OFFCURVE",
"541 505 OFFCURVE",
"541 350 CURVE SMOOTH",
"541 206 OFFCURVE",
"482 36 OFFCURVE",
"266 36 CURVE SMOOTH"
);
}
);
width = 665;
},
{
layerId = "1D708A55-1947-4475-A0A3-21124B6DD42B";
paths = (
{
closed = 1;
nodes = (
"73 0 LINE",
"335 0 LINE SMOOTH",
"592 0 OFFCURVE",
"681 191 OFFCURVE",
"681 350 CURVE SMOOTH",
"681 525 OFFCURVE",
"584 700 OFFCURVE",
"339 700 CURVE SMOOTH",
"73 700 LINE",
"73 424 LINE",
"13 424 LINE",
"13 276 LINE",
"73 276 LINE"
);
},
{
closed = 1;
nodes = (
"231 151 LINE",
"231 276 LINE",
"368 276 LINE",
"368 424 LINE",
"231 424 LINE",
"231 550 LINE",
"361 550 LINE SMOOTH",
"469 550 OFFCURVE",
"517 446 OFFCURVE",
"517 350 CURVE SMOOTH",
"517 258 OFFCURVE",
"471 151 OFFCURVE",
"350 151 CURVE SMOOTH"
);
}
);
width = 729;
}
);
leftKerningGroup = Eth;
note = Eth;
rightKerningGroup = O;
unicode = 00D0;
},
{
glyphname = eth;
lastChange = "2016-12-02 21:54:48 +0000";
layers = (
{
layerId = "02CCC12B-AAA5-4DEC-99A9-D81829579BCD";
paths = (
{
closed = 1;
nodes = (
"443 -12 OFFCURVE",
"517 113 OFFCURVE",
"517 269 CURVE SMOOTH",
"517 420 OFFCURVE",
"471 551 OFFCURVE",
"374 630 CURVE",
"421 679 LINE",
"366 732 LINE",
"308 672 LINE",
"259 696 OFFCURVE",
"201 710 OFFCURVE",
"134 712 CURVE",
"134 624 LINE",
"173 622 OFFCURVE",
"209 615 OFFCURVE",
"242 602 CURVE",
"192 550 LINE",
"247 498 LINE",
"309 563 LINE",
"359 523 OFFCURVE",
"394 463 OFFCURVE",
"410 386 CURVE",
"388 427 OFFCURVE",
"334 456 OFFCURVE",
"273 456 CURVE SMOOTH",
"152 456 OFFCURVE",
"50 359 OFFCURVE",
"50 221 CURVE SMOOTH",
"50 87 OFFCURVE",
"149 -12 OFFCURVE",
"283 -12 CURVE SMOOTH"
);
},
{
closed = 1;
nodes = (
"211 86 OFFCURVE",
"154 144 OFFCURVE",
"154 221 CURVE SMOOTH",
"154 303 OFFCURVE",
"208 358 OFFCURVE",
"282 358 CURVE SMOOTH",
"358 358 OFFCURVE",
"413 300 OFFCURVE",
"413 220 CURVE SMOOTH",
"413 144 OFFCURVE",
"356 86 OFFCURVE",
"283 86 CURVE SMOOTH"
);
}
);
width = 567;
},
{
layerId = "DE4AFDBE-F375-44ED-A5DB-4773839D6964";
paths = (
{
closed = 1;
nodes = (
"414 -12 OFFCURVE",
"493 93 OFFCURVE",
"493 269 CURVE SMOOTH",
"493 444 OFFCURVE",
"431 567 OFFCURVE",
"339 638 CURVE",
"390 692 LINE",
"355 727 LINE",
"298 665 LINE",
"251 691 OFFCURVE",
"191 707 OFFCURVE",
"134 712 CURVE",
"134 659 LINE",
"182 655 OFFCURVE",
"224 642 OFFCURVE",
"259 623 CURVE",
"201 560 LINE",
"234 526 LINE",
"300 596 LINE",
"372 541 OFFCURVE",
"411 456 OFFCURVE",
"422 369 CURVE",
"400 411 OFFCURVE",
"357 456 OFFCURVE",
"274 456 CURVE SMOOTH",
"149 456 OFFCURVE",
"55 362 OFFCURVE",
"55 221 CURVE SMOOTH",
"55 87 OFFCURVE",
"141 -12 OFFCURVE",
"274 -12 CURVE SMOOTH"
);
},
{
closed = 1;
nodes = (
"195 51 OFFCURVE",
"128 124 OFFCURVE",
"128 221 CURVE SMOOTH",
"128 321 OFFCURVE",
"193 393 OFFCURVE",
"274 393 CURVE SMOOTH",
"358 393 OFFCURVE",
"420 317 OFFCURVE",
"420 220 CURVE SMOOTH",
"420 124 OFFCURVE",
"355 51 OFFCURVE",
"274 51 CURVE SMOOTH"
);
}
);
width = 548;
},
{
layerId = "1ED176E8-AB71-4F43-9CA1-B943ACA5B6F8";
paths = (
{
closed = 1;
nodes = (
"446 -12 OFFCURVE",
"520 113 OFFCURVE",
"520 268 CURVE SMOOTH",
"520 409 OFFCURVE",
"480 542 OFFCURVE",
"389 622 CURVE",
"433 668 LINE",
"362 736 LINE",
"305 677 LINE",
"258 698 OFFCURVE",
"201 710 OFFCURVE",
"129 712 CURVE",
"129 596 LINE",
"160 595 OFFCURVE",
"189 591 OFFCURVE",
"216 583 CURVE",
"176 542 LINE",
"248 475 LINE",
"306 535 LINE",
"334 509 OFFCURVE",
"362 465 OFFCURVE",
"370 426 CURVE",
"346 445 OFFCURVE",
"312 456 OFFCURVE",
"275 456 CURVE SMOOTH",
"142 456 OFFCURVE",
"50 348 OFFCURVE",
"50 221 CURVE SMOOTH",
"50 87 OFFCURVE",
"149 -12 OFFCURVE",
"285 -12 CURVE SMOOTH"
);
},
{
closed = 1;
nodes = (
"227 113 OFFCURVE",
"180 159 OFFCURVE",
"180 221 CURVE SMOOTH",
"180 288 OFFCURVE",
"225 331 OFFCURVE",
"284 331 CURVE SMOOTH",
"345 331 OFFCURVE",
"390 287 OFFCURVE",
"390 220 CURVE SMOOTH",
"390 159 OFFCURVE",
"345 113 OFFCURVE",
"285 113 CURVE SMOOTH"
);
}
);
width = 570;
},
{
layerId = "3BB16070-9AE0-46D6-9B05-19A363C2D547";
paths = (
{
closed = 1;
nodes = (
"396 -12 OFFCURVE",
"472 86 OFFCURVE",
"472 267 CURVE SMOOTH",
"472 431 OFFCURVE",
"426 559 OFFCURVE",
"323 639 CURVE",
"385 705 LINE",
"362 727 LINE",
"297 657 LINE",
"254 683 OFFCURVE",
"202 702 OFFCURVE",
"142 712 CURVE",
"142 677 LINE",
"191 670 OFFCURVE",
"235 654 OFFCURVE",
"272 631 CURVE",
"206 559 LINE",
"228 537 LINE",
"300 613 LINE",
"376 555 OFFCURVE",
"423 456 OFFCURVE",
"433 335 CURVE",
"415 402 OFFCURVE",
"358 456 OFFCURVE",
"269 456 CURVE SMOOTH",
"154 456 OFFCURVE",
"68 362 OFFCURVE",
"68 221 CURVE SMOOTH",
"68 87 OFFCURVE",
"146 -12 OFFCURVE",
"269 -12 CURVE SMOOTH"
);
},
{
closed = 1;
nodes = (
"169 24 OFFCURVE",
"107 109 OFFCURVE",
"107 221 CURVE SMOOTH",
"107 337 OFFCURVE",
"176 420 OFFCURVE",
"269 420 CURVE SMOOTH",
"366 420 OFFCURVE",
"431 332 OFFCURVE",
"431 220 CURVE SMOOTH",
"431 109 OFFCURVE",
"371 24 OFFCURVE",
"269 24 CURVE SMOOTH"
);
}
);
width = 540;
},
{
background = {
paths = (
{
closed = 1;
nodes = (
"440 -12 OFFCURVE",
"522 108 OFFCURVE",
"522 277 CURVE SMOOTH",
"522 510 OFFCURVE",
"431 704 OFFCURVE",
"120 712 CURVE",
"120 580 LINE",
"290 575 OFFCURVE",
"335 511 OFFCURVE",
"356 426 CURVE",
"338 441 OFFCURVE",
"307 451 OFFCURVE",
"269 451 CURVE SMOOTH",
"128 451 OFFCURVE",
"50 342 OFFCURVE",
"50 221 CURVE SMOOTH",
"50 87 OFFCURVE",
"149 -12 OFFCURVE",
"287 -12 CURVE SMOOTH"
);
},
{
closed = 1;
nodes = (
"239 133 OFFCURVE",
"200 170 OFFCURVE",
"200 221 CURVE SMOOTH",
"200 277 OFFCURVE",
"238 311 OFFCURVE",
"286 311 CURVE SMOOTH",
"335 311 OFFCURVE",
"373 277 OFFCURVE",
"373 220 CURVE SMOOTH",
"373 170 OFFCURVE",
"337 133 OFFCURVE",
"287 133 CURVE SMOOTH"
);
},
{
closed = 1;
nodes = (
"435 667 LINE",
"359 739 LINE",
"172 544 LINE",
"250 473 LINE"
);
}
);
};
layerId = "1D708A55-1947-4475-A0A3-21124B6DD42B";
paths = (
{
closed = 1;
nodes = (
"440 -12 OFFCURVE",
"522 108 OFFCURVE",
"522 277 CURVE SMOOTH",
"522 417.696 OFFCURVE",
"488.819 544.172 OFFCURVE",
"394.052 624.06 CURVE",
"435 667 LINE",
"359 739 LINE",
"301.229 678.757 LINE",
"251.408 698.483 OFFCURVE",
"191.522 710.16 OFFCURVE",
"120 712 CURVE",
"120 580 LINE",
"150.008 579.117 OFFCURVE",
"176.122 576.396 OFFCURVE",
"198.895 572.046 CURVE",
"172 544 LINE",
"250 473 LINE",
"301.329 526.826 LINE",
"331.395 500.241 OFFCURVE",
"346.272 465.374 OFFCURVE",
"356 426 CURVE",
"338 441 OFFCURVE",
"307 451 OFFCURVE",
"267 451 CURVE SMOOTH",
"128 451 OFFCURVE",
"50 344 OFFCURVE",
"50 221 CURVE SMOOTH",
"50 86 OFFCURVE",
"148 -12 OFFCURVE",
"287 -12 CURVE SMOOTH"
);
},
{
closed = 1;
nodes = (
"239 133 OFFCURVE",
"200 170 OFFCURVE",
"200 221 CURVE SMOOTH",
"200 277 OFFCURVE",
"238 311 OFFCURVE",
"286 311 CURVE SMOOTH",
"335 311 OFFCURVE",
"373 277 OFFCURVE",
"373 220 CURVE SMOOTH",
"373 170 OFFCURVE",
"337 133 OFFCURVE",
"287 133 CURVE SMOOTH"
);
}
);
width = 572;
},
{
associatedMasterId = "1D708A55-1947-4475-A0A3-21124B6DD42B";
layerId = "D3F21AF5-36E5-4DB7-A303-365DF37337E6";
name = "Heavy Nov 18 16, 12:03";
paths = (
{
closed = 1;
nodes = (
"448 -12 OFFCURVE",
"522 113 OFFCURVE",
"522 267 CURVE SMOOTH",
"522 401 OFFCURVE",
"487 535 OFFCURVE",
"400 616 CURVE",
"442 660 LINE",
"359 739 LINE",
"303 681 LINE",
"257 700 OFFCURVE",
"201 710 OFFCURVE",
"125 712 CURVE",
"125 575 LINE",
"150 575 OFFCURVE",
"174 573 OFFCURVE",
"197 569 CURVE",
"164 536 LINE",
"249 458 LINE",
"304 514 LINE",
"315 499 OFFCURVE",
"338 467 OFFCURVE",
"340 456 CURVE",
"315 459 OFFCURVE",
"296 456 OFFCURVE",
"277 456 CURVE SMOOTH",
"135 456 OFFCURVE",
"50 340 OFFCURVE",
"50 221 CURVE SMOOTH",
"50 87 OFFCURVE",
"149 -12 OFFCURVE",
"287 -12 CURVE SMOOTH"
);
},
{
closed = 1;
nodes = (
"239 133 OFFCURVE",
"200 170 OFFCURVE",
"200 221 CURVE SMOOTH",
"200 277 OFFCURVE",
"238 311 OFFCURVE",
"286 311 CURVE SMOOTH",
"335 311 OFFCURVE",
"373 277 OFFCURVE",
"373 220 CURVE SMOOTH",
"373 170 OFFCURVE",
"337 133 OFFCURVE",
"287 133 CURVE SMOOTH"
);
}
);
width = 572;
}
);
leftKerningGroup = ograve;
note = eth;
rightKerningGroup = ograve;
unicode = 00F0;
},
{
glyphname = Lslash;
lastChange = "2016-11-17 05:34:26 +0000";
layers = (
{
layerId = "02CCC12B-AAA5-4DEC-99A9-D81829579BCD";
paths = (
{
closed = 1;
nodes = (
"536 0 LINE",
"536 100 LINE",
"194 100 LINE",
"194 318 LINE",
"325 418 LINE",
"325 533 LINE",
"194 433 LINE",
"194 700 LINE",
"90 700 LINE",
"90 353 LINE",
"20 300 LINE",
"20 185 LINE",
"90 238 LINE",
"90 0 LINE"
);
}
);
width = 561;
},
{
layerId = "DE4AFDBE-F375-44ED-A5DB-4773839D6964";
paths = (
{
closed = 1;
nodes = (
"522 0 LINE",
"522 67 LINE",
"175 67 LINE",
"175 330 LINE",
"283 414 LINE",
"283 491 LINE",
"175 409 LINE",
"175 700 LINE",
"105 700 LINE",
"105 349 LINE",
"30 293 LINE",
"30 217 LINE",
"105 272 LINE",
"105 0 LINE"
);
}
);
width = 557;
},
{
layerId = "1ED176E8-AB71-4F43-9CA1-B943ACA5B6F8";
paths = (
{
closed = 1;
nodes = (
"553 0 LINE",
"553 130 LINE",
"215 130 LINE",
"215 311 LINE",
"360 420 LINE",
"360 567 LINE",
"215 457 LINE",
"215 700 LINE",
"80 700 LINE",
"80 356 LINE",
"14 306 LINE",
"14 158 LINE",
"80 209 LINE",
"80 0 LINE"
);
}
);
width = 568;
},
{
layerId = "3BB16070-9AE0-46D6-9B05-19A363C2D547";
paths = (
{
closed = 1;
nodes = (
"493 0 LINE",
"493 33 LINE",
"146 33 LINE",
"146 326 LINE",
"274 426 LINE",
"274 466 LINE",
"146 367 LINE",
"146 700 LINE",
"110 700 LINE",
"110 339 LINE",
"35 281 LINE",
"35 241 LINE",
"110 299 LINE",
"110 0 LINE"
);
}
);
width = 533;
},
{
layerId = "1D708A55-1947-4475-A0A3-21124B6DD42B";
paths = (
{
closed = 1;
nodes = (
"566 0 LINE",
"566 153 LINE",
"231 153 LINE",
"231 306 LINE",
"386 422 LINE",
"386 593 LINE",
"231 475 LINE",
"231 700 LINE",
"73 700 LINE",
"73 358 LINE",
"10 311 LINE",
"10 138 LINE",
"73 187 LINE",
"73 0 LINE"
);
}
);
width = 571;
}
);
leftKerningGroup = Eth;
note = Lslash;
rightKerningGroup = L;
rightMetricsKey = L;
unicode = 0141;
},
{
glyphname = lslash;
lastChange = "2016-11-17 05:24:08 +0000";
layers = (
{
layerId = "02CCC12B-AAA5-4DEC-99A9-D81829579BCD";
paths = (
{
closed = 1;
nodes = (
"184 0 LINE",
"184 318 LINE",
"244 364 LINE",
"244 461 LINE",
"184 415 LINE",
"184 722 LINE",
"80 673 LINE",
"80 336 LINE",
"20 290 LINE",
"20 193 LINE",
"80 239 LINE",
"80 0 LINE"
);
}
);
width = 264;
},
{
layerId = "DE4AFDBE-F375-44ED-A5DB-4773839D6964";
paths = (
{
closed = 1;
nodes = (
"166 0 LINE",
"166 328 LINE",
"231 378 LINE",
"231 437 LINE",
"166 387 LINE",
"166 722 LINE",
"96 688 LINE",
"96 335 LINE",
"30 283 LINE",
"30 224 LINE",
"96 276 LINE",
"96 0 LINE"
);
}
);
width = 261;
},
{
layerId = "1ED176E8-AB71-4F43-9CA1-B943ACA5B6F8";
paths = (
{
closed = 1;
nodes = (
"209 0 LINE",
"209 308 LINE",
"266 351 LINE",
"266 480 LINE",
"209 437 LINE",
"209 722 LINE",
"79 661 LINE",
"79 338 LINE",
"24 296 LINE",
"24 167 LINE",
"79 209 LINE",
"79 0 LINE"
);
}
);
width = 290;
},
{
layerId = "3BB16070-9AE0-46D6-9B05-19A363C2D547";
paths = (
{
closed = 1;
nodes = (
"134 0 LINE",
"134 320 LINE",
"215 382 LINE",
"215 421 LINE",
"134 359 LINE",
"134 722 LINE",
"98 704 LINE",
"98 332 LINE",
"28 278 LINE",
"28 239 LINE",
"98 293 LINE",
"98 0 LINE"
);
}
);
width = 243;
},
{
layerId = "1D708A55-1947-4475-A0A3-21124B6DD42B";
paths = (
{
closed = 1;
nodes = (
"228 0 LINE",
"228 301 LINE",
"283 341 LINE",
"283 494 LINE",
"228 454 LINE",
"228 722 LINE",
"78 652 LINE",
"78 340 LINE",
"27 301 LINE",
"27 148 LINE",
"78 187 LINE",
"78 0 LINE"
);
}
);
width = 310;
}
);
leftKerningGroup = lslash;
note = lslash;
rightKerningGroup = lslash;
unicode = 0142;
},
{
glyphname = Scaron;
lastChange = "2016-11-17 05:24:08 +0000";
layers = (
{
background = {
paths = (
{
closed = 1;
nodes = (
"440 -12 OFFCURVE",
"544 63 OFFCURVE",
"544 197 CURVE SMOOTH",
"544 449 OFFCURVE",
"182 394 OFFCURVE",
"182 528 CURVE SMOOTH",
"182 581 OFFCURVE",
"222 612 OFFCURVE",
"289 612 CURVE SMOOTH",
"357 612 OFFCURVE",
"400 581 OFFCURVE",
"417 541 CURVE",
"513 573 LINE",
"489 653 OFFCURVE",
"416 712 OFFCURVE",
"297 712 CURVE SMOOTH",
"155 712 OFFCURVE",
"74 628 OFFCURVE",
"74 529 CURVE SMOOTH",
"74 293 OFFCURVE",
"436 363 OFFCURVE",
"436 196 CURVE SMOOTH",
"436 125 OFFCURVE",
"385 88 OFFCURVE",
"309 88 CURVE SMOOTH",
"234 88 OFFCURVE",
"177 131 OFFCURVE",
"148 194 CURVE",
"50 158 LINE",
"85 54 OFFCURVE",
"180 -12 OFFCURVE",
"305 -12 CURVE SMOOTH"
);
},
{
closed = 1;
nodes = (
"349 766 LINE",
"491 922 LINE",
"391 922 LINE",
"297 843 LINE",
"203 922 LINE",
"103 922 LINE",
"244 766 LINE"
);
}
);
};
components = (
{
name = S;
},
{
name = caron;
transform = "{1, 0, 0, 1, 98, 189}";
}
);
layerId = "02CCC12B-AAA5-4DEC-99A9-D81829579BCD";
width = 604;
},
{
background = {
paths = (
{
closed = 1;
nodes = (
"427 -12 OFFCURVE",
"519 58 OFFCURVE",
"519 182 CURVE SMOOTH",
"519 313 OFFCURVE",
"412 373 OFFCURVE",
"317 410 CURVE SMOOTH",
"234 442 OFFCURVE",
"156 476 OFFCURVE",
"156 550 CURVE SMOOTH",
"156 610 OFFCURVE",
"205 649 OFFCURVE",
"287 649 CURVE SMOOTH",
"357 649 OFFCURVE",
"403 616 OFFCURVE",
"420 579 CURVE",
"485 601 LINE",
"466 665 OFFCURVE",
"393 712 OFFCURVE",
"290 712 CURVE SMOOTH",
"160 712 OFFCURVE",
"84 638 OFFCURVE",
"84 549 CURVE SMOOTH",
"84 433 OFFCURVE",
"191 380 OFFCURVE",
"289 343 CURVE SMOOTH",
"371 312 OFFCURVE",
"447 266 OFFCURVE",
"447 180 CURVE SMOOTH",
"447 96 OFFCURVE",
"390 51 OFFCURVE",
"299 51 CURVE SMOOTH",
"219 51 OFFCURVE",
"159 93 OFFCURVE",
"131 154 CURVE",
"65 130 LINE",
"93 54 OFFCURVE",
"180 -12 OFFCURVE",
"298 -12 CURVE SMOOTH"
);
},
{
closed = 1;
nodes = (
"331 766 LINE",
"472 922 LINE",
"407 922 LINE",
"291 821 LINE",
"175 922 LINE",
"110 922 LINE",
"251 766 LINE"
);
}
);
};
components = (
{
name = S;
},
{
name = caron;
transform = "{1, 0, 0, 1, 122, 189}";
}
);
layerId = "DE4AFDBE-F375-44ED-A5DB-4773839D6964";
width = 594;
},
{
background = {
paths = (
{
closed = 1;
nodes = (
"464 -12 OFFCURVE",
"575 65 OFFCURVE",
"575 201 CURVE SMOOTH",
"575 453 OFFCURVE",
"213 406 OFFCURVE",
"213 517 CURVE SMOOTH",
"213 560 OFFCURVE",
"247 584 OFFCURVE",
"306 584 CURVE SMOOTH",
"371 584 OFFCURVE",
"407 552 OFFCURVE",
"426 510 CURVE",
"547 550 LINE",
"521 642 OFFCURVE",
"439 712 OFFCURVE",
"314 712 CURVE SMOOTH",
"163 712 OFFCURVE",
"77 624 OFFCURVE",
"77 519 CURVE SMOOTH",
"77 276 OFFCURVE",
"439 338 OFFCURVE",
"439 201 CURVE SMOOTH",
"439 145 OFFCURVE",
"394 116 OFFCURVE",
"326 116 CURVE SMOOTH",
"258 116 OFFCURVE",
"203 161 OFFCURVE",
"173 226 CURVE",
"50 180 LINE",
"90 61 OFFCURVE",
"190 -12 OFFCURVE",
"322 -12 CURVE SMOOTH"
);
},
{
closed = 1;
nodes = (
"376 766 LINE",
"518 922 LINE",
"398 922 LINE",
"314 853 LINE",
"230 922 LINE",
"110 922 LINE",
"251 766 LINE"
);
}
);
};
components = (
{
name = S;
},
{
name = caron;
transform = "{1, 0, 0, 1, 68, 189}";
}
);
layerId = "1ED176E8-AB71-4F43-9CA1-B943ACA5B6F8";
width = 615;
},
{
background = {
paths = (
{
closed = 1;
nodes = (
"420 -12 OFFCURVE",
"505 55 OFFCURVE",
"505 173 CURVE SMOOTH",
"505 301 OFFCURVE",
"402 358 OFFCURVE",
"314 394 CURVE SMOOTH",
"228 429 OFFCURVE",
"142 467 OFFCURVE",
"142 557 CURVE SMOOTH",
"142 631 OFFCURVE",
"197 677 OFFCURVE",
"290 677 CURVE SMOOTH",
"365 677 OFFCURVE",
"415 644 OFFCURVE",
"439 586 CURVE",
"475 597 LINE",
"452 667 OFFCURVE",
"380 712 OFFCURVE",
"293 712 CURVE SMOOTH",
"171 712 OFFCURVE",
"104 646 OFFCURVE",
"104 559 CURVE SMOOTH",
"104 443 OFFCURVE",
"205 396 OFFCURVE",
"298 359 CURVE SMOOTH",
"386 325 OFFCURVE",
"467 269 OFFCURVE",
"467 174 CURVE SMOOTH",
"467 75 OFFCURVE",
"401 23 OFFCURVE",
"302 23 CURVE SMOOTH",
"219 23 OFFCURVE",
"152 73 OFFCURVE",
"119 147 CURVE",
"81 135 LINE",
"114 56 OFFCURVE",
"194 -12 OFFCURVE",
"301 -12 CURVE SMOOTH"
);
},
{
closed = 1;
nodes = (
"310 766 LINE",
"461 922 LINE",
"424 922 LINE",
"294 802 LINE",
"164 922 LINE",
"127 922 LINE",
"278 766 LINE"
);
}
);
};
components = (
{
name = S;
},
{
name = caron;
transform = "{1, 0, 0, 1, 121, 189}";
}
);
layerId = "3BB16070-9AE0-46D6-9B05-19A363C2D547";
width = 579;
},
{
components = (
{
name = S;
},
{
name = caron;
transform = "{1, 0, 0, 1, 45, 189}";
}
);
layerId = "1D708A55-1947-4475-A0A3-21124B6DD42B";
width = 623;
}
);
leftKerningGroup = S;
note = Scaron;
rightKerningGroup = S;
unicode = 0160;
},
{
glyphname = scaron;
lastChange = "2016-11-17 05:24:08 +0000";
layers = (
{
background = {
paths = (
{
closed = 1;
nodes = (
"349 -12 OFFCURVE",
"425 39 OFFCURVE",
"425 137 CURVE SMOOTH",
"425 237 OFFCURVE",
"355 272 OFFCURVE",
"284 300 CURVE SMOOTH",
"218 326 OFFCURVE",
"158 343 OFFCURVE",
"158 382 CURVE SMOOTH",
"158 412 OFFCURVE",
"186 429 OFFCURVE",
"230 429 CURVE SMOOTH",
"284 429 OFFCURVE",
"316 405 OFFCURVE",
"334 386 CURVE",
"409 446 LINE",
"376 486 OFFCURVE",
"318 523 OFFCURVE",
"230 523 CURVE SMOOTH",
"131 523 OFFCURVE",
"52 473 OFFCURVE",
"52 382 CURVE SMOOTH",
"52 292 OFFCURVE",
"115 260 OFFCURVE",
"179 232 CURVE SMOOTH",
"248 203 OFFCURVE",
"321 185 OFFCURVE",
"321 137 CURVE SMOOTH",
"321 96 OFFCURVE",
"283 82 OFFCURVE",
"231 82 CURVE SMOOTH",
"174 82 OFFCURVE",
"135 114 OFFCURVE",
"114 134 CURVE",
"40 71 LINE",
"76 20 OFFCURVE",
"153 -12 OFFCURVE",
"233 -12 CURVE SMOOTH"
);
},
{
closed = 1;
nodes = (
"284 576 LINE",
"426 732 LINE",
"326 732 LINE",
"232 653 LINE",
"138 732 LINE",
"38 732 LINE",
"179 576 LINE"
);
}
);
};
components = (
{
name = s;
},
{
name = caron;
transform = "{1, 0, 0, 1, 30, 0}";
}
);
layerId = "02CCC12B-AAA5-4DEC-99A9-D81829579BCD";
width = 475;
},
{
background = {
paths = (
{
closed = 1;
nodes = (
"340 -12 OFFCURVE",
"406 43 OFFCURVE",
"406 128 CURVE SMOOTH",
"406 231 OFFCURVE",
"319 266 OFFCURVE",
"243 296 CURVE SMOOTH",
"183 320 OFFCURVE",
"126 342 OFFCURVE",
"126 394 CURVE SMOOTH",
"126 435 OFFCURVE",
"164 461 OFFCURVE",
"223 461 CURVE SMOOTH",
"279 461 OFFCURVE",
"319 432 OFFCURVE",
"345 406 CURVE",
"391 445 LINE",
"350 494 OFFCURVE",
"294 523 OFFCURVE",
"225 523 CURVE SMOOTH",
"129 523 OFFCURVE",
"60 471 OFFCURVE",
"60 393 CURVE SMOOTH",
"60 307 OFFCURVE",
"132 271 OFFCURVE",
"213 238 CURVE SMOOTH",
"275 213 OFFCURVE",
"340 186 OFFCURVE",
"340 124 CURVE SMOOTH",
"340 76 OFFCURVE",
"296 50 OFFCURVE",
"240 50 CURVE SMOOTH",
"187 50 OFFCURVE",
"138 83 OFFCURVE",
"107 120 CURVE",
"58 77 LINE",
"101 26 OFFCURVE",
"165 -12 OFFCURVE",
"234 -12 CURVE SMOOTH"
);
},
{
closed = 1;
nodes = (
"267 576 LINE",
"408 732 LINE",
"343 732 LINE",
"227 631 LINE",
"111 732 LINE",
"46 732 LINE",
"187 576 LINE"
);
}
);
};
components = (
{
name = s;
},
{
name = caron;
transform = "{1, 0, 0, 1, 57, 0}";
}
);
layerId = "DE4AFDBE-F375-44ED-A5DB-4773839D6964";
width = 463;
},
{
background = {
paths = (
{
closed = 1;
nodes = (
"365 -12 OFFCURVE",
"444 43 OFFCURVE",
"444 143 CURVE SMOOTH",
"444 245 OFFCURVE",
"364 284 OFFCURVE",
"276 313 CURVE SMOOTH",
"223 329 OFFCURVE",
"176 348 OFFCURVE",
"176 375 CURVE SMOOTH",
"176 400 OFFCURVE",
"202 413 OFFCURVE",
"241 413 CURVE SMOOTH",
"291 413 OFFCURVE",
"319 389 OFFCURVE",
"341 370 CURVE",
"428 441 LINE",
"391 484 OFFCURVE",
"330 523 OFFCURVE",
"241 523 CURVE SMOOTH",
"139 523 OFFCURVE",
"55 472 OFFCURVE",
"55 379 CURVE SMOOTH",
"55 288 OFFCURVE",
"116 253 OFFCURVE",
"213 218 CURVE SMOOTH",
"282 191 OFFCURVE",
"323 177 OFFCURVE",
"323 143 CURVE SMOOTH",
"323 110 OFFCURVE",
"291 98 OFFCURVE",
"246 98 CURVE SMOOTH",
"192 98 OFFCURVE",
"147 132 OFFCURVE",
"126 153 CURVE",
"40 80 LINE",
"80 24 OFFCURVE",
"161 -12 OFFCURVE",
"244 -12 CURVE SMOOTH"
);
},
{
closed = 1;
nodes = (
"304 576 LINE",
"446 732 LINE",
"326 732 LINE",
"242 663 LINE",
"158 732 LINE",
"38 732 LINE",
"179 576 LINE"
);
}
);
};
components = (
{
name = s;
},
{
name = caron;
transform = "{1, 0, 0, 1, 5, 0}";
}
);
layerId = "1ED176E8-AB71-4F43-9CA1-B943ACA5B6F8";
width = 494;
},
{
background = {
paths = (
{
closed = 1;
nodes = (
"340 -12 OFFCURVE",
"394 42 OFFCURVE",
"394 120 CURVE SMOOTH",
"394 216 OFFCURVE",
"327 247 OFFCURVE",
"240 282 CURVE SMOOTH",
"173 309 OFFCURVE",
"115 331 OFFCURVE",
"115 397 CURVE SMOOTH",
"115 452 OFFCURVE",
"156 489 OFFCURVE",
"227 489 CURVE SMOOTH",
"281 489 OFFCURVE",
"320 463 OFFCURVE",
"348 437 CURVE",
"375 460 LINE",
"339 498 OFFCURVE",
"285 523 OFFCURVE",
"228 523 CURVE SMOOTH",
"134 523 OFFCURVE",
"78 469 OFFCURVE",
"78 397 CURVE SMOOTH",
"78 321 OFFCURVE",
"133 284 OFFCURVE",
"217 253 CURVE SMOOTH",
"289 226 OFFCURVE",
"357 191 OFFCURVE",
"357 120 CURVE SMOOTH",
"357 54 OFFCURVE",
"311 22 OFFCURVE",
"240 22 CURVE SMOOTH",
"185 22 OFFCURVE",
"139 55 OFFCURVE",
"108 89 CURVE",
"80 65 LINE",
"117 23 OFFCURVE",
"171 -12 OFFCURVE",
"241 -12 CURVE SMOOTH"
);
},
{
closed = 1;
nodes = (
"245 576 LINE",
"396 732 LINE",
"359 732 LINE",
"229 612 LINE",
"99 732 LINE",
"62 732 LINE",
"213 576 LINE"
);
}
);
};
components = (
{
name = s;
},
{
name = caron;
transform = "{1, 0, 0, 1, 57, 0}";
}
);
layerId = "3BB16070-9AE0-46D6-9B05-19A363C2D547";
width = 457;
},
{
components = (
{
name = s;
},
{
name = caron;
transform = "{1, 0, 0, 1, -14, 0}";
}
);
layerId = "1D708A55-1947-4475-A0A3-21124B6DD42B";
width = 508;
}
);
leftKerningGroup = scaron;
note = scaron;
rightKerningGroup = scaron;
unicode = 0161;
},
{
glyphname = Yacute;
lastChange = "2016-11-17 05:24:08 +0000";
layers = (
{
background = {
paths = (
{
closed = 1;
nodes = (
"385 0 LINE",
"385 275 LINE",
"631 700 LINE",
"512 700 LINE",
"333 380 LINE",
"154 700 LINE",
"35 700 LINE",
"281 274 LINE",
"281 0 LINE"
);
},
{
closed = 1;
nodes = (
"511 922 LINE",
"369 922 LINE",
"227 766 LINE",
"333 766 LINE"
);
}
);
};
components = (
{
name = Y;
},
{
alignment = -1;
name = acute;
transform = "{1, 0, 0, 1, 151, 189}";
}
);
layerId = "02CCC12B-AAA5-4DEC-99A9-D81829579BCD";
width = 666;
},
{
background = {
paths = (
{
closed = 1;
nodes = (
"344 0 LINE",
"344 278 LINE",
"571 700 LINE",
"499 700 LINE",
"308 340 LINE",
"122 700 LINE",
"45 700 LINE",
"274 275 LINE",
"274 0 LINE"
);
},
{
closed = 1;
nodes = (
"466 922 LINE",
"359 922 LINE",
"217 766 LINE",
"288 766 LINE"
);
}
);
};
components = (
{
name = Y;
},
{
alignment = -1;
name = acute;
transform = "{1, 0, 0, 1, 148, 189}";
}
);
layerId = "DE4AFDBE-F375-44ED-A5DB-4773839D6964";
width = 616;
},
{
background = {
paths = (
{
closed = 1;
nodes = (
"423 0 LINE",
"423 273 LINE",
"682 700 LINE",
"529 700 LINE",
"356 414 LINE",
"183 700 LINE",
"30 700 LINE",
"289 273 LINE",
"289 0 LINE"
);
},
{
closed = 1;
nodes = (
"545 922 LINE",
"383 922 LINE",
"241 766 LINE",
"367 766 LINE"
);
}
);
};
components = (
{
name = Y;
},
{
alignment = -1;
name = acute;
transform = "{1, 0, 0, 1, 128, 189}";
}
);
layerId = "1ED176E8-AB71-4F43-9CA1-B943ACA5B6F8";
width = 692;
},
{
background = {
paths = (
{
closed = 1;
nodes = (
"323 0 LINE",
"323 277 LINE",
"551 700 LINE",
"512 700 LINE",
"305 314 LINE",
"98 700 LINE",
"59 700 LINE",
"287 277 LINE",
"287 0 LINE"
);
},
{
closed = 1;
nodes = (
"437 922 LINE",
"382 922 LINE",
"231 766 LINE",
"268 766 LINE"
);
}
);
};
components = (
{
name = Y;
},
{
alignment = -1;
name = acute;
transform = "{1, 0, 0, 1, 120, 189}";
}
);
layerId = "3BB16070-9AE0-46D6-9B05-19A363C2D547";
width = 600;
},
{
components = (
{
name = Y;
},
{
alignment = -1;
name = acute;
transform = "{1, 0, 0, 1, 111, 189}";
}
);
layerId = "1D708A55-1947-4475-A0A3-21124B6DD42B";
width = 712;
}
);
leftKerningGroup = Y;
note = Yacute;
rightKerningGroup = Y;
unicode = 00DD;
},
{
glyphname = yacute;
lastChange = "2016-11-17 05:24:08 +0000";
layers = (
{
background = {
paths = (
{
closed = 1;
nodes = (
"243 -194 LINE",
"513 511 LINE",
"409 511 LINE",
"282 177 LINE SMOOTH",
"275 158 OFFCURVE",
"272 148 OFFCURVE",
"268 132 CURVE",
"264 148 OFFCURVE",
"261 158 OFFCURVE",
"254 177 CURVE SMOOTH",
"128 511 LINE",
"25 511 LINE",
"216 9 LINE",
"137 -194 LINE"
);
},
{
closed = 1;
nodes = (
"248 576 LINE",
"426 732 LINE",
"284 732 LINE",
"142 576 LINE"
);
}
);
};
components = (
{
name = y;
},
{
name = acute;
transform = "{1, 0, 0, 1, 68, 0}";
}
);
layerId = "02CCC12B-AAA5-4DEC-99A9-D81829579BCD";
width = 538;
},
{
background = {
paths = (
{
closed = 1;
nodes = (
"210 -194 LINE",
"471 511 LINE",
"396 511 LINE",
"247 99 LINE",
"101 511 LINE",
"30 511 LINE",
"217 16 LINE",
"141 -194 LINE"
);
},
{
closed = 1;
nodes = (
"197 576 LINE",
"375 732 LINE",
"268 732 LINE",
"126 576 LINE"
);
}
);
};
components = (
{
name = y;
},
{
name = acute;
transform = "{1, 0, 0, 1, 88, 0}";
}
);
layerId = "DE4AFDBE-F375-44ED-A5DB-4773839D6964";
width = 521;
},
{
background = {
paths = (
{
closed = 1;
nodes = (
"274 -194 LINE",
"545 511 LINE",
"412 511 LINE",
"300 216 LINE",
"295 201 OFFCURVE",
"289 185 OFFCURVE",
"285 169 CURVE",
"281 185 OFFCURVE",
"276 201 OFFCURVE",
"270 216 CURVE SMOOTH",
"158 511 LINE",
"25 511 LINE",
"217 7 LINE",
"139 -194 LINE"
);
},
{
closed = 1;
nodes = (
"277 576 LINE",
"455 732 LINE",
"293 732 LINE",
"151 576 LINE"
);
}
);
};
components = (
{
name = y;
},
{
name = acute;
transform = "{1, 0, 0, 1, 48, 0}";
}
);
layerId = "1ED176E8-AB71-4F43-9CA1-B943ACA5B6F8";
width = 570;
},
{
background = {
paths = (
{
closed = 1;
nodes = (
"197 -194 LINE",
"457 511 LINE",
"421 511 LINE",
"255 59 LINE",
"89 511 LINE",
"53 511 LINE",
"237 12 LINE",
"161 -194 LINE"
);
},
{
closed = 1;
nodes = (
"185 576 LINE",
"354 732 LINE",
"299 732 LINE",
"148 576 LINE"
);
}
);
};
components = (
{
name = y;
},
{
name = acute;
transform = "{1, 0, 0, 1, 91, 0}";
}
);
layerId = "3BB16070-9AE0-46D6-9B05-19A363C2D547";
width = 510;
},
{
components = (
{
name = y;
},
{
name = acute;
transform = "{1, 0, 0, 1, 33, 0}";
}
);
layerId = "1D708A55-1947-4475-A0A3-21124B6DD42B";
width = 594;
}
);
leftKerningGroup = ygrave;
note = yacute;
rightKerningGroup = ygrave;
unicode = 00FD;
},
{
glyphname = Thorn;
lastChange = "2016-11-17 05:24:08 +0000";
layers = (
{
layerId = "02CCC12B-AAA5-4DEC-99A9-D81829579BCD";
paths = (
{
closed = 1;
nodes = (
"194 0 LINE",
"194 142 LINE",
"371 142 LINE SMOOTH",
"537 142 OFFCURVE",
"602 258 OFFCURVE",
"602 356 CURVE SMOOTH",
"602 461 OFFCURVE",
"543 570 OFFCURVE",
"371 570 CURVE SMOOTH",
"194 570 LINE",
"194 700 LINE",
"90 700 LINE",
"90 0 LINE"
);
},
{
closed = 1;
nodes = (
"194 242 LINE",
"194 470 LINE",
"377 470 LINE SMOOTH",
"469 470 OFFCURVE",
"494 405 OFFCURVE",
"494 356 CURVE SMOOTH",
"494 302 OFFCURVE",
"464 242 OFFCURVE",
"377 242 CURVE SMOOTH"
);
}
);
width = 642;
},
{
layerId = "DE4AFDBE-F375-44ED-A5DB-4773839D6964";
paths = (
{
closed = 1;
nodes = (
"175 0 LINE",
"175 150 LINE",
"361 150 LINE SMOOTH",
"523 150 OFFCURVE",
"582 262 OFFCURVE",
"582 355 CURVE SMOOTH",
"582 458 OFFCURVE",
"528 561 OFFCURVE",
"361 561 CURVE SMOOTH",
"175 561 LINE",
"175 700 LINE",
"105 700 LINE",
"105 0 LINE"
);
},
{
closed = 1;
nodes = (
"175 213 LINE",
"175 498 LINE",
"367 498 LINE SMOOTH",
"484 498 OFFCURVE",
"515 414 OFFCURVE",
"515 355 CURVE SMOOTH",
"515 288 OFFCURVE",
"477 213 OFFCURVE",
"367 213 CURVE SMOOTH"
);
}
);
width = 622;
},
{
layerId = "1ED176E8-AB71-4F43-9CA1-B943ACA5B6F8";
paths = (
{
closed = 1;
nodes = (
"215 0 LINE",
"215 135 LINE",
"381 135 LINE SMOOTH",
"552 135 OFFCURVE",
"619 254 OFFCURVE",
"619 356 CURVE SMOOTH",
"619 465 OFFCURVE",
"558 577 OFFCURVE",
"381 577 CURVE SMOOTH",
"215 577 LINE",
"215 700 LINE",
"80 700 LINE",
"80 0 LINE"
);
},
{
closed = 1;
nodes = (
"215 263 LINE",
"215 449 LINE",
"386 449 LINE SMOOTH",
"458 449 OFFCURVE",
"479 396 OFFCURVE",
"479 356 CURVE SMOOTH",
"479 312 OFFCURVE",
"454 263 OFFCURVE",
"386 263 CURVE SMOOTH"
);
}
);
width = 649;
},
{
layerId = "3BB16070-9AE0-46D6-9B05-19A363C2D547";
paths = (
{
closed = 1;
nodes = (
"146 0 LINE",
"146 150 LINE",
"328 150 LINE SMOOTH",
"490 150 OFFCURVE",
"549 262 OFFCURVE",
"549 355 CURVE SMOOTH",
"549 458 OFFCURVE",
"495 561 OFFCURVE",
"328 561 CURVE SMOOTH",
"146 561 LINE",
"146 700 LINE",
"110 700 LINE",
"110 0 LINE"
);
},
{
closed = 1;
nodes = (
"146 186 LINE",
"146 525 LINE",
"329 525 LINE SMOOTH",
"467 525 OFFCURVE",
"510 439 OFFCURVE",
"510 355 CURVE SMOOTH",
"510 278 OFFCURVE",
"462 186 OFFCURVE",
"329 186 CURVE SMOOTH"
);
}
);
width = 599;
},
{
layerId = "1D708A55-1947-4475-A0A3-21124B6DD42B";
paths = (
{
closed = 1;
nodes = (
"231 0 LINE",
"231 130 LINE",
"389 130 LINE SMOOTH",
"563 130 OFFCURVE",
"632 251 OFFCURVE",
"632 356 CURVE SMOOTH",
"632 468 OFFCURVE",
"569 582 OFFCURVE",
"389 582 CURVE SMOOTH",
"231 582 LINE",
"231 700 LINE",
"73 700 LINE",
"73 0 LINE"
);
},
{
closed = 1;
nodes = (
"231 279 LINE",
"231 433 LINE",
"393 433 LINE SMOOTH",
"450 433 OFFCURVE",
"468 389 OFFCURVE",
"468 356 CURVE SMOOTH",
"468 320 OFFCURVE",
"447 279 OFFCURVE",
"393 279 CURVE SMOOTH"
);
}
);
width = 654;
}
);
leftKerningGroup = B;
note = Thorn;
rightKerningGroup = Thorn;
unicode = 00DE;
},
{
glyphname = thorn;
lastChange = "2016-11-17 05:24:08 +0000";
layers = (
{
layerId = "02CCC12B-AAA5-4DEC-99A9-D81829579BCD";
paths = (
{
closed = 1;
nodes = (
"427 -12 OFFCURVE",
"512 87 OFFCURVE",
"512 255 CURVE SMOOTH",
"512 423 OFFCURVE",
"431 523 OFFCURVE",
"302 523 CURVE SMOOTH",
"243 523 OFFCURVE",
"206 500 OFFCURVE",
"179 470 CURVE",
"179 712 LINE",
"75 663 LINE",
"75 -201 LINE",
"179 -153 LINE",
"179 44 LINE",
"204 13 OFFCURVE",
"242 -12 OFFCURVE",
"302 -12 CURVE SMOOTH"
);
},
{
closed = 1;
nodes = (
"238 86 OFFCURVE",
"202 114 OFFCURVE",
"179 145 CURVE",
"179 367 LINE",
"202 404 OFFCURVE",
"239 425 OFFCURVE",
"287 425 CURVE SMOOTH",
"364 425 OFFCURVE",
"408 354 OFFCURVE",
"408 255 CURVE SMOOTH",
"408 146 OFFCURVE",
"365 86 OFFCURVE",
"287 86 CURVE SMOOTH"
);
}
);
width = 562;
},
{
layerId = "DE4AFDBE-F375-44ED-A5DB-4773839D6964";
paths = (
{
closed = 1;
nodes = (
"424 -12 OFFCURVE",
"511 86 OFFCURVE",
"511 256 CURVE SMOOTH",
"511 417 OFFCURVE",
"431 523 OFFCURVE",
"300 523 CURVE SMOOTH",
"231 523 OFFCURVE",
"194 495 OFFCURVE",
"160 465 CURVE",
"160 712 LINE",
"90 678 LINE",
"90 -203 LINE",
"160 -168 LINE",
"160 52 LINE",
"189 18 OFFCURVE",
"228 -12 OFFCURVE",
"300 -12 CURVE SMOOTH"
);
},
{
closed = 1;
nodes = (
"236 51 OFFCURVE",
"195 85 OFFCURVE",
"160 130 CURVE",
"160 381 LINE",
"188 431 OFFCURVE",
"237 460 OFFCURVE",
"292 460 CURVE SMOOTH",
"382 460 OFFCURVE",
"438 380 OFFCURVE",
"438 256 CURVE SMOOTH",
"438 126 OFFCURVE",
"386 51 OFFCURVE",
"292 51 CURVE SMOOTH"
);
}
);
width = 566;
},
{
layerId = "1ED176E8-AB71-4F43-9CA1-B943ACA5B6F8";
paths = (
{
closed = 1;
nodes = (
"432 -12 OFFCURVE",
"521 87 OFFCURVE",
"521 255 CURVE SMOOTH",
"521 428 OFFCURVE",
"437 523 OFFCURVE",
"310 523 CURVE SMOOTH",
"258 523 OFFCURVE",
"223 503 OFFCURVE",
"200 474 CURVE",
"200 712 LINE",
"70 650 LINE",
"70 -197 LINE",
"200 -136 LINE",
"200 37 LINE",
"223 8 OFFCURVE",
"258 -12 OFFCURVE",
"309 -12 CURVE SMOOTH"
);
},
{
closed = 1;
nodes = (
"244 113 OFFCURVE",
"213 134 OFFCURVE",
"200 155 CURVE",
"200 357 LINE",
"219 382 OFFCURVE",
"246 398 OFFCURVE",
"289 398 CURVE SMOOTH",
"356 398 OFFCURVE",
"391 341 OFFCURVE",
"391 255 CURVE SMOOTH",
"391 164 OFFCURVE",
"354 113 OFFCURVE",
"289 113 CURVE SMOOTH"
);
}
);
width = 571;
},
{
layerId = "3BB16070-9AE0-46D6-9B05-19A363C2D547";
paths = (
{
closed = 1;
nodes = (
"409 -12 OFFCURVE",
"490 82 OFFCURVE",
"490 256 CURVE SMOOTH",
"490 417 OFFCURVE",
"416 523 OFFCURVE",
"296 523 CURVE SMOOTH",
"228 523 OFFCURVE",
"174 494 OFFCURVE",
"139 437 CURVE",
"139 722 LINE",
"103 704 LINE",
"103 -203 LINE",
"139 -185 LINE",
"139 84 LINE",
"168 25 OFFCURVE",
"225 -12 OFFCURVE",
"288 -12 CURVE SMOOTH"
);
},
{
closed = 1;
nodes = (
"226 24 OFFCURVE",
"172 66 OFFCURVE",
"139 134 CURVE",
"139 389 LINE",
"170 448 OFFCURVE",
"226 487 OFFCURVE",
"288 487 CURVE SMOOTH",
"390 487 OFFCURVE",
"451 396 OFFCURVE",
"451 256 CURVE SMOOTH",
"451 108 OFFCURVE",
"392 24 OFFCURVE",
"288 24 CURVE SMOOTH"
);
}
);
width = 558;
},
{
layerId = "1D708A55-1947-4475-A0A3-21124B6DD42B";
paths = (
{
closed = 1;
nodes = (
"436 -12 OFFCURVE",
"528 87 OFFCURVE",
"528 255 CURVE SMOOTH",
"528 432 OFFCURVE",
"442 523 OFFCURVE",
"316 523 CURVE SMOOTH",
"269 523 OFFCURVE",
"236 505 OFFCURVE",
"216 477 CURVE",
"216 712 LINE",
"66 640 LINE",
"66 -194 LINE",
"216 -123 LINE",
"216 32 LINE",
"237 4 OFFCURVE",
"270 -12 OFFCURVE",
"314 -12 CURVE SMOOTH"
);
},
{
closed = 1;
nodes = (
"249 133 OFFCURVE",
"221 149 OFFCURVE",
"216 163 CURVE",
"216 350 LINE",
"232 366 OFFCURVE",
"251 378 OFFCURVE",
"291 378 CURVE SMOOTH",
"350 378 OFFCURVE",
"378 331 OFFCURVE",
"378 255 CURVE SMOOTH",
"378 178 OFFCURVE",
"346 133 OFFCURVE",
"291 133 CURVE SMOOTH"
);
}
);
width = 578;
}
);
leftKerningGroup = b;
note = thorn;
rightKerningGroup = o;
unicode = 00FE;
},
{
glyphname = Zcaron;
lastChange = "2016-11-17 05:24:08 +0000";
layers = (
{
background = {
paths = (
{
closed = 1;
nodes = (
"597 0 LINE",
"597 100 LINE",
"192 100 LINE",
"597 616 LINE",
"597 700 LINE",
"78 700 LINE",
"78 600 LINE",
"459 600 LINE",
"55 84 LINE",
"55 0 LINE"
);
},
{
closed = 1;
nodes = (
"532 922 LINE",
"432 922 LINE",
"338 843 LINE",
"244 922 LINE",
"144 922 LINE",
"285 766 LINE",
"390 766 LINE"
);
}
);
};
components = (
{
name = Z;
},
{
name = caron;
transform = "{1, 0, 0, 1, 153, 189}";
}
);
layerId = "02CCC12B-AAA5-4DEC-99A9-D81829579BCD";
width = 662;
},
{
background = {
paths = (
{
closed = 1;
nodes = (
"567 0 LINE",
"567 66 LINE",
"164 66 LINE",
"567 649 LINE",
"567 700 LINE",
"93 700 LINE",
"93 634 LINE",
"478 634 LINE",
"70 49 LINE",
"70 0 LINE"
);
},
{
closed = 1;
nodes = (
"535 922 LINE",
"470 922 LINE",
"354 821 LINE",
"238 922 LINE",
"173 922 LINE",
"314 766 LINE",
"394 766 LINE"
);
}
);
};
components = (
{
name = Z;
},
{
name = caron;
transform = "{1, 0, 0, 1, 171, 189}";
}
);
guideLines = (
{
angle = 90;
position = "{320, 445}";
}
);
layerId = "DE4AFDBE-F375-44ED-A5DB-4773839D6964";
width = 637;
},
{
background = {
paths = (
{
closed = 1;
nodes = (
"600 0 LINE",
"600 128 LINE",
"231 128 LINE",
"600 597 LINE",
"600 700 LINE",
"77 700 LINE",
"77 572 LINE",
"421 572 LINE",
"55 103 LINE",
"55 0 LINE"
);
},
{
closed = 1;
nodes = (
"541 922 LINE",
"421 922 LINE",
"337 853 LINE",
"253 922 LINE",
"133 922 LINE",
"274 766 LINE",
"399 766 LINE"
);
}
);
};
components = (
{
name = Z;
},
{
name = caron;
transform = "{1, 0, 0, 1, 105, 189}";
}
);
layerId = "1ED176E8-AB71-4F43-9CA1-B943ACA5B6F8";
width = 645;
},
{
background = {
paths = (
{
closed = 1;
nodes = (
"533 0 LINE",
"533 33 LINE",
"124 33 LINE",
"533 679 LINE",
"533 700 LINE",
"95 700 LINE",
"95 667 LINE",
"485 667 LINE",
"72 19 LINE",
"72 0 LINE"
);
},
{
closed = 1;
nodes = (
"499 922 LINE",
"462 922 LINE",
"332 802 LINE",
"202 922 LINE",
"165 922 LINE",
"316 766 LINE",
"348 766 LINE"
);
}
);
};
components = (
{
name = Z;
},
{
name = caron;
transform = "{1, 0, 0, 1, 146, 189}";
}
);
guideLines = (
{
angle = 90;
position = "{319, 398}";
}
);
layerId = "3BB16070-9AE0-46D6-9B05-19A363C2D547";
width = 595;
},
{
components = (
{
name = Z;
},
{
name = caron;
transform = "{1, 0, 0, 1, 69, 189}";
}
);
layerId = "1D708A55-1947-4475-A0A3-21124B6DD42B";
width = 632;
}
);
leftKerningGroup = Z;
note = Zcaron;
rightKerningGroup = Z;
unicode = 017D;
},
{
glyphname = zcaron;
lastChange = "2016-11-17 05:24:08 +0000";
layers = (
{
background = {
paths = (
{
closed = 1;
nodes = (
"450 0 LINE",
"450 92 LINE",
"180 92 LINE",
"451 429 LINE",
"451 511 LINE",
"75 511 LINE",
"75 419 LINE",
"326 419 LINE",
"55 85 LINE",
"55 0 LINE"
);
},
{
closed = 1;
nodes = (
"452 732 LINE",
"352 732 LINE",
"258 653 LINE",
"164 732 LINE",
"64 732 LINE",
"205 576 LINE",
"310 576 LINE"
);
}
);
};
components = (
{
alignment = -1;
name = z;
},
{
name = caron;
transform = "{1, 0, 0, 1, 56, 0}";
}
);
layerId = "02CCC12B-AAA5-4DEC-99A9-D81829579BCD";
width = 511;
},
{
background = {
paths = (
{
closed = 1;
nodes = (
"423 0 LINE",
"423 63 LINE",
"161 63 LINE",
"424 469 LINE",
"424 511 LINE",
"90 511 LINE",
"90 448 LINE",
"331 448 LINE",
"70 43 LINE",
"70 0 LINE"
);
},
{
closed = 1;
nodes = (
"426 732 LINE",
"361 732 LINE",
"245 631 LINE",
"129 732 LINE",
"64 732 LINE",
"205 576 LINE",
"285 576 LINE"
);
}
);
};
components = (
{
alignment = -1;
name = z;
},
{
name = caron;
transform = "{1, 0, 0, 1, 91, 0}";
}
);
layerId = "DE4AFDBE-F375-44ED-A5DB-4773839D6964";
width = 499;
},
{
background = {
paths = (
{
closed = 1;
nodes = (
"483 0 LINE",
"483 116 LINE",
"221 116 LINE",
"484 412 LINE",
"484 511 LINE",
"74 511 LINE",
"74 395 LINE",
"319 395 LINE",
"55 102 LINE",
"55 0 LINE"
);
},
{
closed = 1;
nodes = (
"484 732 LINE",
"364 732 LINE",
"280 663 LINE",
"196 732 LINE",
"76 732 LINE",
"217 576 LINE",
"342 576 LINE"
);
}
);
};
components = (
{
alignment = -1;
name = z;
},
{
name = caron;
transform = "{1, 0, 0, 1, 43, 0}";
}
);
layerId = "1ED176E8-AB71-4F43-9CA1-B943ACA5B6F8";
width = 544;
},
{
background = {
paths = (
{
closed = 1;
nodes = (
"426 0 LINE",
"426 33 LINE",
"120 33 LINE",
"427 490 LINE",
"427 511 LINE",
"93 511 LINE",
"93 478 LINE",
"379 478 LINE",
"73 22 LINE",
"73 0 LINE"
);
},
{
closed = 1;
nodes = (
"415 732 LINE",
"378 732 LINE",
"248 612 LINE",
"118 732 LINE",
"81 732 LINE",
"232 576 LINE",
"264 576 LINE"
);
}
);
};
components = (
{
alignment = -1;
name = z;
},
{
name = caron;
transform = "{1, 0, 0, 1, 81, 0}";
}
);
layerId = "3BB16070-9AE0-46D6-9B05-19A363C2D547";
width = 495;
},
{
components = (
{
alignment = -1;
name = z;
},
{
name = caron;
transform = "{1, 0, 0, 1, 33, 0}";
}
);
layerId = "1D708A55-1947-4475-A0A3-21124B6DD42B";
width = 569;
}
);
leftKerningGroup = zcaron;
note = zcaron;
rightKerningGroup = zcaron;
unicode = 017E;
},
{
glyphname = onehalf;
lastChange = "2016-11-17 05:24:08 +0000";
layers = (
{
background = {
paths = (
{
closed = 1;
nodes = (
"105 -12 LINE",
"583 712 LINE",
"488 712 LINE",
"10 -12 LINE"
);
},
{
closed = 1;
nodes = (
"152 283 LINE",
"152 705 LINE",
"86 705 LINE",
"74 686 OFFCURVE",
"57 678 OFFCURVE",
"15 678 CURVE",
"15 617 LINE",
"70 617 LINE",
"70 283 LINE"
);
},
{
closed = 1;
nodes = (
"691 0 LINE",
"691 78 LINE",
"495 78 LINE",
"509 110 OFFCURVE",
"532 141 OFFCURVE",
"578 165 CURVE SMOOTH",
"642 198 OFFCURVE",
"692 226 OFFCURVE",
"692 300 CURVE SMOOTH",
"692 375 OFFCURVE",
"637 429 OFFCURVE",
"548 429 CURVE SMOOTH",
"472 429 OFFCURVE",
"411 376 OFFCURVE",
"397 305 CURVE",
"478 286 LINE",
"486 327 OFFCURVE",
"510 351 OFFCURVE",
"548 351 CURVE SMOOTH",
"585 351 OFFCURVE",
"605 328 OFFCURVE",
"605 302 CURVE SMOOTH",
"605 269 OFFCURVE",
"577 254 OFFCURVE",
"545 237 CURVE SMOOTH",
"466 196 OFFCURVE",
"398 120 OFFCURVE",
"398 0 CURVE"
);
}
);
};
layerId = "02CCC12B-AAA5-4DEC-99A9-D81829579BCD";
paths = (
{
closed = 1;
nodes = (
"105 -12 LINE",
"583 712 LINE",
"488 712 LINE",
"10 -12 LINE"
);
},
{
closed = 1;
nodes = (
"152 283 LINE",
"152 705 LINE",
"86 705 LINE",
"74 686 OFFCURVE",
"57 678 OFFCURVE",
"15 678 CURVE",
"15 617 LINE",
"70 617 LINE",
"70 283 LINE"
);
},
{
closed = 1;
nodes = (
"691 0 LINE",
"691 78 LINE",
"495 78 LINE",
"509 110 OFFCURVE",
"532 141 OFFCURVE",
"578 165 CURVE SMOOTH",
"642 198 OFFCURVE",
"692 226 OFFCURVE",
"692 300 CURVE SMOOTH",
"692 375 OFFCURVE",
"637 429 OFFCURVE",
"548 429 CURVE SMOOTH",
"472 429 OFFCURVE",
"411 376 OFFCURVE",
"397 305 CURVE",
"478 286 LINE",
"486 327 OFFCURVE",
"510 351 OFFCURVE",
"548 351 CURVE SMOOTH",
"585 351 OFFCURVE",
"605 328 OFFCURVE",
"605 302 CURVE SMOOTH",
"605 269 OFFCURVE",
"577 254 OFFCURVE",
"545 237 CURVE SMOOTH",
"466 196 OFFCURVE",
"398 120 OFFCURVE",
"398 0 CURVE"
);
}
);
width = 730;
},
{
background = {
paths = (
{
closed = 1;
nodes = (
"83 -12 LINE",
"561 712 LINE",
"492 712 LINE",
"14 -12 LINE"
);
},
{
closed = 1;
nodes = (
"143 283 LINE",
"143 705 LINE",
"101 705 LINE",
"91 672 OFFCURVE",
"72 650 OFFCURVE",
"35 650 CURVE",
"35 607 LINE",
"82 607 LINE",
"82 283 LINE"
);
},
{
closed = 1;
nodes = (
"669 0 LINE",
"669 55 LINE",
"458 55 LINE",
"472 91 OFFCURVE",
"501 114 OFFCURVE",
"553 146 CURVE SMOOTH",
"632 194 OFFCURVE",
"670 233 OFFCURVE",
"670 305 CURVE SMOOTH",
"670 382 OFFCURVE",
"613 429 OFFCURVE",
"537 429 CURVE SMOOTH",
"456 429 OFFCURVE",
"408 386 OFFCURVE",
"394 329 CURVE",
"445 308 LINE",
"455 355 OFFCURVE",
"482 379 OFFCURVE",
"529 379 CURVE SMOOTH",
"587 379 OFFCURVE",
"608 338 OFFCURVE",
"608 310 CURVE SMOOTH",
"608 258 OFFCURVE",
"582 232 OFFCURVE",
"540 204 CURVE SMOOTH",
"453 145 OFFCURVE",
"393 107 OFFCURVE",
"393 0 CURVE"
);
}
);
};
layerId = "DE4AFDBE-F375-44ED-A5DB-4773839D6964";
paths = (
{
closed = 1;
nodes = (
"83 -12 LINE",
"561 712 LINE",
"492 712 LINE",
"14 -12 LINE"
);
},
{
closed = 1;
nodes = (
"143 283 LINE",
"143 705 LINE",
"101 705 LINE",
"91 672 OFFCURVE",
"72 650 OFFCURVE",
"35 650 CURVE",
"35 607 LINE",
"82 607 LINE",
"82 283 LINE"
);
},
{
closed = 1;
nodes = (
"669 0 LINE",
"669 55 LINE",
"458 55 LINE",
"472 91 OFFCURVE",
"501 114 OFFCURVE",
"553 146 CURVE SMOOTH",
"632 194 OFFCURVE",
"670 233 OFFCURVE",
"670 305 CURVE SMOOTH",
"670 382 OFFCURVE",
"613 429 OFFCURVE",
"537 429 CURVE SMOOTH",
"456 429 OFFCURVE",
"408 386 OFFCURVE",
"394 329 CURVE",
"445 308 LINE",
"455 355 OFFCURVE",
"482 379 OFFCURVE",
"529 379 CURVE SMOOTH",
"587 379 OFFCURVE",
"608 338 OFFCURVE",
"608 310 CURVE SMOOTH",
"608 258 OFFCURVE",
"582 232 OFFCURVE",
"540 204 CURVE SMOOTH",
"453 145 OFFCURVE",
"393 107 OFFCURVE",
"393 0 CURVE"
);
}
);
width = 723;
},
{
background = {
paths = (
{
closed = 1;
nodes = (
"139 -12 LINE",
"617 712 LINE",
"492 712 LINE",
"14 -12 LINE"
);
},
{
closed = 1;
nodes = (
"171 283 LINE",
"171 705 LINE",
"84 705 LINE",
"73 686 OFFCURVE",
"55 676 OFFCURVE",
"10 676 CURVE",
"10 593 LINE",
"61 593 LINE",
"61 283 LINE"
);
},
{
closed = 1;
nodes = (
"720 0 LINE",
"720 102 LINE",
"543 102 LINE",
"554 125 OFFCURVE",
"578 142 OFFCURVE",
"611 161 CURVE",
"671 192 OFFCURVE",
"721 220 OFFCURVE",
"721 299 CURVE SMOOTH",
"721 375 OFFCURVE",
"662 429 OFFCURVE",
"574 429 CURVE SMOOTH",
"493 429 OFFCURVE",
"435 379 OFFCURVE",
"414 304 CURVE",
"513 280 LINE",
"522 311 OFFCURVE",
"538 329 OFFCURVE",
"569 329 CURVE SMOOTH",
"594 329 OFFCURVE",
"607 314 OFFCURVE",
"607 295 CURVE SMOOTH",
"607 273 OFFCURVE",
"584 260 OFFCURVE",
"560 247 CURVE SMOOTH",
"476 204 OFFCURVE",
"413 130 OFFCURVE",
"413 0 CURVE"
);
}
);
};
layerId = "1ED176E8-AB71-4F43-9CA1-B943ACA5B6F8";
paths = (
{
closed = 1;
nodes = (
"139 -12 LINE",
"617 712 LINE",
"492 712 LINE",
"14 -12 LINE"
);
},
{
closed = 1;
nodes = (
"171 283 LINE",
"171 705 LINE",
"84 705 LINE",
"73 686 OFFCURVE",
"55 676 OFFCURVE",
"10 676 CURVE",
"10 593 LINE",
"61 593 LINE",
"61 283 LINE"
);
},
{
closed = 1;
nodes = (
"720 0 LINE",
"720 102 LINE",
"543 102 LINE",
"554 125 OFFCURVE",
"578 142 OFFCURVE",
"611 161 CURVE",
"671 192 OFFCURVE",
"721 220 OFFCURVE",
"721 299 CURVE SMOOTH",
"721 375 OFFCURVE",
"662 429 OFFCURVE",
"574 429 CURVE SMOOTH",
"493 429 OFFCURVE",
"435 379 OFFCURVE",
"414 304 CURVE",
"513 280 LINE",
"522 311 OFFCURVE",
"538 329 OFFCURVE",
"569 329 CURVE SMOOTH",
"594 329 OFFCURVE",
"607 314 OFFCURVE",
"607 295 CURVE SMOOTH",
"607 273 OFFCURVE",
"584 260 OFFCURVE",
"560 247 CURVE SMOOTH",
"476 204 OFFCURVE",
"413 130 OFFCURVE",
"413 0 CURVE"
);
}
);
width = 759;
},
{
background = {
paths = (
{
closed = 1;
nodes = (
"68 -12 LINE",
"546 712 LINE",
"503 712 LINE",
"25 -12 LINE"
);
},
{
closed = 1;
nodes = (
"130 283 LINE",
"130 705 LINE",
"106 705 LINE",
"100 662 OFFCURVE",
"86 641 OFFCURVE",
"36 639 CURVE",
"36 617 LINE",
"92 617 LINE",
"92 283 LINE"
);
},
{
closed = 1;
nodes = (
"654 0 LINE",
"654 40 LINE",
"443 40 LINE",
"454 84 OFFCURVE",
"483 118 OFFCURVE",
"550 157 CURVE SMOOTH",
"620 198 OFFCURVE",
"656 235 OFFCURVE",
"656 308 CURVE SMOOTH",
"656 383 OFFCURVE",
"604 429 OFFCURVE",
"530 429 CURVE SMOOTH",
"460 429 OFFCURVE",
"414 384 OFFCURVE",
"400 331 CURVE",
"433 318 LINE",
"446 362 OFFCURVE",
"473 393 OFFCURVE",
"530 393 CURVE SMOOTH",
"592 393 OFFCURVE",
"618 347 OFFCURVE",
"618 308 CURVE SMOOTH",
"618 252 OFFCURVE",
"589 224 OFFCURVE",
"533 190 CURVE SMOOTH",
"464 147 OFFCURVE",
"401 100 OFFCURVE",
"400 0 CURVE"
);
}
);
};
layerId = "3BB16070-9AE0-46D6-9B05-19A363C2D547";
paths = (
{
closed = 1;
nodes = (
"68 -12 LINE",
"546 712 LINE",
"503 712 LINE",
"25 -12 LINE"
);
},
{
closed = 1;
nodes = (
"130 283 LINE",
"130 705 LINE",
"106 705 LINE",
"100 662 OFFCURVE",
"86 641 OFFCURVE",
"36 639 CURVE",
"36 617 LINE",
"92 617 LINE",
"92 283 LINE"
);
},
{
closed = 1;
nodes = (
"654 0 LINE",
"654 40 LINE",
"443 40 LINE",
"454 84 OFFCURVE",
"483 118 OFFCURVE",
"550 157 CURVE SMOOTH",
"620 198 OFFCURVE",
"656 235 OFFCURVE",
"656 308 CURVE SMOOTH",
"656 383 OFFCURVE",
"604 429 OFFCURVE",
"530 429 CURVE SMOOTH",
"460 429 OFFCURVE",
"414 384 OFFCURVE",
"400 331 CURVE",
"433 318 LINE",
"446 362 OFFCURVE",
"473 393 OFFCURVE",
"530 393 CURVE SMOOTH",
"592 393 OFFCURVE",
"618 347 OFFCURVE",
"618 308 CURVE SMOOTH",
"618 252 OFFCURVE",
"589 224 OFFCURVE",
"533 190 CURVE SMOOTH",
"464 147 OFFCURVE",
"401 100 OFFCURVE",
"400 0 CURVE"
);
}
);
width = 719;
},
{
layerId = "1D708A55-1947-4475-A0A3-21124B6DD42B";
paths = (
{
closed = 1;
nodes = (
"165 -12 LINE",
"643 712 LINE",
"495 712 LINE",
"17 -12 LINE"
);
},
{
closed = 1;
nodes = (
"185 283 LINE",
"185 705 LINE",
"83 705 LINE",
"72 686 OFFCURVE",
"54 675 OFFCURVE",
"6 675 CURVE",
"6 575 LINE",
"54 575 LINE",
"54 283 LINE"
);
},
{
closed = 1;
nodes = (
"742 0 LINE",
"742 120 LINE",
"579 120 LINE",
"588 136 OFFCURVE",
"613 143 OFFCURVE",
"636 158 CURVE",
"693 188 OFFCURVE",
"743 216 OFFCURVE",
"743 298 CURVE SMOOTH",
"743 375 OFFCURVE",
"681 429 OFFCURVE",
"594 429 CURVE SMOOTH",
"509 429 OFFCURVE",
"453 381 OFFCURVE",
"427 303 CURVE",
"539 276 LINE",
"549 299 OFFCURVE",
"559 313 OFFCURVE",
"585 313 CURVE SMOOTH",
"601 313 OFFCURVE",
"609 304 OFFCURVE",
"609 290 CURVE SMOOTH",
"609 276 OFFCURVE",
"589 265 OFFCURVE",
"571 255 CURVE SMOOTH",
"484 210 OFFCURVE",
"424 138 OFFCURVE",
"424 0 CURVE"
);
}
);
width = 781;
}
);
note = onehalf;
unicode = 00BD;
},
{
glyphname = onequarter;
lastChange = "2016-11-17 05:24:08 +0000";
layers = (
{
background = {
paths = (
{
closed = 1;
nodes = (
"105 -12 LINE",
"583 712 LINE",
"488 712 LINE",
"10 -12 LINE"
);
},
{
closed = 1;
nodes = (
"152 283 LINE",
"152 705 LINE",
"86 705 LINE",
"74 686 OFFCURVE",
"57 678 OFFCURVE",
"15 678 CURVE",
"15 617 LINE",
"70 617 LINE",
"70 283 LINE"
);
},
{
closed = 1;
nodes = (
"609 0 LINE",
"609 86 LINE",
"663 86 LINE",
"663 163 LINE",
"609 163 LINE",
"609 423 LINE",
"532 423 LINE",
"317 139 LINE",
"317 86 LINE",
"529 86 LINE",
"529 0 LINE"
);
},
{
closed = 1;
nodes = (
"420 163 LINE",
"529 305 LINE",
"529 163 LINE"
);
}
);
};
layerId = "02CCC12B-AAA5-4DEC-99A9-D81829579BCD";
paths = (
{
closed = 1;
nodes = (
"105 -12 LINE",
"583 712 LINE",
"488 712 LINE",
"10 -12 LINE"
);
},
{
closed = 1;
nodes = (
"152 283 LINE",
"152 705 LINE",
"86 705 LINE",
"74 686 OFFCURVE",
"57 678 OFFCURVE",
"15 678 CURVE",
"15 617 LINE",
"70 617 LINE",
"70 283 LINE"
);
},
{
closed = 1;
nodes = (
"609 0 LINE",
"609 86 LINE",
"663 86 LINE",
"663 163 LINE",
"609 163 LINE",
"609 423 LINE",
"532 423 LINE",
"317 139 LINE",
"317 86 LINE",
"529 86 LINE",
"529 0 LINE"
);
},
{
closed = 1;
nodes = (
"420 163 LINE",
"529 305 LINE",
"529 163 LINE"
);
}
);
width = 686;
},
{
background = {
paths = (
{
closed = 1;
nodes = (
"83 -12 LINE",
"561 712 LINE",
"492 712 LINE",
"14 -12 LINE"
);
},
{
closed = 1;
nodes = (
"143 283 LINE",
"143 705 LINE",
"101 705 LINE",
"91 672 OFFCURVE",
"72 650 OFFCURVE",
"35 650 CURVE",
"35 607 LINE",
"82 607 LINE",
"82 283 LINE"
);
},
{
closed = 1;
nodes = (
"583 0 LINE",
"583 108 LINE",
"635 108 LINE",
"635 163 LINE",
"583 163 LINE",
"583 423 LINE",
"536 423 LINE",
"312 138 LINE",
"312 108 LINE",
"522 108 LINE",
"522 0 LINE"
);
},
{
closed = 1;
nodes = (
"393 163 LINE",
"522 335 LINE",
"522 163 LINE"
);
}
);
};
layerId = "DE4AFDBE-F375-44ED-A5DB-4773839D6964";
paths = (
{
closed = 1;
nodes = (
"83 -12 LINE",
"561 712 LINE",
"492 712 LINE",
"14 -12 LINE"
);
},
{
closed = 1;
nodes = (
"143 283 LINE",
"143 705 LINE",
"101 705 LINE",
"91 672 OFFCURVE",
"72 650 OFFCURVE",
"35 650 CURVE",
"35 607 LINE",
"82 607 LINE",
"82 283 LINE"
);
},
{
closed = 1;
nodes = (
"583 0 LINE",
"583 108 LINE",
"635 108 LINE",
"635 163 LINE",
"583 163 LINE",
"583 423 LINE",
"536 423 LINE",
"312 138 LINE",
"312 108 LINE",
"522 108 LINE",
"522 0 LINE"
);
},
{
closed = 1;
nodes = (
"393 163 LINE",
"522 335 LINE",
"522 163 LINE"
);
}
);
width = 674;
},
{
background = {
paths = (
{
closed = 1;
nodes = (
"139 -12 LINE",
"617 712 LINE",
"492 712 LINE",
"14 -12 LINE"
);
},
{
closed = 1;
nodes = (
"171 283 LINE",
"171 705 LINE",
"84 705 LINE",
"73 686 OFFCURVE",
"55 676 OFFCURVE",
"10 676 CURVE",
"10 593 LINE",
"61 593 LINE",
"61 283 LINE"
);
},
{
closed = 1;
nodes = (
"640 0 LINE",
"640 80 LINE",
"696 80 LINE",
"696 172 LINE",
"640 172 LINE",
"640 422 LINE",
"540 422 LINE",
"333 152 LINE",
"333 80 LINE",
"538 80 LINE",
"538 0 LINE"
);
},
{
closed = 1;
nodes = (
"450 172 LINE",
"538 288 LINE",
"538 172 LINE"
);
}
);
};
layerId = "1ED176E8-AB71-4F43-9CA1-B943ACA5B6F8";
paths = (
{
closed = 1;
nodes = (
"139 -12 LINE",
"617 712 LINE",
"492 712 LINE",
"14 -12 LINE"
);
},
{
closed = 1;
nodes = (
"171 283 LINE",
"171 705 LINE",
"84 705 LINE",
"73 686 OFFCURVE",
"55 676 OFFCURVE",
"10 676 CURVE",
"10 593 LINE",
"61 593 LINE",
"61 283 LINE"
);
},
{
closed = 1;
nodes = (
"640 0 LINE",
"640 80 LINE",
"696 80 LINE",
"696 172 LINE",
"640 172 LINE",
"640 422 LINE",
"540 422 LINE",
"333 152 LINE",
"333 80 LINE",
"538 80 LINE",
"538 0 LINE"
);
},
{
closed = 1;
nodes = (
"450 172 LINE",
"538 288 LINE",
"538 172 LINE"
);
}
);
width = 719;
},
{
background = {
paths = (
{
closed = 1;
nodes = (
"68 -12 LINE",
"546 712 LINE",
"503 712 LINE",
"25 -12 LINE"
);
},
{
closed = 1;
nodes = (
"130 283 LINE",
"130 705 LINE",
"106 705 LINE",
"100 662 OFFCURVE",
"86 641 OFFCURVE",
"36 639 CURVE",
"36 617 LINE",
"92 617 LINE",
"92 283 LINE"
);
},
{
closed = 1;
nodes = (
"560 0 LINE",
"560 117 LINE",
"616 117 LINE",
"616 153 LINE",
"560 153 LINE",
"560 423 LINE",
"529 423 LINE",
"310 137 LINE",
"310 117 LINE",
"522 117 LINE",
"522 0 LINE"
);
},
{
closed = 1;
nodes = (
"363 153 LINE",
"522 360 LINE",
"522 153 LINE"
);
}
);
};
layerId = "3BB16070-9AE0-46D6-9B05-19A363C2D547";
paths = (
{
closed = 1;
nodes = (
"68 -12 LINE",
"546 712 LINE",
"503 712 LINE",
"25 -12 LINE"
);
},
{
closed = 1;
nodes = (
"130 283 LINE",
"130 705 LINE",
"106 705 LINE",
"100 662 OFFCURVE",
"86 641 OFFCURVE",
"36 639 CURVE",
"36 617 LINE",
"92 617 LINE",
"92 283 LINE"
);
},
{
closed = 1;
nodes = (
"560 0 LINE",
"560 117 LINE",
"616 117 LINE",
"616 153 LINE",
"560 153 LINE",
"560 423 LINE",
"529 423 LINE",
"310 137 LINE",
"310 117 LINE",
"522 117 LINE",
"522 0 LINE"
);
},
{
closed = 1;
nodes = (
"363 153 LINE",
"522 360 LINE",
"522 153 LINE"
);
}
);
width = 670;
},
{
layerId = "1D708A55-1947-4475-A0A3-21124B6DD42B";
paths = (
{
closed = 1;
nodes = (
"165 -12 LINE",
"643 712 LINE",
"495 712 LINE",
"17 -12 LINE"
);
},
{
closed = 1;
nodes = (
"185 283 LINE",
"185 705 LINE",
"83 705 LINE",
"72 686 OFFCURVE",
"54 675 OFFCURVE",
"6 675 CURVE",
"6 575 LINE",
"54 575 LINE",
"54 283 LINE"
);
},
{
closed = 1;
nodes = (
"663 0 LINE",
"663 76 LINE",
"721 76 LINE",
"721 179 LINE",
"663 179 LINE",
"663 421 LINE",
"546 421 LINE",
"345 162 LINE",
"345 76 LINE",
"545 76 LINE",
"545 0 LINE"
);
},
{
closed = 1;
nodes = (
"473 179 LINE",
"545 275 LINE",
"545 179 LINE"
);
}
);
width = 744;
}
);
note = onequarter;
unicode = 00BC;
},
{
glyphname = onesuperior;
lastChange = "2016-11-17 05:24:08 +0000";
layers = (
{
layerId = "02CCC12B-AAA5-4DEC-99A9-D81829579BCD";
paths = (
{
closed = 1;
nodes = (
"147 444 LINE",
"147 866 LINE",
"81 866 LINE",
"69 847 OFFCURVE",
"52 839 OFFCURVE",
"10 839 CURVE",
"10 778 LINE",
"65 778 LINE",
"65 444 LINE"
);
}
);
width = 200;
},
{
layerId = "DE4AFDBE-F375-44ED-A5DB-4773839D6964";
paths = (
{
closed = 1;
nodes = (
"132 444 LINE",
"132 866 LINE",
"91 866 LINE",
"81 833 OFFCURVE",
"62 811 OFFCURVE",
"25 811 CURVE",
"25 768 LINE",
"72 768 LINE",
"72 444 LINE"
);
}
);
width = 200;
},
{
layerId = "1ED176E8-AB71-4F43-9CA1-B943ACA5B6F8";
paths = (
{
closed = 1;
nodes = (
"171 444 LINE",
"171 866 LINE",
"84 866 LINE",
"74 848 OFFCURVE",
"54 837 OFFCURVE",
"10 837 CURVE",
"10 754 LINE",
"61 754 LINE",
"61 444 LINE"
);
}
);
width = 224;
},
{
layerId = "3BB16070-9AE0-46D6-9B05-19A363C2D547";
paths = (
{
closed = 1;
nodes = (
"120 444 LINE",
"120 866 LINE",
"96 866 LINE",
"90 823 OFFCURVE",
"76 802 OFFCURVE",
"26 800 CURVE",
"26 778 LINE",
"82 778 LINE",
"82 444 LINE"
);
}
);
width = 196;
},
{
layerId = "1D708A55-1947-4475-A0A3-21124B6DD42B";
paths = (
{
closed = 1;
nodes = (
"189 444 LINE",
"189 866 LINE",
"86 866 LINE",
"78 849 OFFCURVE",
"56 836 OFFCURVE",
"10 836 CURVE",
"10 736 LINE",
"58 736 LINE",
"58 444 LINE"
);
}
);
width = 242;
}
);
note = onesuperior;
unicode = 00B9;
},
{
glyphname = threequarters;
lastChange = "2016-11-17 05:24:08 +0000";
layers = (
{
background = {
paths = (
{
closed = 1;
nodes = (
"253 275 OFFCURVE",
"314 326 OFFCURVE",
"314 406 CURVE SMOOTH",
"314 447 OFFCURVE",
"290 485 OFFCURVE",
"250 503 CURVE",
"279 522 OFFCURVE",
"299 556 OFFCURVE",
"299 590 CURVE SMOOTH",
"299 656 OFFCURVE",
"250 712 OFFCURVE",
"167 712 CURVE SMOOTH",
"100 712 OFFCURVE",
"51 673 OFFCURVE",
"27 614 CURVE",
"107 585 LINE",
"117 614 OFFCURVE",
"134 634 OFFCURVE",
"165 634 CURVE SMOOTH",
"196 634 OFFCURVE",
"213 613 OFFCURVE",
"213 586 CURVE SMOOTH",
"213 560 OFFCURVE",
"198 539 OFFCURVE",
"163 539 CURVE SMOOTH",
"133 539 LINE",
"133 461 LINE",
"164 461 LINE SMOOTH",
"209 461 OFFCURVE",
"228 435 OFFCURVE",
"228 407 CURVE SMOOTH",
"228 372 OFFCURVE",
"202 353 OFFCURVE",
"168 353 CURVE SMOOTH",
"137 353 OFFCURVE",
"105 373 OFFCURVE",
"94 420 CURVE",
"12 398 LINE",
"34 321 OFFCURVE",
"88 275 OFFCURVE",
"165 275 CURVE SMOOTH"
);
},
{
closed = 1;
nodes = (
"225 -12 LINE",
"703 712 LINE",
"608 712 LINE",
"130 -12 LINE"
);
},
{
closed = 1;
nodes = (
"729 0 LINE",
"729 86 LINE",
"783 86 LINE",
"783 163 LINE",
"729 163 LINE",
"729 423 LINE",
"652 423 LINE",
"437 139 LINE",
"437 86 LINE",
"649 86 LINE",
"649 0 LINE"
);
},
{
closed = 1;
nodes = (
"649 305 LINE",
"649 163 LINE",
"540 163 LINE"
);
}
);
};
layerId = "02CCC12B-AAA5-4DEC-99A9-D81829579BCD";
paths = (
{
closed = 1;
nodes = (
"225 -12 LINE",
"703 712 LINE",
"608 712 LINE",
"130 -12 LINE"
);
},
{
closed = 1;
nodes = (
"253 275 OFFCURVE",
"314 326 OFFCURVE",
"314 406 CURVE SMOOTH",
"314 447 OFFCURVE",
"290 485 OFFCURVE",
"250 503 CURVE",
"279 522 OFFCURVE",
"299 556 OFFCURVE",
"299 590 CURVE SMOOTH",
"299 656 OFFCURVE",
"250 712 OFFCURVE",
"167 712 CURVE SMOOTH",
"100 712 OFFCURVE",
"51 673 OFFCURVE",
"27 614 CURVE",
"107 585 LINE",
"117 614 OFFCURVE",
"134 634 OFFCURVE",
"165 634 CURVE SMOOTH",
"196 634 OFFCURVE",
"213 613 OFFCURVE",
"213 586 CURVE SMOOTH",
"213 560 OFFCURVE",
"198 539 OFFCURVE",
"163 539 CURVE SMOOTH",
"133 539 LINE",
"133 461 LINE",
"164 461 LINE SMOOTH",
"209 461 OFFCURVE",
"228 435 OFFCURVE",
"228 407 CURVE SMOOTH",
"228 372 OFFCURVE",
"202 353 OFFCURVE",
"168 353 CURVE SMOOTH",
"137 353 OFFCURVE",
"105 373 OFFCURVE",
"94 420 CURVE",
"12 398 LINE",
"34 321 OFFCURVE",
"88 275 OFFCURVE",
"165 275 CURVE SMOOTH"
);
},
{
closed = 1;
nodes = (
"729 0 LINE",
"729 86 LINE",
"783 86 LINE",
"783 163 LINE",
"729 163 LINE",
"729 423 LINE",
"652 423 LINE",
"437 139 LINE",
"437 86 LINE",
"649 86 LINE",
"649 0 LINE"
);
},
{
closed = 1;
nodes = (
"540 163 LINE",
"649 305 LINE",
"649 163 LINE"
);
}
);
width = 806;
},
{
background = {
paths = (
{
closed = 1;
nodes = (
"270 271 OFFCURVE",
"329 320 OFFCURVE",
"329 403 CURVE SMOOTH",
"329 456 OFFCURVE",
"298 493 OFFCURVE",
"255 507 CURVE",
"291 523 OFFCURVE",
"312 563 OFFCURVE",
"312 599 CURVE SMOOTH",
"312 670 OFFCURVE",
"258 712 OFFCURVE",
"184 712 CURVE SMOOTH",
"118 712 OFFCURVE",
"64 670 OFFCURVE",
"42 616 CURVE",
"95 598 LINE",
"111 634 OFFCURVE",
"142 662 OFFCURVE",
"180 662 CURVE SMOOTH",
"226 662 OFFCURVE",
"248 628 OFFCURVE",
"248 593 CURVE SMOOTH",
"248 557 OFFCURVE",
"230 523 OFFCURVE",
"183 523 CURVE SMOOTH",
"161 523 LINE",
"161 473 LINE",
"195 473 LINE SMOOTH",
"239 473 OFFCURVE",
"265 433 OFFCURVE",
"265 395 CURVE SMOOTH",
"265 352 OFFCURVE",
"237 321 OFFCURVE",
"186 321 CURVE SMOOTH",
"141 321 OFFCURVE",
"109 349 OFFCURVE",
"89 397 CURVE",
"34 374 LINE",
"59 313 OFFCURVE",
"110 271 OFFCURVE",
"186 271 CURVE SMOOTH"
);
},
{
closed = 1;
nodes = (
"226 -12 LINE",
"704 712 LINE",
"635 712 LINE",
"157 -12 LINE"
);
},
{
closed = 1;
nodes = (
"726 0 LINE",
"726 108 LINE",
"778 108 LINE",
"778 163 LINE",
"726 163 LINE",
"726 423 LINE",
"679 423 LINE",
"455 138 LINE",
"455 108 LINE",
"665 108 LINE",
"665 0 LINE"
);
},
{
closed = 1;
nodes = (
"665 335 LINE",
"665 163 LINE",
"536 163 LINE"
);
}
);
};
layerId = "DE4AFDBE-F375-44ED-A5DB-4773839D6964";
paths = (
{
closed = 1;
nodes = (
"226 -12 LINE",
"704 712 LINE",
"635 712 LINE",
"157 -12 LINE"
);
},
{
closed = 1;
nodes = (
"270 271 OFFCURVE",
"329 320 OFFCURVE",
"329 403 CURVE SMOOTH",
"329 456 OFFCURVE",
"298 493 OFFCURVE",
"255 507 CURVE",
"291 523 OFFCURVE",
"312 563 OFFCURVE",
"312 599 CURVE SMOOTH",
"312 670 OFFCURVE",
"258 712 OFFCURVE",
"184 712 CURVE SMOOTH",
"118 712 OFFCURVE",
"64 670 OFFCURVE",
"42 616 CURVE",
"95 598 LINE",
"111 634 OFFCURVE",
"142 662 OFFCURVE",
"180 662 CURVE SMOOTH",
"226 662 OFFCURVE",
"248 628 OFFCURVE",
"248 593 CURVE SMOOTH",
"248 557 OFFCURVE",
"230 523 OFFCURVE",
"183 523 CURVE SMOOTH",
"161 523 LINE",
"161 473 LINE",
"195 473 LINE SMOOTH",
"239 473 OFFCURVE",
"265 433 OFFCURVE",
"265 395 CURVE SMOOTH",
"265 352 OFFCURVE",
"237 321 OFFCURVE",
"186 321 CURVE SMOOTH",
"141 321 OFFCURVE",
"109 349 OFFCURVE",
"89 397 CURVE",
"34 374 LINE",
"59 313 OFFCURVE",
"110 271 OFFCURVE",
"186 271 CURVE SMOOTH"
);
},
{
closed = 1;
nodes = (
"726 0 LINE",
"726 108 LINE",
"778 108 LINE",
"778 163 LINE",
"726 163 LINE",
"726 423 LINE",
"679 423 LINE",
"455 138 LINE",
"455 108 LINE",
"665 108 LINE",
"665 0 LINE"
);
},
{
closed = 1;
nodes = (
"536 163 LINE",
"665 335 LINE",
"665 163 LINE"
);
}
);
width = 818;
},
{
background = {
paths = (
{
closed = 1;
nodes = (
"268 276 OFFCURVE",
"322 330 OFFCURVE",
"322 406 CURVE SMOOTH",
"322 454 OFFCURVE",
"296 487 OFFCURVE",
"255 502 CURVE",
"283 517 OFFCURVE",
"308 550 OFFCURVE",
"308 592 CURVE SMOOTH",
"308 655 OFFCURVE",
"258 712 OFFCURVE",
"174 712 CURVE SMOOTH",
"106 712 OFFCURVE",
"51 675 OFFCURVE",
"26 612 CURVE",
"118 578 LINE",
"127 601 OFFCURVE",
"140 614 OFFCURVE",
"165 614 CURVE SMOOTH",
"188 614 OFFCURVE",
"200 599 OFFCURVE",
"200 580 CURVE SMOOTH",
"200 561 OFFCURVE",
"190 546 OFFCURVE",
"159 546 CURVE SMOOTH",
"122 546 LINE",
"122 454 LINE",
"160 454 LINE SMOOTH",
"199 454 OFFCURVE",
"214 438 OFFCURVE",
"214 414 CURVE SMOOTH",
"214 391 OFFCURVE",
"198 374 OFFCURVE",
"171 374 CURVE SMOOTH",
"143 374 OFFCURVE",
"122 389 OFFCURVE",
"113 425 CURVE",
"12 399 LINE",
"36 322 OFFCURVE",
"91 276 OFFCURVE",
"170 276 CURVE SMOOTH"
);
},
{
closed = 1;
nodes = (
"256 -12 LINE",
"734 712 LINE",
"609 712 LINE",
"131 -12 LINE"
);
},
{
closed = 1;
nodes = (
"757 0 LINE",
"757 80 LINE",
"813 80 LINE",
"813 172 LINE",
"757 172 LINE",
"757 422 LINE",
"657 422 LINE",
"450 152 LINE",
"450 80 LINE",
"655 80 LINE",
"655 0 LINE"
);
},
{
closed = 1;
nodes = (
"655 288 LINE",
"655 172 LINE",
"567 172 LINE"
);
}
);
};
layerId = "1ED176E8-AB71-4F43-9CA1-B943ACA5B6F8";
paths = (
{
closed = 1;
nodes = (
"256 -12 LINE",
"734 712 LINE",
"609 712 LINE",
"131 -12 LINE"
);
},
{
closed = 1;
nodes = (
"268 276 OFFCURVE",
"322 330 OFFCURVE",
"322 406 CURVE SMOOTH",
"322 454 OFFCURVE",
"296 487 OFFCURVE",
"255 502 CURVE",
"283 517 OFFCURVE",
"308 550 OFFCURVE",
"308 592 CURVE SMOOTH",
"308 655 OFFCURVE",
"258 712 OFFCURVE",
"174 712 CURVE SMOOTH",
"106 712 OFFCURVE",
"51 675 OFFCURVE",
"26 612 CURVE",
"118 578 LINE",
"127 601 OFFCURVE",
"140 614 OFFCURVE",
"165 614 CURVE SMOOTH",
"188 614 OFFCURVE",
"200 599 OFFCURVE",
"200 580 CURVE SMOOTH",
"200 561 OFFCURVE",
"190 546 OFFCURVE",
"159 546 CURVE SMOOTH",
"122 546 LINE",
"122 454 LINE",
"160 454 LINE SMOOTH",
"199 454 OFFCURVE",
"214 438 OFFCURVE",
"214 414 CURVE SMOOTH",
"214 391 OFFCURVE",
"198 374 OFFCURVE",
"171 374 CURVE SMOOTH",
"143 374 OFFCURVE",
"122 389 OFFCURVE",
"113 425 CURVE",
"12 399 LINE",
"36 322 OFFCURVE",
"91 276 OFFCURVE",
"170 276 CURVE SMOOTH"
);
},
{
closed = 1;
nodes = (
"757 0 LINE",
"757 80 LINE",
"813 80 LINE",
"813 172 LINE",
"757 172 LINE",
"757 422 LINE",
"657 422 LINE",
"450 152 LINE",
"450 80 LINE",
"655 80 LINE",
"655 0 LINE"
);
},
{
closed = 1;
nodes = (
"567 172 LINE",
"655 288 LINE",
"655 172 LINE"
);
}
);
width = 836;
},
{
background = {
paths = (
{
closed = 1;
nodes = (
"254 271 OFFCURVE",
"316 317 OFFCURVE",
"316 392 CURVE SMOOTH",
"316 451 OFFCURVE",
"284 491 OFFCURVE",
"236 502 CURVE",
"277 518 OFFCURVE",
"299 560 OFFCURVE",
"299 600 CURVE SMOOTH",
"299 671 OFFCURVE",
"250 712 OFFCURVE",
"182 712 CURVE SMOOTH",
"122 712 OFFCURVE",
"77 679 OFFCURVE",
"54 626 CURVE",
"88 612 LINE",
"107 650 OFFCURVE",
"135 676 OFFCURVE",
"182 676 CURVE SMOOTH",
"235 676 OFFCURVE",
"261 643 OFFCURVE",
"261 600 CURVE SMOOTH",
"261 557 OFFCURVE",
"230 517 OFFCURVE",
"180 517 CURVE SMOOTH",
"159 517 LINE",
"159 481 LINE",
"190 481 LINE SMOOTH",
"247 481 OFFCURVE",
"278 443 OFFCURVE",
"278 392 CURVE SMOOTH",
"278 338 OFFCURVE",
"237 307 OFFCURVE",
"180 307 CURVE SMOOTH",
"125 307 OFFCURVE",
"95 333 OFFCURVE",
"74 377 CURVE",
"39 364 LINE",
"64 308 OFFCURVE",
"108 271 OFFCURVE",
"180 271 CURVE SMOOTH"
);
},
{
closed = 1;
nodes = (
"211 -12 LINE",
"689 712 LINE",
"646 712 LINE",
"168 -12 LINE"
);
},
{
closed = 1;
nodes = (
"703 0 LINE",
"703 117 LINE",
"759 117 LINE",
"759 153 LINE",
"703 153 LINE",
"703 423 LINE",
"672 423 LINE",
"453 137 LINE",
"453 117 LINE",
"665 117 LINE",
"665 0 LINE"
);
},
{
closed = 1;
nodes = (
"665 360 LINE",
"665 153 LINE",
"506 153 LINE"
);
}
);
};
layerId = "3BB16070-9AE0-46D6-9B05-19A363C2D547";
paths = (
{
closed = 1;
nodes = (
"211 -12 LINE",
"689 712 LINE",
"646 712 LINE",
"168 -12 LINE"
);
},
{
closed = 1;
nodes = (
"254 271 OFFCURVE",
"316 317 OFFCURVE",
"316 392 CURVE SMOOTH",
"316 451 OFFCURVE",
"284 491 OFFCURVE",
"236 502 CURVE",
"277 518 OFFCURVE",
"299 560 OFFCURVE",
"299 600 CURVE SMOOTH",
"299 671 OFFCURVE",
"250 712 OFFCURVE",
"182 712 CURVE SMOOTH",
"122 712 OFFCURVE",
"77 679 OFFCURVE",
"54 626 CURVE",
"88 612 LINE",
"107 650 OFFCURVE",
"135 676 OFFCURVE",
"182 676 CURVE SMOOTH",
"235 676 OFFCURVE",
"261 643 OFFCURVE",
"261 600 CURVE SMOOTH",
"261 557 OFFCURVE",
"230 517 OFFCURVE",
"180 517 CURVE SMOOTH",
"159 517 LINE",
"159 481 LINE",
"190 481 LINE SMOOTH",
"247 481 OFFCURVE",
"278 443 OFFCURVE",
"278 392 CURVE SMOOTH",
"278 338 OFFCURVE",
"237 307 OFFCURVE",
"180 307 CURVE SMOOTH",
"125 307 OFFCURVE",
"95 333 OFFCURVE",
"74 377 CURVE",
"39 364 LINE",
"64 308 OFFCURVE",
"108 271 OFFCURVE",
"180 271 CURVE SMOOTH"
);
},
{
closed = 1;
nodes = (
"703 0 LINE",
"703 117 LINE",
"759 117 LINE",
"759 153 LINE",
"703 153 LINE",
"703 423 LINE",
"672 423 LINE",
"453 137 LINE",
"453 117 LINE",
"665 117 LINE",
"665 0 LINE"
);
},
{
closed = 1;
nodes = (
"506 153 LINE",
"665 360 LINE",
"665 153 LINE"
);
}
);
width = 814;
},
{
layerId = "1D708A55-1947-4475-A0A3-21124B6DD42B";
paths = (
{
closed = 1;
nodes = (
"279 -12 LINE",
"757 712 LINE",
"610 712 LINE",
"132 -12 LINE"
);
},
{
closed = 1;
nodes = (
"279 277 OFFCURVE",
"328 333 OFFCURVE",
"328 406 CURVE SMOOTH",
"328 459 OFFCURVE",
"301 489 OFFCURVE",
"259 501 CURVE",
"286 513 OFFCURVE",
"315 546 OFFCURVE",
"315 594 CURVE SMOOTH",
"315 654 OFFCURVE",
"264 712 OFFCURVE",
"179 712 CURVE SMOOTH",
"111 712 OFFCURVE",
"51 677 OFFCURVE",
"25 611 CURVE",
"126 573 LINE",
"135 591 OFFCURVE",
"145 599 OFFCURVE",
"165 599 CURVE SMOOTH",
"182 599 OFFCURVE",
"190 589 OFFCURVE",
"190 576 CURVE SMOOTH",
"190 562 OFFCURVE",
"184 551 OFFCURVE",
"156 551 CURVE SMOOTH",
"114 551 LINE",
"114 449 LINE",
"157 449 LINE SMOOTH",
"192 449 OFFCURVE",
"204 440 OFFCURVE",
"204 419 CURVE SMOOTH",
"204 405 OFFCURVE",
"195 390 OFFCURVE",
"173 390 CURVE SMOOTH",
"148 390 OFFCURVE",
"135 401 OFFCURVE",
"127 429 CURVE",
"12 400 LINE",
"38 323 OFFCURVE",
"93 277 OFFCURVE",
"174 277 CURVE SMOOTH"
);
},
{
closed = 1;
nodes = (
"778 0 LINE",
"778 76 LINE",
"836 76 LINE",
"836 179 LINE",
"778 179 LINE",
"778 421 LINE",
"661 421 LINE",
"460 162 LINE",
"460 76 LINE",
"660 76 LINE",
"660 0 LINE"
);
},
{
closed = 1;
nodes = (
"587 179 LINE",
"660 275 LINE",
"660 179 LINE"
);
}
);
width = 859;
}
);
note = threequarters;
unicode = 00BE;
},
{
glyphname = threesuperior;
lastChange = "2016-11-17 05:24:08 +0000";
layers = (
{
layerId = "02CCC12B-AAA5-4DEC-99A9-D81829579BCD";
paths = (
{
closed = 1;
nodes = (
"253 436 OFFCURVE",
"314 487 OFFCURVE",
"314 567 CURVE SMOOTH",
"314 608 OFFCURVE",
"290 646 OFFCURVE",
"250 664 CURVE",
"279 683 OFFCURVE",
"299 717 OFFCURVE",
"299 751 CURVE SMOOTH",
"299 817 OFFCURVE",
"250 873 OFFCURVE",
"167 873 CURVE SMOOTH",
"100 873 OFFCURVE",
"51 834 OFFCURVE",
"27 775 CURVE",
"107 746 LINE",
"117 775 OFFCURVE",
"134 795 OFFCURVE",
"165 795 CURVE SMOOTH",
"196 795 OFFCURVE",
"213 774 OFFCURVE",
"213 747 CURVE SMOOTH",
"213 721 OFFCURVE",
"198 700 OFFCURVE",
"163 700 CURVE SMOOTH",
"133 700 LINE",
"133 622 LINE",
"164 622 LINE SMOOTH",
"209 622 OFFCURVE",
"228 596 OFFCURVE",
"228 568 CURVE SMOOTH",
"228 533 OFFCURVE",
"202 514 OFFCURVE",
"168 514 CURVE SMOOTH",
"137 514 OFFCURVE",
"105 534 OFFCURVE",
"94 581 CURVE",
"12 559 LINE",
"34 482 OFFCURVE",
"88 436 OFFCURVE",
"165 436 CURVE SMOOTH"
);
}
);
width = 347;
},
{
layerId = "DE4AFDBE-F375-44ED-A5DB-4773839D6964";
paths = (
{
closed = 1;
nodes = (
"270 434 OFFCURVE",
"329 482 OFFCURVE",
"329 565 CURVE SMOOTH",
"329 618 OFFCURVE",
"298 654 OFFCURVE",
"255 668 CURVE",
"291 684 OFFCURVE",
"312 724 OFFCURVE",
"312 760 CURVE SMOOTH",
"312 831 OFFCURVE",
"258 873 OFFCURVE",
"184 873 CURVE SMOOTH",
"118 873 OFFCURVE",
"64 831 OFFCURVE",
"42 777 CURVE",
"95 759 LINE",
"111 795 OFFCURVE",
"142 823 OFFCURVE",
"180 823 CURVE SMOOTH",
"226 823 OFFCURVE",
"248 789 OFFCURVE",
"248 754 CURVE SMOOTH",
"248 718 OFFCURVE",
"230 684 OFFCURVE",
"183 684 CURVE SMOOTH",
"161 684 LINE",
"161 634 LINE",
"195 634 LINE SMOOTH",
"239 634 OFFCURVE",
"265 595 OFFCURVE",
"265 557 CURVE SMOOTH",
"265 514 OFFCURVE",
"237 484 OFFCURVE",
"186 484 CURVE SMOOTH",
"141 484 OFFCURVE",
"109 512 OFFCURVE",
"89 560 CURVE",
"34 537 LINE",
"59 476 OFFCURVE",
"110 434 OFFCURVE",
"186 434 CURVE SMOOTH"
);
}
);
width = 367;
},
{
layerId = "1ED176E8-AB71-4F43-9CA1-B943ACA5B6F8";
paths = (
{
closed = 1;
nodes = (
"268 437 OFFCURVE",
"322 492 OFFCURVE",
"322 567 CURVE SMOOTH",
"322 616 OFFCURVE",
"296 648 OFFCURVE",
"255 663 CURVE",
"284 679 OFFCURVE",
"308 712 OFFCURVE",
"308 753 CURVE SMOOTH",
"308 817 OFFCURVE",
"258 873 OFFCURVE",
"174 873 CURVE SMOOTH",
"106 873 OFFCURVE",
"51 836 OFFCURVE",
"26 773 CURVE",
"118 739 LINE",
"127 762 OFFCURVE",
"140 775 OFFCURVE",
"165 775 CURVE SMOOTH",
"188 775 OFFCURVE",
"200 760 OFFCURVE",
"200 741 CURVE SMOOTH",
"200 724 OFFCURVE",
"190 707 OFFCURVE",
"159 707 CURVE SMOOTH",
"122 707 LINE",
"122 615 LINE",
"160 615 LINE SMOOTH",
"199 615 OFFCURVE",
"214 599 OFFCURVE",
"214 575 CURVE SMOOTH",
"214 552 OFFCURVE",
"198 535 OFFCURVE",
"171 535 CURVE SMOOTH",
"143 535 OFFCURVE",
"122 551 OFFCURVE",
"113 586 CURVE",
"12 560 LINE",
"36 483 OFFCURVE",
"91 437 OFFCURVE",
"170 437 CURVE SMOOTH"
);
}
);
width = 355;
},
{
layerId = "3BB16070-9AE0-46D6-9B05-19A363C2D547";
paths = (
{
closed = 1;
nodes = (
"252 433 OFFCURVE",
"314 479 OFFCURVE",
"314 554 CURVE SMOOTH",
"314 613 OFFCURVE",
"282 653 OFFCURVE",
"234 664 CURVE",
"275 680 OFFCURVE",
"297 722 OFFCURVE",
"297 762 CURVE SMOOTH",
"297 833 OFFCURVE",
"248 874 OFFCURVE",
"180 874 CURVE SMOOTH",
"120 874 OFFCURVE",
"75 841 OFFCURVE",
"52 788 CURVE",
"86 774 LINE",
"105 812 OFFCURVE",
"133 838 OFFCURVE",
"180 838 CURVE SMOOTH",
"233 838 OFFCURVE",
"259 805 OFFCURVE",
"259 762 CURVE SMOOTH",
"259 719 OFFCURVE",
"228 679 OFFCURVE",
"178 679 CURVE SMOOTH",
"157 679 LINE",
"157 643 LINE",
"188 643 LINE SMOOTH",
"245 643 OFFCURVE",
"276 605 OFFCURVE",
"276 554 CURVE SMOOTH",
"276 500 OFFCURVE",
"235 469 OFFCURVE",
"178 469 CURVE SMOOTH",
"123 469 OFFCURVE",
"93 495 OFFCURVE",
"72 539 CURVE",
"37 526 LINE",
"62 470 OFFCURVE",
"106 433 OFFCURVE",
"178 433 CURVE SMOOTH"
);
}
);
width = 363;
},
{
associatedMasterId = "1ED176E8-AB71-4F43-9CA1-B943ACA5B6F8";
layerId = "7095897E-0B42-4B89-A6EB-A3E57BA087AD";
name = "Bold [701]";
paths = (
{
closed = 1;
nodes = (
"268 437 OFFCURVE",
"322 491 OFFCURVE",
"322 567 CURVE SMOOTH",
"322 615 OFFCURVE",
"296 648 OFFCURVE",
"255 663 CURVE",
"284 679 OFFCURVE",
"308 712 OFFCURVE",
"308 753 CURVE SMOOTH",
"308 817 OFFCURVE",
"258 873 OFFCURVE",
"174 873 CURVE SMOOTH",
"106 873 OFFCURVE",
"51 836 OFFCURVE",
"26 773 CURVE",
"118 739 LINE",
"127 762 OFFCURVE",
"140 775 OFFCURVE",
"165 775 CURVE SMOOTH",
"188 775 OFFCURVE",
"200 760 OFFCURVE",
"200 741 CURVE SMOOTH",
"200 722 OFFCURVE",
"190 703 OFFCURVE",
"159 703 CURVE SMOOTH",
"127 703 LINE",
"127 619 LINE",
"160 619 LINE SMOOTH",
"199 619 OFFCURVE",
"214 599 OFFCURVE",
"214 575 CURVE SMOOTH",
"214 552 OFFCURVE",
"198 535 OFFCURVE",
"171 535 CURVE SMOOTH",
"143 535 OFFCURVE",
"122 551 OFFCURVE",
"113 586 CURVE",
"12 560 LINE",
"36 483 OFFCURVE",
"91 437 OFFCURVE",
"170 437 CURVE SMOOTH"
);
}
);
width = 355;
},
{
layerId = "1D708A55-1947-4475-A0A3-21124B6DD42B";
paths = (
{
closed = 1;
nodes = (
"279 438 OFFCURVE",
"328 494 OFFCURVE",
"328 567 CURVE SMOOTH",
"328 620 OFFCURVE",
"301 650 OFFCURVE",
"259 662 CURVE",
"288 676 OFFCURVE",
"315 708 OFFCURVE",
"315 755 CURVE SMOOTH",
"315 817 OFFCURVE",
"264 873 OFFCURVE",
"179 873 CURVE SMOOTH",
"111 873 OFFCURVE",
"51 838 OFFCURVE",
"25 772 CURVE",
"126 734 LINE",
"135 752 OFFCURVE",
"145 760 OFFCURVE",
"165 760 CURVE SMOOTH",
"182 760 OFFCURVE",
"190 750 OFFCURVE",
"190 737 CURVE SMOOTH",
"190 723 OFFCURVE",
"184 705 OFFCURVE",
"156 705 CURVE SMOOTH",
"123 705 LINE",
"123 617 LINE",
"157 617 LINE SMOOTH",
"192 617 OFFCURVE",
"204 601 OFFCURVE",
"204 580 CURVE SMOOTH",
"204 566 OFFCURVE",
"195 551 OFFCURVE",
"173 551 CURVE SMOOTH",
"148 551 OFFCURVE",
"135 564 OFFCURVE",
"127 590 CURVE",
"12 561 LINE",
"38 484 OFFCURVE",
"93 438 OFFCURVE",
"174 438 CURVE SMOOTH"
);
}
);
width = 361;
}
);
note = threesuperior;
unicode = 00B3;
},
{
glyphname = twosuperior;
lastChange = "2016-11-17 05:24:08 +0000";
layers = (
{
layerId = "02CCC12B-AAA5-4DEC-99A9-D81829579BCD";
paths = (
{
closed = 1;
nodes = (
"318 444 LINE",
"318 522 LINE",
"122 522 LINE",
"136 554 OFFCURVE",
"159 585 OFFCURVE",
"205 609 CURVE SMOOTH",
"269 642 OFFCURVE",
"319 670 OFFCURVE",
"319 744 CURVE SMOOTH",
"319 819 OFFCURVE",
"264 873 OFFCURVE",
"175 873 CURVE SMOOTH",
"99 873 OFFCURVE",
"38 820 OFFCURVE",
"24 749 CURVE",
"105 730 LINE",
"113 771 OFFCURVE",
"137 795 OFFCURVE",
"175 795 CURVE SMOOTH",
"212 795 OFFCURVE",
"232 772 OFFCURVE",
"232 746 CURVE SMOOTH",
"232 713 OFFCURVE",
"204 698 OFFCURVE",
"172 681 CURVE SMOOTH",
"93 640 OFFCURVE",
"25 564 OFFCURVE",
"25 444 CURVE"
);
}
);
width = 357;
},
{
layerId = "DE4AFDBE-F375-44ED-A5DB-4773839D6964";
paths = (
{
closed = 1;
nodes = (
"316 444 LINE",
"316 497 LINE",
"105 497 LINE",
"119 533 OFFCURVE",
"148 558 OFFCURVE",
"200 590 CURVE SMOOTH",
"279 638 OFFCURVE",
"317 677 OFFCURVE",
"317 749 CURVE SMOOTH",
"317 826 OFFCURVE",
"260 873 OFFCURVE",
"184 873 CURVE SMOOTH",
"103 873 OFFCURVE",
"55 830 OFFCURVE",
"41 773 CURVE",
"92 752 LINE",
"102 799 OFFCURVE",
"129 822 OFFCURVE",
"176 822 CURVE SMOOTH",
"234 822 OFFCURVE",
"255 782 OFFCURVE",
"255 754 CURVE SMOOTH",
"255 702 OFFCURVE",
"229 676 OFFCURVE",
"187 648 CURVE SMOOTH",
"100 589 OFFCURVE",
"40 551 OFFCURVE",
"40 444 CURVE"
);
}
);
width = 370;
},
{
background = {
paths = (
{
closed = 1;
nodes = (
"331 444 LINE",
"331 546 LINE",
"154 546 LINE",
"165 567 OFFCURVE",
"189 586 OFFCURVE",
"222 605 CURVE SMOOTH",
"282 639 OFFCURVE",
"332 664 OFFCURVE",
"332 743 CURVE SMOOTH",
"332 820 OFFCURVE",
"273 873 OFFCURVE",
"185 873 CURVE SMOOTH",
"104 873 OFFCURVE",
"46 822 OFFCURVE",
"25 748 CURVE",
"124 724 LINE",
"133 756 OFFCURVE",
"149 773 OFFCURVE",
"180 773 CURVE SMOOTH",
"205 773 OFFCURVE",
"218 758 OFFCURVE",
"218 739 CURVE SMOOTH",
"218 716 OFFCURVE",
"195 704 OFFCURVE",
"171 691 CURVE SMOOTH",
"87 648 OFFCURVE",
"24 574 OFFCURVE",
"24 444 CURVE"
);
}
);
};
layerId = "1ED176E8-AB71-4F43-9CA1-B943ACA5B6F8";
paths = (
{
closed = 1;
nodes = (
"331 444 LINE",
"331 546 LINE",
"154 546 LINE",
"166 569 OFFCURVE",
"199 590 OFFCURVE",
"238 614 CURVE SMOOTH",
"291 646 OFFCURVE",
"332 671 OFFCURVE",
"332 743 CURVE SMOOTH",
"332 820 OFFCURVE",
"273 873 OFFCURVE",
"185 873 CURVE SMOOTH",
"104 873 OFFCURVE",
"46 822 OFFCURVE",
"25 748 CURVE",
"124 724 LINE",
"133 756 OFFCURVE",
"149 773 OFFCURVE",
"180 773 CURVE SMOOTH",
"205 773 OFFCURVE",
"218 758 OFFCURVE",
"218 739 CURVE SMOOTH",
"218 716 OFFCURVE",
"195 704 OFFCURVE",
"171 691 CURVE SMOOTH",
"87 648 OFFCURVE",
"24 574 OFFCURVE",
"24 444 CURVE"
);
}
);
width = 370;
},
{
layerId = "3BB16070-9AE0-46D6-9B05-19A363C2D547";
paths = (
{
closed = 1;
nodes = (
"301 444 LINE",
"301 485 LINE",
"90 485 LINE",
"101 529 OFFCURVE",
"130 562 OFFCURVE",
"197 601 CURVE SMOOTH",
"267 642 OFFCURVE",
"303 679 OFFCURVE",
"303 752 CURVE SMOOTH",
"303 827 OFFCURVE",
"251 873 OFFCURVE",
"177 873 CURVE SMOOTH",
"107 873 OFFCURVE",
"61 828 OFFCURVE",
"47 775 CURVE",
"80 762 LINE",
"93 806 OFFCURVE",
"120 837 OFFCURVE",
"177 837 CURVE SMOOTH",
"239 837 OFFCURVE",
"265 791 OFFCURVE",
"265 752 CURVE SMOOTH",
"265 696 OFFCURVE",
"236 668 OFFCURVE",
"180 634 CURVE SMOOTH",
"111 591 OFFCURVE",
"48 544 OFFCURVE",
"47 444 CURVE"
);
}
);
width = 366;
},
{
layerId = "1D708A55-1947-4475-A0A3-21124B6DD42B";
paths = (
{
closed = 1;
nodes = (
"341 444 LINE",
"341 564 LINE",
"178 564 LINE",
"189 580 OFFCURVE",
"229 594 OFFCURVE",
"263 618 CURVE SMOOTH",
"308 649 OFFCURVE",
"342 672 OFFCURVE",
"342 742 CURVE SMOOTH",
"342 821 OFFCURVE",
"280 873 OFFCURVE",
"193 873 CURVE SMOOTH",
"108 873 OFFCURVE",
"52 824 OFFCURVE",
"26 747 CURVE",
"138 720 LINE",
"148 745 OFFCURVE",
"158 757 OFFCURVE",
"184 757 CURVE SMOOTH",
"200 757 OFFCURVE",
"208 748 OFFCURVE",
"208 734 CURVE SMOOTH",
"208 718 OFFCURVE",
"188 709 OFFCURVE",
"170 699 CURVE SMOOTH",
"83 654 OFFCURVE",
"23 582 OFFCURVE",
"23 444 CURVE"
);
}
);
width = 380;
}
);
note = twosuperior;
unicode = 00B2;
},
{
glyphname = brokenbar;
lastChange = "2016-12-02 21:54:48 +0000";
layers = (
{
background = {
paths = (
{
closed = 1;
nodes = (
"189 380 LINE",
"189 720 LINE",
"85 720 LINE",
"85 380 LINE"
);
},
{
closed = 1;
nodes = (
"189 -120 LINE",
"189 220 LINE",
"85 220 LINE",
"85 -120 LINE"
);
}
);
};
layerId = "02CCC12B-AAA5-4DEC-99A9-D81829579BCD";
paths = (
{
closed = 1;
nodes = (
"189 366 LINE",
"189 825 LINE",
"85 825 LINE",
"85 366 LINE"
);
},
{
closed = 1;
nodes = (
"189 -225 LINE",
"189 234 LINE",
"85 234 LINE",
"85 -225 LINE"
);
}
);
width = 274;
},
{
background = {
paths = (
{
closed = 1;
nodes = (
"170 393 LINE",
"170 720 LINE",
"100 720 LINE",
"100 393 LINE"
);
},
{
closed = 1;
nodes = (
"170 -120 LINE",
"170 205 LINE",
"100 205 LINE",
"100 -120 LINE"
);
}
);
};
layerId = "DE4AFDBE-F375-44ED-A5DB-4773839D6964";
paths = (
{
closed = 1;
nodes = (
"170 366 LINE",
"170 825 LINE",
"100 825 LINE",
"100 366 LINE"
);
},
{
closed = 1;
nodes = (
"170 -225 LINE",
"170 234 LINE",
"100 234 LINE",
"100 -225 LINE"
);
}
);
width = 270;
},
{
background = {
paths = (
{
closed = 1;
nodes = (
"215 369 LINE",
"215 720 LINE",
"85 720 LINE",
"85 369 LINE"
);
},
{
closed = 1;
nodes = (
"215 -120 LINE",
"215 231 LINE",
"85 231 LINE",
"85 -120 LINE"
);
}
);
};
layerId = "1ED176E8-AB71-4F43-9CA1-B943ACA5B6F8";
paths = (
{
closed = 1;
nodes = (
"215 366 LINE",
"215 825 LINE",
"85 825 LINE",
"85 366 LINE"
);
},
{
closed = 1;
nodes = (
"215 -225 LINE",
"215 234 LINE",
"85 234 LINE",
"85 -225 LINE"
);
}
);
width = 300;
},
{
background = {
paths = (
{
closed = 1;
nodes = (
"151 393 LINE",
"151 720 LINE",
"115 720 LINE",
"115 393 LINE"
);
},
{
closed = 1;
nodes = (
"151 -120 LINE",
"151 205 LINE",
"115 205 LINE",
"115 -120 LINE"
);
}
);
};
layerId = "3BB16070-9AE0-46D6-9B05-19A363C2D547";
paths = (
{
closed = 1;
nodes = (
"151 366 LINE",
"151 825 LINE",
"115 825 LINE",
"115 366 LINE"
);
},
{
closed = 1;
nodes = (
"151 -225 LINE",
"151 234 LINE",
"115 234 LINE",
"115 -225 LINE"
);
}
);
width = 266;
},
{
layerId = "1D708A55-1947-4475-A0A3-21124B6DD42B";
paths = (
{
closed = 1;
nodes = (
"235 366 LINE",
"235 825 LINE",
"85 825 LINE",
"85 366 LINE"
);
},
{
closed = 1;
nodes = (
"235 -225 LINE",
"235 234 LINE",
"85 234 LINE",
"85 -225 LINE"
);
}
);
width = 320;
},
{
associatedMasterId = "1D708A55-1947-4475-A0A3-21124B6DD42B";
layerId = "C747CCB9-3E76-49F9-9826-CD8138831C93";
name = "Heavy Nov 20 16, 19:31";
paths = (
{
closed = 1;
nodes = (
"235 361 LINE",
"235 720 LINE",
"85 720 LINE",
"85 361 LINE"
);
},
{
closed = 1;
nodes = (
"235 -120 LINE",
"235 239 LINE",
"85 239 LINE",
"85 -120 LINE"
);
}
);
width = 320;
},
{
associatedMasterId = "1ED176E8-AB71-4F43-9CA1-B943ACA5B6F8";
layerId = "632748FF-19C5-47A0-AA17-E89E41633396";
name = "Bold Nov 20 16, 19:32";
paths = (
{
closed = 1;
nodes = (
"215 369 LINE",
"215 720 LINE",
"85 720 LINE",
"85 369 LINE"
);
},
{
closed = 1;
nodes = (
"215 -120 LINE",
"215 231 LINE",
"85 231 LINE",
"85 -120 LINE"
);
}
);
width = 300;
},
{
associatedMasterId = "02CCC12B-AAA5-4DEC-99A9-D81829579BCD";
layerId = "E7814BF4-05BC-46B8-9257-14E0B9D184F0";
name = "Regular Nov 20 16, 19:33";
paths = (
{
closed = 1;
nodes = (
"189 380 LINE",
"189 720 LINE",
"85 720 LINE",
"85 380 LINE"
);
},
{
closed = 1;
nodes = (
"189 -120 LINE",
"189 220 LINE",
"85 220 LINE",
"85 -120 LINE"
);
}
);
width = 274;
},
{
associatedMasterId = "DE4AFDBE-F375-44ED-A5DB-4773839D6964";
layerId = "516896E1-90B2-4324-9365-4D673E717940";
name = "Light Nov 20 16, 19:33";
paths = (
{
closed = 1;
nodes = (
"170 393 LINE",
"170 720 LINE",
"100 720 LINE",
"100 393 LINE"
);
},
{
closed = 1;
nodes = (
"170 -120 LINE",
"170 205 LINE",
"100 205 LINE",
"100 -120 LINE"
);
}
);
width = 270;
},
{
associatedMasterId = "3BB16070-9AE0-46D6-9B05-19A363C2D547";
layerId = "247C0277-8345-41A9-8358-2DF87061483E";
name = "Thin Nov 20 16, 19:35";
paths = (
{
closed = 1;
nodes = (
"151 393 LINE",
"151 720 LINE",
"115 720 LINE",
"115 393 LINE"
);
},
{
closed = 1;
nodes = (
"151 -120 LINE",
"151 205 LINE",
"115 205 LINE",
"115 -120 LINE"
);
}
);
width = 266;
}
);
note = brokenbar;
unicode = 00A6;
},
{
glyphname = minus;
lastChange = "2016-11-17 05:24:08 +0000";
layers = (
{
layerId = "02CCC12B-AAA5-4DEC-99A9-D81829579BCD";
paths = (
{
closed = 1;
nodes = (
"550 293 LINE",
"550 393 LINE",
"80 393 LINE",
"80 293 LINE"
);
}
);
width = 630;
},
{
layerId = "DE4AFDBE-F375-44ED-A5DB-4773839D6964";
paths = (
{
closed = 1;
nodes = (
"565 308 LINE",
"565 376 LINE",
"95 376 LINE",
"95 308 LINE"
);
}
);
width = 660;
},
{
layerId = "1ED176E8-AB71-4F43-9CA1-B943ACA5B6F8";
paths = (
{
closed = 1;
nodes = (
"550 280 LINE",
"550 406 LINE",
"80 406 LINE",
"80 280 LINE"
);
}
);
width = 630;
},
{
layerId = "3BB16070-9AE0-46D6-9B05-19A363C2D547";
paths = (
{
closed = 1;
nodes = (
"563 324 LINE",
"563 360 LINE",
"93 360 LINE",
"93 324 LINE"
);
}
);
width = 656;
},
{
layerId = "1D708A55-1947-4475-A0A3-21124B6DD42B";
paths = (
{
closed = 1;
nodes = (
"550 270 LINE",
"550 416 LINE",
"80 416 LINE",
"80 270 LINE"
);
}
);
width = 630;
}
);
note = minus;
unicode = 2212;
},
{
glyphname = multiply;
lastChange = "2016-11-17 05:24:08 +0000";
layers = (
{
layerId = "02CCC12B-AAA5-4DEC-99A9-D81829579BCD";
paths = (
{
closed = 1;
nodes = (
"474 112 LINE",
"546 184 LINE",
"388 342 LINE",
"547 500 LINE",
"472 575 LINE",
"314 416 LINE",
"156 574 LINE",
"84 502 LINE",
"242 344 LINE",
"83 186 LINE",
"158 111 LINE",
"316 270 LINE"
);
}
);
width = 630;
},
{
layerId = "DE4AFDBE-F375-44ED-A5DB-4773839D6964";
paths = (
{
closed = 1;
nodes = (
"502 122 LINE",
"549 169 LINE",
"378 342 LINE",
"550 512 LINE",
"500 563 LINE",
"329 391 LINE",
"158 562 LINE",
"109 514 LINE",
"282 344 LINE",
"108 171 LINE",
"160 121 LINE",
"331 293 LINE"
);
}
);
width = 660;
},
{
layerId = "1ED176E8-AB71-4F43-9CA1-B943ACA5B6F8";
paths = (
{
closed = 1;
nodes = (
"463 103 LINE",
"555 195 LINE",
"407 342 LINE",
"556 490 LINE",
"461 584 LINE",
"314 436 LINE",
"166 583 LINE",
"75 492 LINE",
"222 344 LINE",
"74 197 LINE",
"168 102 LINE",
"316 251 LINE"
);
}
);
width = 630;
},
{
layerId = "3BB16070-9AE0-46D6-9B05-19A363C2D547";
paths = (
{
closed = 1;
nodes = (
"517 127 LINE",
"542 151 LINE",
"352 341 LINE",
"542 531 LINE",
"517 555 LINE",
"328 366 LINE",
"139 555 LINE",
"114 531 LINE",
"304 341 LINE",
"114 151 LINE",
"139 127 LINE",
"328 316 LINE"
);
}
);
width = 656;
},
{
layerId = "1D708A55-1947-4475-A0A3-21124B6DD42B";
paths = (
{
closed = 1;
nodes = (
"455 96 LINE",
"562 203 LINE",
"421 342 LINE",
"563 483 LINE",
"453 591 LINE",
"314 451 LINE",
"174 590 LINE",
"68 485 LINE",
"207 344 LINE",
"67 205 LINE",
"176 95 LINE",
"316 237 LINE"
);
}
);
width = 630;
}
);
note = multiply;
unicode = 00D7;
},
{
glyphname = exclam;
lastChange = "2016-11-17 05:24:08 +0000";
layers = (
{
layerId = "02CCC12B-AAA5-4DEC-99A9-D81829579BCD";
paths = (
{
closed = 1;
nodes = (
"161 193 LINE",
"190 490 LINE",
"190 712 LINE",
"86 712 LINE",
"86 490 LINE",
"115 193 LINE"
);
},
{
closed = 1;
nodes = (
"180 -12 OFFCURVE",
"214 21 OFFCURVE",
"214 61 CURVE SMOOTH",
"214 101 OFFCURVE",
"180 135 OFFCURVE",
"138 135 CURVE SMOOTH",
"95 135 OFFCURVE",
"63 101 OFFCURVE",
"63 61 CURVE SMOOTH",
"63 21 OFFCURVE",
"95 -12 OFFCURVE",
"138 -12 CURVE SMOOTH"
);
}
);
width = 276;
},
{
layerId = "DE4AFDBE-F375-44ED-A5DB-4773839D6964";
paths = (
{
closed = 1;
nodes = (
"142 193 LINE",
"173 495 LINE",
"173 712 LINE",
"101 712 LINE",
"101 495 LINE",
"131 193 LINE"
);
},
{
closed = 1;
nodes = (
"171 -14 OFFCURVE",
"198 17 OFFCURVE",
"198 49 CURVE SMOOTH",
"198 81 OFFCURVE",
"171 112 OFFCURVE",
"135 112 CURVE SMOOTH",
"99 112 OFFCURVE",
"72 81 OFFCURVE",
"72 49 CURVE SMOOTH",
"72 17 OFFCURVE",
"99 -14 OFFCURVE",
"135 -14 CURVE SMOOTH"
);
}
);
width = 270;
},
{
layerId = "1ED176E8-AB71-4F43-9CA1-B943ACA5B6F8";
paths = (
{
closed = 1;
nodes = (
"186 193 LINE",
"214 486 LINE",
"214 712 LINE",
"84 712 LINE",
"84 486 LINE",
"112 193 LINE"
);
},
{
closed = 1;
nodes = (
"198 -12 OFFCURVE",
"237 26 OFFCURVE",
"237 73 CURVE SMOOTH",
"237 121 OFFCURVE",
"198 159 OFFCURVE",
"149 159 CURVE SMOOTH",
"99 159 OFFCURVE",
"63 121 OFFCURVE",
"63 73 CURVE SMOOTH",
"63 26 OFFCURVE",
"99 -12 OFFCURVE",
"149 -12 CURVE SMOOTH"
);
}
);
width = 300;
},
{
layerId = "3BB16070-9AE0-46D6-9B05-19A363C2D547";
paths = (
{
closed = 1;
nodes = (
"138 193 LINE",
"152 460 LINE",
"152 712 LINE",
"114 712 LINE",
"114 460 LINE",
"128 193 LINE"
);
},
{
closed = 1;
nodes = (
"150 -14 OFFCURVE",
"162 -1 OFFCURVE",
"162 15 CURVE SMOOTH",
"162 32 OFFCURVE",
"150 46 OFFCURVE",
"133 46 CURVE SMOOTH",
"117 46 OFFCURVE",
"104 32 OFFCURVE",
"104 15 CURVE SMOOTH",
"104 -1 OFFCURVE",
"117 -14 OFFCURVE",
"133 -14 CURVE SMOOTH"
);
}
);
width = 266;
},
{
layerId = "1D708A55-1947-4475-A0A3-21124B6DD42B";
paths = (
{
closed = 1;
nodes = (
"205 193 LINE",
"232 483 LINE",
"232 712 LINE",
"83 712 LINE",
"83 483 LINE",
"110 193 LINE"
);
},
{
closed = 1;
nodes = (
"212 -12 OFFCURVE",
"254 30 OFFCURVE",
"254 82 CURVE SMOOTH",
"254 136 OFFCURVE",
"212 177 OFFCURVE",
"157 177 CURVE SMOOTH",
"102 177 OFFCURVE",
"63 136 OFFCURVE",
"63 82 CURVE SMOOTH",
"63 30 OFFCURVE",
"102 -12 OFFCURVE",
"157 -12 CURVE SMOOTH"
);
}
);
width = 318;
}
);
note = exclam;
unicode = 0021;
},
{
glyphname = quotedbl;
lastChange = "2016-11-17 05:24:08 +0000";
layers = (
{
layerId = "02CCC12B-AAA5-4DEC-99A9-D81829579BCD";
paths = (
{
closed = 1;
nodes = (
"66 420 LINE",
"154 420 LINE",
"175 700 LINE",
"45 700 LINE"
);
},
{
closed = 1;
nodes = (
"266 420 LINE",
"354 420 LINE",
"375 700 LINE",
"245 700 LINE"
);
}
);
width = 420;
},
{
layerId = "DE4AFDBE-F375-44ED-A5DB-4773839D6964";
paths = (
{
closed = 1;
nodes = (
"76 433 LINE",
"129 433 LINE",
"147 700 LINE",
"60 700 LINE"
);
},
{
closed = 1;
nodes = (
"254 433 LINE",
"307 433 LINE",
"325 700 LINE",
"237 700 LINE"
);
}
);
width = 385;
},
{
layerId = "1ED176E8-AB71-4F43-9CA1-B943ACA5B6F8";
paths = (
{
closed = 1;
nodes = (
"69 409 LINE",
"177 409 LINE",
"201 700 LINE",
"45 700 LINE"
);
},
{
closed = 1;
nodes = (
"271 409 LINE",
"379 409 LINE",
"403 700 LINE",
"247 700 LINE"
);
}
);
width = 448;
},
{
layerId = "3BB16070-9AE0-46D6-9B05-19A363C2D547";
paths = (
{
closed = 1;
nodes = (
"78 433 LINE",
"116 433 LINE",
"116 700 LINE",
"78 700 LINE"
);
},
{
closed = 1;
nodes = (
"246 433 LINE",
"284 433 LINE",
"284 700 LINE",
"246 700 LINE"
);
}
);
width = 362;
},
{
layerId = "1D708A55-1947-4475-A0A3-21124B6DD42B";
paths = (
{
closed = 1;
nodes = (
"71 401 LINE",
"194 401 LINE",
"221 700 LINE",
"45 700 LINE"
);
},
{
closed = 1;
nodes = (
"275 401 LINE",
"398 401 LINE",
"424 700 LINE",
"249 700 LINE"
);
}
);
width = 469;
}
);
leftKerningGroup = quotedbl;
note = quotedbl;
rightKerningGroup = quotedbl;
unicode = 0022;
},
{
glyphname = numbersign;
lastChange = "2016-11-17 05:24:08 +0000";
layers = (
{
layerId = "02CCC12B-AAA5-4DEC-99A9-D81829579BCD";
paths = (
{
closed = 1;
nodes = (
"216 0 LINE",
"245 189 LINE",
"384 189 LINE",
"355 0 LINE",
"444 0 LINE",
"473 189 LINE",
"587 189 LINE",
"600 275 LINE",
"486 275 LINE",
"511 440 LINE",
"625 440 LINE",
"638 526 LINE",
"524 526 LINE",
"551 700 LINE",
"462 700 LINE",
"435 526 LINE",
"296 526 LINE",
"323 700 LINE",
"234 700 LINE",
"207 526 LINE",
"93 526 LINE",
"80 440 LINE",
"194 440 LINE",
"169 275 LINE",
"55 275 LINE",
"42 189 LINE",
"156 189 LINE",
"127 0 LINE"
);
},
{
closed = 1;
nodes = (
"283 440 LINE",
"422 440 LINE",
"397 275 LINE",
"258 275 LINE"
);
}
);
width = 680;
},
{
layerId = "DE4AFDBE-F375-44ED-A5DB-4773839D6964";
paths = (
{
closed = 1;
nodes = (
"217 0 LINE",
"248 204 LINE",
"390 204 LINE",
"359 0 LINE",
"427 0 LINE",
"458 204 LINE",
"574 204 LINE",
"584 267 LINE",
"467 267 LINE",
"495 445 LINE",
"618 445 LINE",
"628 506 LINE",
"504 506 LINE",
"534 700 LINE",
"466 700 LINE",
"436 506 LINE",
"294 506 LINE",
"323 700 LINE",
"255 700 LINE",
"225 506 LINE",
"111 506 LINE",
"101 445 LINE",
"216 445 LINE",
"189 267 LINE",
"69 267 LINE",
"57 204 LINE",
"180 204 LINE",
"149 0 LINE"
);
},
{
closed = 1;
nodes = (
"285 445 LINE",
"427 445 LINE",
"399 267 LINE",
"257 267 LINE"
);
}
);
width = 685;
},
{
layerId = "1ED176E8-AB71-4F43-9CA1-B943ACA5B6F8";
paths = (
{
closed = 1;
nodes = (
"235 0 LINE",
"262 176 LINE",
"383 176 LINE",
"356 0 LINE",
"470 0 LINE",
"497 176 LINE",
"603 176 LINE",
"620 288 LINE",
"514 288 LINE",
"535 429 LINE",
"642 429 LINE",
"658 541 LINE",
"552 541 LINE",
"576 700 LINE",
"463 700 LINE",
"438 541 LINE",
"317 541 LINE",
"341 700 LINE",
"227 700 LINE",
"204 541 LINE",
"96 541 LINE",
"80 429 LINE",
"186 429 LINE",
"165 288 LINE",
"58 288 LINE",
"42 176 LINE",
"148 176 LINE",
"121 0 LINE"
);
},
{
closed = 1;
nodes = (
"300 429 LINE",
"421 429 LINE",
"400 288 LINE",
"279 288 LINE"
);
}
);
width = 700;
},
{
layerId = "3BB16070-9AE0-46D6-9B05-19A363C2D547";
paths = (
{
closed = 1;
nodes = (
"191 0 LINE",
"225 218 LINE",
"412 218 LINE",
"378 0 LINE",
"420 0 LINE",
"454 218 LINE",
"572 218 LINE",
"578 254 LINE",
"459 254 LINE",
"492 457 LINE",
"610 457 LINE",
"615 493 LINE",
"497 493 LINE",
"530 700 LINE",
"488 700 LINE",
"455 493 LINE",
"268 493 LINE",
"301 700 LINE",
"263 700 LINE",
"230 493 LINE",
"110 493 LINE",
"104 457 LINE",
"225 457 LINE",
"192 254 LINE",
"72 254 LINE",
"66 218 LINE",
"187 218 LINE",
"152 0 LINE"
);
},
{
closed = 1;
nodes = (
"263 457 LINE",
"450 457 LINE",
"417 254 LINE",
"230 254 LINE"
);
}
);
width = 681;
},
{
layerId = "1D708A55-1947-4475-A0A3-21124B6DD42B";
paths = (
{
closed = 1;
nodes = (
"249 0 LINE",
"275 166 LINE",
"382 166 LINE",
"357 0 LINE",
"490 0 LINE",
"515 166 LINE",
"615 166 LINE",
"635 298 LINE",
"535 298 LINE",
"553 421 LINE",
"655 421 LINE",
"673 552 LINE",
"573 552 LINE",
"595 700 LINE",
"464 700 LINE",
"440 552 LINE",
"333 552 LINE",
"355 700 LINE",
"222 700 LINE",
"202 552 LINE",
"98 552 LINE",
"80 421 LINE",
"180 421 LINE",
"162 298 LINE",
"60 298 LINE",
"42 166 LINE",
"142 166 LINE",
"117 0 LINE"
);
},
{
closed = 1;
nodes = (
"313 421 LINE",
"420 421 LINE",
"402 298 LINE",
"295 298 LINE"
);
}
);
width = 715;
}
);
note = numbersign;
unicode = 0023;
},
{
glyphname = dollar;
lastChange = "2016-11-17 05:24:08 +0000";
layers = (
{
background = {
paths = (
{
closed = 1;
nodes = (
"343 -98 LINE",
"343 -8 LINE",
"445 9 OFFCURVE",
"524 80 OFFCURVE",
"524 197 CURVE SMOOTH",
"524 343 OFFCURVE",
"410 386 OFFCURVE",
"314 422 CURVE SMOOTH",
"243 449 OFFCURVE",
"182 471 OFFCURVE",
"182 528 CURVE SMOOTH",
"182 581 OFFCURVE",
"219 612 OFFCURVE",
"280 612 CURVE SMOOTH",
"342 612 OFFCURVE",
"381 581 OFFCURVE",
"397 541 CURVE",
"493 573 LINE",
"474 639 OFFCURVE",
"423 691 OFFCURVE",
"343 707 CURVE",
"343 789 LINE",
"239 789 LINE",
"239 708 LINE",
"133 690 OFFCURVE",
"74 615 OFFCURVE",
"74 529 CURVE SMOOTH",
"74 401 OFFCURVE",
"175 363 OFFCURVE",
"267 328 CURVE SMOOTH",
"345 299 OFFCURVE",
"416 272 OFFCURVE",
"416 196 CURVE SMOOTH",
"416 125 OFFCURVE",
"369 88 OFFCURVE",
"298 88 CURVE SMOOTH",
"228 88 OFFCURVE",
"175 131 OFFCURVE",
"148 194 CURVE",
"50 158 LINE",
"78 71 OFFCURVE",
"147 10 OFFCURVE",
"239 -7 CURVE",
"239 -98 LINE"
);
}
);
};
layerId = "02CCC12B-AAA5-4DEC-99A9-D81829579BCD";
paths = (
{
closed = 1;
nodes = (
"343 -98 LINE",
"343 -8 LINE",
"445 9 OFFCURVE",
"524 80 OFFCURVE",
"524 197 CURVE SMOOTH",
"524 343 OFFCURVE",
"410 386 OFFCURVE",
"314 422 CURVE SMOOTH",
"243 449 OFFCURVE",
"182 471 OFFCURVE",
"182 528 CURVE SMOOTH",
"182 581 OFFCURVE",
"219 612 OFFCURVE",
"280 612 CURVE SMOOTH",
"342 612 OFFCURVE",
"381 581 OFFCURVE",
"397 541 CURVE",
"493 573 LINE",
"474 639 OFFCURVE",
"423 691 OFFCURVE",
"343 707 CURVE",
"343 789 LINE",
"239 789 LINE",
"239 708 LINE",
"133 690 OFFCURVE",
"74 615 OFFCURVE",
"74 529 CURVE SMOOTH",
"74 401 OFFCURVE",
"175 363 OFFCURVE",
"267 328 CURVE SMOOTH",
"345 299 OFFCURVE",
"416 272 OFFCURVE",
"416 196 CURVE SMOOTH",
"416 125 OFFCURVE",
"369 88 OFFCURVE",
"298 88 CURVE SMOOTH",
"228 88 OFFCURVE",
"175 131 OFFCURVE",
"148 194 CURVE",
"50 158 LINE",
"78 71 OFFCURVE",
"147 10 OFFCURVE",
"239 -7 CURVE",
"239 -98 LINE"
);
}
);
width = 584;
},
{
background = {
paths = (
{
closed = 1;
nodes = (
"330 -98 LINE",
"330 -10 LINE",
"442 0 OFFCURVE",
"519 68 OFFCURVE",
"519 182 CURVE SMOOTH",
"519 315 OFFCURVE",
"412 373 OFFCURVE",
"317 410 CURVE SMOOTH",
"234 442 OFFCURVE",
"157 478 OFFCURVE",
"157 550 CURVE SMOOTH",
"157 610 OFFCURVE",
"205 647 OFFCURVE",
"287 647 CURVE SMOOTH",
"357 647 OFFCURVE",
"403 616 OFFCURVE",
"420 579 CURVE",
"485 601 LINE",
"468 656 OFFCURVE",
"411 699 OFFCURVE",
"330 709 CURVE",
"330 789 LINE",
"259 789 LINE",
"259 710 LINE",
"148 699 OFFCURVE",
"84 630 OFFCURVE",
"84 549 CURVE SMOOTH",
"84 431 OFFCURVE",
"191 380 OFFCURVE",
"289 343 CURVE SMOOTH",
"371 312 OFFCURVE",
"446 264 OFFCURVE",
"446 180 CURVE SMOOTH",
"446 96 OFFCURVE",
"390 53 OFFCURVE",
"299 53 CURVE SMOOTH",
"219 53 OFFCURVE",
"159 93 OFFCURVE",
"131 154 CURVE",
"65 130 LINE",
"90 62 OFFCURVE",
"161 3 OFFCURVE",
"259 -9 CURVE",
"259 -98 LINE"
);
}
);
};
layerId = "DE4AFDBE-F375-44ED-A5DB-4773839D6964";
paths = (
{
closed = 1;
nodes = (
"330 -98 LINE",
"330 -10 LINE",
"442 0 OFFCURVE",
"519 68 OFFCURVE",
"519 182 CURVE SMOOTH",
"519 315 OFFCURVE",
"412 373 OFFCURVE",
"317 410 CURVE SMOOTH",
"234 442 OFFCURVE",
"157 478 OFFCURVE",
"157 550 CURVE SMOOTH",
"157 610 OFFCURVE",
"205 647 OFFCURVE",
"287 647 CURVE SMOOTH",
"357 647 OFFCURVE",
"403 616 OFFCURVE",
"420 579 CURVE",
"485 601 LINE",
"468 656 OFFCURVE",
"411 699 OFFCURVE",
"330 709 CURVE",
"330 789 LINE",
"259 789 LINE",
"259 710 LINE",
"148 699 OFFCURVE",
"84 630 OFFCURVE",
"84 549 CURVE SMOOTH",
"84 431 OFFCURVE",
"191 380 OFFCURVE",
"289 343 CURVE SMOOTH",
"371 312 OFFCURVE",
"446 264 OFFCURVE",
"446 180 CURVE SMOOTH",
"446 96 OFFCURVE",
"390 53 OFFCURVE",
"299 53 CURVE SMOOTH",
"219 53 OFFCURVE",
"159 93 OFFCURVE",
"131 154 CURVE",
"65 130 LINE",
"90 62 OFFCURVE",
"161 3 OFFCURVE",
"259 -9 CURVE",
"259 -98 LINE"
);
}
);
width = 592;
},
{
background = {
paths = (
{
closed = 1;
nodes = (
"365 -92 LINE",
"365 -6 LINE",
"464 13 OFFCURVE",
"541 86 OFFCURVE",
"541 202 CURVE SMOOTH",
"541 354 OFFCURVE",
"425 398 OFFCURVE",
"333 433 CURVE SMOOTH",
"269 457 OFFCURVE",
"216 477 OFFCURVE",
"216 523 CURVE SMOOTH",
"216 562 OFFCURVE",
"244 584 OFFCURVE",
"291 584 CURVE SMOOTH",
"345 584 OFFCURVE",
"378 551 OFFCURVE",
"394 511 CURVE",
"515 551 LINE",
"494 624 OFFCURVE",
"446 683 OFFCURVE",
"365 704 CURVE",
"365 785 LINE",
"234 785 LINE",
"234 705 LINE",
"133 684 OFFCURVE",
"78 608 OFFCURVE",
"78 523 CURVE SMOOTH",
"78 387 OFFCURVE",
"183 347 OFFCURVE",
"273 312 CURVE SMOOTH",
"342 285 OFFCURVE",
"403 262 OFFCURVE",
"403 201 CURVE SMOOTH",
"403 146 OFFCURVE",
"365 116 OFFCURVE",
"308 116 CURVE SMOOTH",
"249 116 OFFCURVE",
"200 161 OFFCURVE",
"173 223 CURVE",
"50 178 LINE",
"81 85 OFFCURVE",
"143 20 OFFCURVE",
"234 -3 CURVE",
"234 -92 LINE"
);
}
);
};
layerId = "1ED176E8-AB71-4F43-9CA1-B943ACA5B6F8";
paths = (
{
closed = 1;
nodes = (
"365 -92 LINE",
"365 -6 LINE",
"464 13 OFFCURVE",
"541 86 OFFCURVE",
"541 202 CURVE SMOOTH",
"541 354 OFFCURVE",
"425 398 OFFCURVE",
"333 433 CURVE SMOOTH",
"269 457 OFFCURVE",
"216 477 OFFCURVE",
"216 523 CURVE SMOOTH",
"216 562 OFFCURVE",
"244 584 OFFCURVE",
"291 584 CURVE SMOOTH",
"345 584 OFFCURVE",
"378 551 OFFCURVE",
"394 511 CURVE",
"515 551 LINE",
"494 624 OFFCURVE",
"446 683 OFFCURVE",
"365 704 CURVE",
"365 785 LINE",
"234 785 LINE",
"234 705 LINE",
"133 684 OFFCURVE",
"78 608 OFFCURVE",
"78 523 CURVE SMOOTH",
"78 387 OFFCURVE",
"183 347 OFFCURVE",
"273 312 CURVE SMOOTH",
"342 285 OFFCURVE",
"403 262 OFFCURVE",
"403 201 CURVE SMOOTH",
"403 146 OFFCURVE",
"365 116 OFFCURVE",
"308 116 CURVE SMOOTH",
"249 116 OFFCURVE",
"200 161 OFFCURVE",
"173 223 CURVE",
"50 178 LINE",
"81 85 OFFCURVE",
"143 20 OFFCURVE",
"234 -3 CURVE",
"234 -92 LINE"
);
}
);
width = 601;
},
{
background = {
paths = (
{
closed = 1;
nodes = (
"311 -98 LINE",
"311 -11 LINE",
"422 -6 OFFCURVE",
"500 60 OFFCURVE",
"500 173 CURVE SMOOTH",
"500 301 OFFCURVE",
"397 358 OFFCURVE",
"309 394 CURVE SMOOTH",
"223 429 OFFCURVE",
"137 467 OFFCURVE",
"137 557 CURVE SMOOTH",
"137 631 OFFCURVE",
"192 677 OFFCURVE",
"285 677 CURVE SMOOTH",
"360 677 OFFCURVE",
"410 643 OFFCURVE",
"434 585 CURVE",
"470 597 LINE",
"449 661 OFFCURVE",
"387 703 OFFCURVE",
"311 710 CURVE",
"311 789 LINE",
"275 789 LINE",
"275 712 LINE",
"161 707 OFFCURVE",
"99 643 OFFCURVE",
"99 559 CURVE SMOOTH",
"99 443 OFFCURVE",
"200 396 OFFCURVE",
"293 359 CURVE SMOOTH",
"381 325 OFFCURVE",
"462 269 OFFCURVE",
"462 174 CURVE SMOOTH",
"462 75 OFFCURVE",
"396 23 OFFCURVE",
"297 23 CURVE SMOOTH",
"214 23 OFFCURVE",
"147 74 OFFCURVE",
"114 148 CURVE",
"76 135 LINE",
"107 61 OFFCURVE",
"178 -3 OFFCURVE",
"275 -11 CURVE",
"275 -98 LINE"
);
}
);
};
layerId = "3BB16070-9AE0-46D6-9B05-19A363C2D547";
paths = (
{
closed = 1;
nodes = (
"311 -98 LINE",
"311 -11 LINE",
"422 -6 OFFCURVE",
"500 60 OFFCURVE",
"500 173 CURVE SMOOTH",
"500 301 OFFCURVE",
"397 358 OFFCURVE",
"309 394 CURVE SMOOTH",
"223 429 OFFCURVE",
"137 467 OFFCURVE",
"137 557 CURVE SMOOTH",
"137 631 OFFCURVE",
"192 677 OFFCURVE",
"285 677 CURVE SMOOTH",
"360 677 OFFCURVE",
"410 643 OFFCURVE",
"434 585 CURVE",
"470 597 LINE",
"449 661 OFFCURVE",
"387 703 OFFCURVE",
"311 710 CURVE",
"311 789 LINE",
"275 789 LINE",
"275 712 LINE",
"161 707 OFFCURVE",
"99 643 OFFCURVE",
"99 559 CURVE SMOOTH",
"99 443 OFFCURVE",
"200 396 OFFCURVE",
"293 359 CURVE SMOOTH",
"381 325 OFFCURVE",
"462 269 OFFCURVE",
"462 174 CURVE SMOOTH",
"462 75 OFFCURVE",
"396 23 OFFCURVE",
"297 23 CURVE SMOOTH",
"214 23 OFFCURVE",
"147 74 OFFCURVE",
"114 148 CURVE",
"76 135 LINE",
"107 61 OFFCURVE",
"178 -3 OFFCURVE",
"275 -11 CURVE",
"275 -98 LINE"
);
}
);
width = 588;
},
{
layerId = "1D708A55-1947-4475-A0A3-21124B6DD42B";
paths = (
{
closed = 1;
nodes = (
"382 -88 LINE",
"382 -5 LINE",
"478 16 OFFCURVE",
"554 91 OFFCURVE",
"554 206 CURVE SMOOTH",
"554 362 OFFCURVE",
"436 407 OFFCURVE",
"347 441 CURVE SMOOTH",
"289 463 OFFCURVE",
"242 482 OFFCURVE",
"242 519 CURVE SMOOTH",
"242 548 OFFCURVE",
"263 563 OFFCURVE",
"299 563 CURVE SMOOTH",
"347 563 OFFCURVE",
"376 529 OFFCURVE",
"392 489 CURVE",
"532 535 LINE",
"509 613 OFFCURVE",
"463 677 OFFCURVE",
"382 702 CURVE",
"382 782 LINE",
"230 782 LINE",
"230 703 LINE",
"133 680 OFFCURVE",
"81 603 OFFCURVE",
"81 519 CURVE SMOOTH",
"81 377 OFFCURVE",
"189 335 OFFCURVE",
"278 300 CURVE SMOOTH",
"340 275 OFFCURVE",
"393 255 OFFCURVE",
"393 205 CURVE SMOOTH",
"393 162 OFFCURVE",
"362 137 OFFCURVE",
"316 137 CURVE SMOOTH",
"265 137 OFFCURVE",
"219 184 OFFCURVE",
"192 245 CURVE",
"50 193 LINE",
"83 96 OFFCURVE",
"140 28 OFFCURVE",
"230 0 CURVE",
"230 -88 LINE"
);
}
);
width = 614;
}
);
note = dollar;
unicode = 0024;
},
{
glyphname = percent;
lastChange = "2016-11-17 05:24:08 +0000";
layers = (
{
layerId = "02CCC12B-AAA5-4DEC-99A9-D81829579BCD";
paths = (
{
closed = 1;
nodes = (
"332 356 OFFCURVE",
"373 457 OFFCURVE",
"373 534 CURVE SMOOTH",
"373 618 OFFCURVE",
"329 712 OFFCURVE",
"209 712 CURVE SMOOTH",
"88 712 OFFCURVE",
"45 612 OFFCURVE",
"45 534 CURVE SMOOTH",
"45 450 OFFCURVE",
"89 356 OFFCURVE",
"209 356 CURVE SMOOTH"
);
},
{
closed = 1;
nodes = (
"155 436 OFFCURVE",
"129 477 OFFCURVE",
"129 534 CURVE SMOOTH",
"129 588 OFFCURVE",
"154 632 OFFCURVE",
"209 632 CURVE SMOOTH",
"263 632 OFFCURVE",
"289 591 OFFCURVE",
"289 534 CURVE SMOOTH",
"289 481 OFFCURVE",
"264 436 OFFCURVE",
"209 436 CURVE SMOOTH"
);
},
{
closed = 1;
nodes = (
"712 712 LINE",
"617 712 LINE",
"139 -12 LINE",
"234 -12 LINE"
);
},
{
closed = 1;
nodes = (
"765 -12 OFFCURVE",
"806 89 OFFCURVE",
"806 166 CURVE SMOOTH",
"806 250 OFFCURVE",
"762 344 OFFCURVE",
"642 344 CURVE SMOOTH",
"521 344 OFFCURVE",
"478 244 OFFCURVE",
"478 166 CURVE SMOOTH",
"478 82 OFFCURVE",
"522 -12 OFFCURVE",
"642 -12 CURVE SMOOTH"
);
},
{
closed = 1;
nodes = (
"588 68 OFFCURVE",
"562 109 OFFCURVE",
"562 166 CURVE SMOOTH",
"562 220 OFFCURVE",
"587 264 OFFCURVE",
"642 264 CURVE SMOOTH",
"696 264 OFFCURVE",
"722 223 OFFCURVE",
"722 166 CURVE SMOOTH",
"722 113 OFFCURVE",
"697 68 OFFCURVE",
"642 68 CURVE SMOOTH"
);
}
);
width = 851;
},
{
layerId = "DE4AFDBE-F375-44ED-A5DB-4773839D6964";
paths = (
{
closed = 1;
nodes = (
"334 356 OFFCURVE",
"373 457 OFFCURVE",
"373 534 CURVE SMOOTH",
"373 619 OFFCURVE",
"331 712 OFFCURVE",
"216 712 CURVE SMOOTH",
"100 712 OFFCURVE",
"59 609 OFFCURVE",
"59 534 CURVE SMOOTH",
"59 450 OFFCURVE",
"101 356 OFFCURVE",
"216 356 CURVE SMOOTH"
);
},
{
closed = 1;
nodes = (
"153 414 OFFCURVE",
"124 465 OFFCURVE",
"124 534 CURVE SMOOTH",
"124 599 OFFCURVE",
"152 654 OFFCURVE",
"216 654 CURVE SMOOTH",
"277 654 OFFCURVE",
"308 605 OFFCURVE",
"308 534 CURVE SMOOTH",
"308 470 OFFCURVE",
"278 414 OFFCURVE",
"216 414 CURVE SMOOTH"
);
},
{
closed = 1;
nodes = (
"719 712 LINE",
"647 712 LINE",
"169 -12 LINE",
"241 -12 LINE"
);
},
{
closed = 1;
nodes = (
"790 -12 OFFCURVE",
"829 89 OFFCURVE",
"829 166 CURVE SMOOTH",
"829 251 OFFCURVE",
"787 344 OFFCURVE",
"672 344 CURVE SMOOTH",
"556 344 OFFCURVE",
"515 241 OFFCURVE",
"515 166 CURVE SMOOTH",
"515 82 OFFCURVE",
"557 -12 OFFCURVE",
"672 -12 CURVE SMOOTH"
);
},
{
closed = 1;
nodes = (
"609 46 OFFCURVE",
"580 97 OFFCURVE",
"580 166 CURVE SMOOTH",
"580 231 OFFCURVE",
"608 286 OFFCURVE",
"672 286 CURVE SMOOTH",
"733 286 OFFCURVE",
"764 237 OFFCURVE",
"764 166 CURVE SMOOTH",
"764 102 OFFCURVE",
"734 46 OFFCURVE",
"672 46 CURVE SMOOTH"
);
}
);
width = 889;
},
{
layerId = "1ED176E8-AB71-4F43-9CA1-B943ACA5B6F8";
paths = (
{
closed = 1;
nodes = (
"342 346 OFFCURVE",
"385 450 OFFCURVE",
"385 529 CURVE SMOOTH",
"385 614 OFFCURVE",
"339 712 OFFCURVE",
"215 712 CURVE SMOOTH",
"90 712 OFFCURVE",
"45 608 OFFCURVE",
"45 529 CURVE SMOOTH",
"45 444 OFFCURVE",
"91 346 OFFCURVE",
"215 346 CURVE SMOOTH"
);
},
{
closed = 1;
nodes = (
"176 454 OFFCURVE",
"157 485 OFFCURVE",
"157 529 CURVE SMOOTH",
"157 569 OFFCURVE",
"175 604 OFFCURVE",
"215 604 CURVE SMOOTH",
"254 604 OFFCURVE",
"273 573 OFFCURVE",
"273 529 CURVE SMOOTH",
"273 489 OFFCURVE",
"255 454 OFFCURVE",
"215 454 CURVE SMOOTH"
);
},
{
closed = 1;
nodes = (
"725 712 LINE",
"596 712 LINE",
"119 -12 LINE",
"248 -12 LINE"
);
},
{
closed = 1;
nodes = (
"756 -12 OFFCURVE",
"799 90 OFFCURVE",
"799 171 CURVE SMOOTH",
"799 257 OFFCURVE",
"753 354 OFFCURVE",
"629 354 CURVE SMOOTH",
"504 354 OFFCURVE",
"459 250 OFFCURVE",
"459 171 CURVE SMOOTH",
"459 85 OFFCURVE",
"504 -12 OFFCURVE",
"629 -12 CURVE SMOOTH"
);
},
{
closed = 1;
nodes = (
"589 96 OFFCURVE",
"571 127 OFFCURVE",
"571 171 CURVE SMOOTH",
"571 211 OFFCURVE",
"589 246 OFFCURVE",
"629 246 CURVE SMOOTH",
"668 246 OFFCURVE",
"687 215 OFFCURVE",
"687 171 CURVE SMOOTH",
"687 131 OFFCURVE",
"669 96 OFFCURVE",
"629 96 CURVE SMOOTH"
);
}
);
width = 844;
},
{
layerId = "3BB16070-9AE0-46D6-9B05-19A363C2D547";
paths = (
{
closed = 1;
nodes = (
"331 356 OFFCURVE",
"372 449 OFFCURVE",
"372 534 CURVE SMOOTH",
"372 611 OFFCURVE",
"334 712 OFFCURVE",
"220 712 CURVE SMOOTH",
"106 712 OFFCURVE",
"68 611 OFFCURVE",
"68 534 CURVE SMOOTH",
"68 449 OFFCURVE",
"109 356 OFFCURVE",
"220 356 CURVE SMOOTH"
);
},
{
closed = 1;
nodes = (
"137 392 OFFCURVE",
"106 466 OFFCURVE",
"106 534 CURVE SMOOTH",
"106 595 OFFCURVE",
"135 676 OFFCURVE",
"220 676 CURVE SMOOTH",
"305 676 OFFCURVE",
"334 595 OFFCURVE",
"334 534 CURVE SMOOTH",
"334 466 OFFCURVE",
"303 392 OFFCURVE",
"220 392 CURVE SMOOTH"
);
},
{
closed = 1;
nodes = (
"703 712 LINE",
"660 712 LINE",
"182 -12 LINE",
"225 -12 LINE"
);
},
{
closed = 1;
nodes = (
"776 -12 OFFCURVE",
"817 81 OFFCURVE",
"817 166 CURVE SMOOTH",
"817 243 OFFCURVE",
"779 344 OFFCURVE",
"665 344 CURVE SMOOTH",
"551 344 OFFCURVE",
"513 243 OFFCURVE",
"513 166 CURVE SMOOTH",
"513 81 OFFCURVE",
"554 -12 OFFCURVE",
"665 -12 CURVE SMOOTH"
);
},
{
closed = 1;
nodes = (
"582 24 OFFCURVE",
"551 98 OFFCURVE",
"551 166 CURVE SMOOTH",
"551 227 OFFCURVE",
"580 308 OFFCURVE",
"665 308 CURVE SMOOTH",
"750 308 OFFCURVE",
"779 227 OFFCURVE",
"779 166 CURVE SMOOTH",
"779 98 OFFCURVE",
"748 24 OFFCURVE",
"665 24 CURVE SMOOTH"
);
}
);
width = 885;
},
{
layerId = "1D708A55-1947-4475-A0A3-21124B6DD42B";
paths = (
{
closed = 1;
nodes = (
"350 339 OFFCURVE",
"394 445 OFFCURVE",
"394 525 CURVE SMOOTH",
"394 611 OFFCURVE",
"347 712 OFFCURVE",
"220 712 CURVE SMOOTH",
"92 712 OFFCURVE",
"45 605 OFFCURVE",
"45 525 CURVE SMOOTH",
"45 440 OFFCURVE",
"93 339 OFFCURVE",
"220 339 CURVE SMOOTH"
);
},
{
closed = 1;
nodes = (
"192 468 OFFCURVE",
"178 491 OFFCURVE",
"178 525 CURVE SMOOTH",
"178 555 OFFCURVE",
"191 583 OFFCURVE",
"220 583 CURVE SMOOTH",
"247 583 OFFCURVE",
"261 560 OFFCURVE",
"261 525 CURVE SMOOTH",
"261 495 OFFCURVE",
"248 468 OFFCURVE",
"220 468 CURVE SMOOTH"
);
},
{
closed = 1;
nodes = (
"735 712 LINE",
"580 712 LINE",
"104 -12 LINE",
"259 -12 LINE"
);
},
{
closed = 1;
nodes = (
"749 -12 OFFCURVE",
"794 91 OFFCURVE",
"794 175 CURVE SMOOTH",
"794 262 OFFCURVE",
"746 362 OFFCURVE",
"619 362 CURVE SMOOTH",
"491 362 OFFCURVE",
"445 255 OFFCURVE",
"445 175 CURVE SMOOTH",
"445 87 OFFCURVE",
"491 -12 OFFCURVE",
"619 -12 CURVE SMOOTH"
);
},
{
closed = 1;
nodes = (
"590 117 OFFCURVE",
"578 141 OFFCURVE",
"578 175 CURVE SMOOTH",
"578 204 OFFCURVE",
"591 233 OFFCURVE",
"619 233 CURVE SMOOTH",
"647 233 OFFCURVE",
"661 209 OFFCURVE",
"661 175 CURVE SMOOTH",
"661 145 OFFCURVE",
"648 117 OFFCURVE",
"619 117 CURVE SMOOTH"
);
}
);
width = 839;
}
);
note = percent;
unicode = 0025;
},
{
glyphname = ampersand;
lastChange = "2016-11-17 05:24:08 +0000";
layers = (
{
background = {
paths = (
{
closed = 1;
nodes = (
"310 443 LINE SMOOTH",
"278 482 OFFCURVE",
"244 518 OFFCURVE",
"244 555 CURVE SMOOTH",
"244 594 OFFCURVE",
"273 620 OFFCURVE",
"313 620 CURVE SMOOTH",
"352 620 OFFCURVE",
"385 594 OFFCURVE",
"385 548 CURVE SMOOTH",
"385 414 OFFCURVE",
"60 414 OFFCURVE",
"60 185 CURVE SMOOTH",
"60 66 OFFCURVE",
"146 -12 OFFCURVE",
"268 -12 CURVE SMOOTH",
"477 -12 OFFCURVE",
"592 185 OFFCURVE",
"594 339 CURVE",
"493 339 LINE",
"493 238 OFFCURVE",
"410 86 OFFCURVE",
"282 86 CURVE SMOOTH",
"215 86 OFFCURVE",
"172 128 OFFCURVE",
"172 190 CURVE SMOOTH",
"172 350 OFFCURVE",
"485 352 OFFCURVE",
"485 552 CURVE SMOOTH",
"485 645 OFFCURVE",
"412 712 OFFCURVE",
"316 712 CURVE SMOOTH",
"220 712 OFFCURVE",
"144 653 OFFCURVE",
"144 554 CURVE SMOOTH",
"144 486 OFFCURVE",
"178 445 OFFCURVE",
"245 363 CURVE SMOOTH",
"540 0 LINE",
"678 0 LINE"
);
}
);
};
layerId = "02CCC12B-AAA5-4DEC-99A9-D81829579BCD";
paths = (
{
closed = 1;
nodes = (
"355.562 -12 OFFCURVE",
"426.625 22.579 OFFCURVE",
"479.792 74.087 CURVE",
"540 0 LINE",
"678 0 LINE",
"544.995 160.112 LINE",
"576.58 217.339 OFFCURVE",
"593.249 281.198 OFFCURVE",
"594 339 CURVE",
"493 339 LINE",
"493 310.432 OFFCURVE",
"486.36 277.784 OFFCURVE",
"473.939 245.65 CURVE",
"364.374 377.544 LINE",
"429 418.232 OFFCURVE",
"485 467.404 OFFCURVE",
"485 552 CURVE SMOOTH",
"485 645 OFFCURVE",
"412 712 OFFCURVE",
"316 712 CURVE SMOOTH",
"220 712 OFFCURVE",
"144 653 OFFCURVE",
"144 554 CURVE SMOOTH",
"144 496.577 OFFCURVE",
"168.246 458.408 OFFCURVE",
"216.134 398.544 CURVE",
"137.061 353.72 OFFCURVE",
"60 296.509 OFFCURVE",
"60 185 CURVE SMOOTH",
"60 66 OFFCURVE",
"146 -12 OFFCURVE",
"268 -12 CURVE SMOOTH"
);
},
{
closed = 1;
nodes = (
"215 86 OFFCURVE",
"172 128 OFFCURVE",
"172 190 CURVE SMOOTH",
"172 251.729 OFFCURVE",
"218.589 289.94 OFFCURVE",
"275.819 325.078 CURVE",
"416.815 151.58 LINE",
"381.725 112.897 OFFCURVE",
"335.844 86 OFFCURVE",
"282 86 CURVE SMOOTH"
);
},
{
closed = 1;
nodes = (
"352 620 OFFCURVE",
"385 594 OFFCURVE",
"385 548 CURVE SMOOTH",
"385 504.888 OFFCURVE",
"351.358 475.646 OFFCURVE",
"305.722 448.186 CURVE",
"275.043 485.204 OFFCURVE",
"244 519.645 OFFCURVE",
"244 555 CURVE SMOOTH",
"244 594 OFFCURVE",
"273 620 OFFCURVE",
"313 620 CURVE SMOOTH"
);
}
);
width = 701;
},
{
layerId = "DE4AFDBE-F375-44ED-A5DB-4773839D6964";
paths = (
{
closed = 1;
nodes = (
"322 -12 OFFCURVE",
"407 23 OFFCURVE",
"469 91 CURVE",
"546 0 LINE",
"633 0 LINE",
"510 147 LINE",
"550 213 OFFCURVE",
"562 273 OFFCURVE",
"566 319 CURVE",
"500 319 LINE",
"497 294 OFFCURVE",
"487 247 OFFCURVE",
"464 201 CURVE",
"312 383 LINE",
"397 435 OFFCURVE",
"450 489 OFFCURVE",
"450 563 CURVE SMOOTH",
"450 650 OFFCURVE",
"383 712 OFFCURVE",
"292 712 CURVE SMOOTH",
"200 712 OFFCURVE",
"127 657 OFFCURVE",
"127 565 CURVE SMOOTH",
"127 512 OFFCURVE",
"154 469 OFFCURVE",
"215 394 CURVE",
"115 337 OFFCURVE",
"47 277 OFFCURVE",
"47 176 CURVE SMOOTH",
"47 62 OFFCURVE",
"125 -12 OFFCURVE",
"242 -12 CURVE SMOOTH"
);
},
{
closed = 1;
nodes = (
"173 51 OFFCURVE",
"113 103 OFFCURVE",
"113 182 CURVE SMOOTH",
"113 246 OFFCURVE",
"161 292 OFFCURVE",
"253 348 CURVE",
"425 143 LINE",
"377 85 OFFCURVE",
"313 51 OFFCURVE",
"256 51 CURVE SMOOTH"
);
},
{
closed = 1;
nodes = (
"341 650 OFFCURVE",
"384 614 OFFCURVE",
"384 556 CURVE SMOOTH",
"384 511 OFFCURVE",
"346 469 OFFCURVE",
"275 427 CURVE",
"223 489 OFFCURVE",
"193 528 OFFCURVE",
"193 564 CURVE SMOOTH",
"193 616 OFFCURVE",
"231 650 OFFCURVE",
"288 650 CURVE SMOOTH"
);
}
);
width = 653;
},
{
background = {
paths = (
{
closed = 1;
nodes = (
"358 -12 OFFCURVE",
"420 13 OFFCURVE",
"470 63 CURVE",
"521 0 LINE",
"705 0 LINE",
"556 179 LINE",
"580 215 OFFCURVE",
"599 288 OFFCURVE",
"599 356 CURVE",
"457 356 LINE",
"457 335 OFFCURVE",
"456 316 OFFCURVE",
"455 300 CURVE",
"394 372 LINE",
"453 412 OFFCURVE",
"500 464 OFFCURVE",
"500 549 CURVE SMOOTH",
"500 651 OFFCURVE",
"427 712 OFFCURVE",
"324 712 CURVE SMOOTH",
"222 712 OFFCURVE",
"143 656 OFFCURVE",
"143 545 CURVE SMOOTH",
"143 493 OFFCURVE",
"156 447 OFFCURVE",
"205 392 CURVE",
"125 351 OFFCURVE",
"60 291 OFFCURVE",
"60 193 CURVE SMOOTH",
"60 68 OFFCURVE",
"143 -12 OFFCURVE",
"276 -12 CURVE SMOOTH"
);
},
{
closed = 1;
nodes = (
"345 608 OFFCURVE",
"367 590 OFFCURVE",
"367 548 CURVE SMOOTH",
"367 508 OFFCURVE",
"349 479 OFFCURVE",
"320 461 CURVE",
"288 495 OFFCURVE",
"276 525 OFFCURVE",
"276 557 CURVE SMOOTH",
"276 590 OFFCURVE",
"294 608 OFFCURVE",
"321 608 CURVE SMOOTH"
);
},
{
closed = 1;
nodes = (
"236 127 OFFCURVE",
"207 155 OFFCURVE",
"207 196 CURVE SMOOTH",
"207 236 OFFCURVE",
"225 268 OFFCURVE",
"281 296 CURVE",
"390 161 LINE",
"360 139 OFFCURVE",
"327 127 OFFCURVE",
"290 127 CURVE SMOOTH"
);
}
);
};
layerId = "1ED176E8-AB71-4F43-9CA1-B943ACA5B6F8";
paths = (
{
closed = 1;
nodes = (
"357 -12 OFFCURVE",
"422 16 OFFCURVE",
"473 67 CURVE",
"527 0 LINE",
"696 0 LINE",
"552 173 LINE",
"579 216 OFFCURVE",
"597 286 OFFCURVE",
"597 350 CURVE",
"469 350 LINE",
"469 327 OFFCURVE",
"466 303 OFFCURVE",
"461 282 CURVE",
"384 374 LINE",
"445 414 OFFCURVE",
"495 465 OFFCURVE",
"495 550 CURVE SMOOTH",
"495 649 OFFCURVE",
"422 712 OFFCURVE",
"321 712 CURVE SMOOTH",
"221 712 OFFCURVE",
"143 655 OFFCURVE",
"143 548 CURVE SMOOTH",
"143 494 OFFCURVE",
"160 451 OFFCURVE",
"209 394 CURVE",
"129 352 OFFCURVE",
"60 293 OFFCURVE",
"60 190 CURVE SMOOTH",
"60 67 OFFCURVE",
"144 -12 OFFCURVE",
"273 -12 CURVE SMOOTH"
);
},
{
closed = 1;
nodes = (
"229 113 OFFCURVE",
"195 146 OFFCURVE",
"195 194 CURVE SMOOTH",
"195 241 OFFCURVE",
"223 275 OFFCURVE",
"279 306 CURVE",
"399 158 LINE",
"367 130 OFFCURVE",
"330 113 OFFCURVE",
"287 113 CURVE SMOOTH"
);
},
{
closed = 1;
nodes = (
"347 612 OFFCURVE",
"373 591 OFFCURVE",
"373 548 CURVE SMOOTH",
"373 507 OFFCURVE",
"350 478 OFFCURVE",
"315 457 CURVE",
"284 492 OFFCURVE",
"265 523 OFFCURVE",
"265 556 CURVE SMOOTH",
"265 591 OFFCURVE",
"287 612 OFFCURVE",
"318 612 CURVE SMOOTH"
);
}
);
width = 719;
},
{
layerId = "3BB16070-9AE0-46D6-9B05-19A363C2D547";
paths = (
{
closed = 1;
nodes = (
"343 -12 OFFCURVE",
"419 39 OFFCURVE",
"471 107 CURVE",
"561 0 LINE",
"613 0 LINE",
"494 140 LINE",
"530 198 OFFCURVE",
"550 263 OFFCURVE",
"555 319 CURVE",
"517 319 LINE",
"510 270 OFFCURVE",
"494 217 OFFCURVE",
"468 170 CURVE",
"288 383 LINE",
"383 439 OFFCURVE",
"433 496 OFFCURVE",
"433 570 CURVE SMOOTH",
"433 653 OFFCURVE",
"372 712 OFFCURVE",
"289 712 CURVE SMOOTH",
"205 712 OFFCURVE",
"138 660 OFFCURVE",
"138 572 CURVE SMOOTH",
"138 523 OFFCURVE",
"163 476 OFFCURVE",
"233 391 CURVE",
"134 334 OFFCURVE",
"58 269 OFFCURVE",
"58 171 CURVE SMOOTH",
"58 58 OFFCURVE",
"134 -12 OFFCURVE",
"246 -12 CURVE SMOOTH"
);
},
{
closed = 1;
nodes = (
"161 24 OFFCURVE",
"96 77 OFFCURVE",
"96 171 CURVE SMOOTH",
"96 249 OFFCURVE",
"156 307 OFFCURVE",
"255 364 CURVE",
"447 136 LINE",
"401 71 OFFCURVE",
"334 24 OFFCURVE",
"246 24 CURVE SMOOTH"
);
},
{
closed = 1;
nodes = (
"346 676 OFFCURVE",
"395 633 OFFCURVE",
"395 564 CURVE SMOOTH",
"395 510 OFFCURVE",
"350 458 OFFCURVE",
"266 409 CURVE",
"211 476 OFFCURVE",
"176 525 OFFCURVE",
"176 572 CURVE SMOOTH",
"176 635 OFFCURVE",
"220 676 OFFCURVE",
"285 676 CURVE SMOOTH"
);
}
);
width = 646;
},
{
associatedMasterId = "1ED176E8-AB71-4F43-9CA1-B943ACA5B6F8";
background = {
paths = (
{
closed = 1;
nodes = (
"358 -12 OFFCURVE",
"420 13 OFFCURVE",
"470 63 CURVE",
"521 0 LINE",
"705 0 LINE",
"556 179 LINE",
"580 215 OFFCURVE",
"599 288 OFFCURVE",
"599 356 CURVE",
"457 356 LINE",
"457 335 OFFCURVE",
"456 316 OFFCURVE",
"455 300 CURVE",
"394 372 LINE",
"453 412 OFFCURVE",
"500 464 OFFCURVE",
"500 549 CURVE SMOOTH",
"500 651 OFFCURVE",
"427 712 OFFCURVE",
"324 712 CURVE SMOOTH",
"222 712 OFFCURVE",
"143 656 OFFCURVE",
"143 545 CURVE SMOOTH",
"143 493 OFFCURVE",
"156 447 OFFCURVE",
"205 392 CURVE",
"125 351 OFFCURVE",
"60 291 OFFCURVE",
"60 193 CURVE SMOOTH",
"60 68 OFFCURVE",
"143 -12 OFFCURVE",
"276 -12 CURVE SMOOTH"
);
},
{
closed = 1;
nodes = (
"345 608 OFFCURVE",
"367 590 OFFCURVE",
"367 548 CURVE SMOOTH",
"367 508 OFFCURVE",
"349 479 OFFCURVE",
"320 461 CURVE",
"288 495 OFFCURVE",
"276 525 OFFCURVE",
"276 557 CURVE SMOOTH",
"276 590 OFFCURVE",
"294 608 OFFCURVE",
"321 608 CURVE SMOOTH"
);
},
{
closed = 1;
nodes = (
"236 127 OFFCURVE",
"207 155 OFFCURVE",
"207 196 CURVE SMOOTH",
"207 236 OFFCURVE",
"225 268 OFFCURVE",
"281 296 CURVE",
"390 161 LINE",
"360 139 OFFCURVE",
"327 127 OFFCURVE",
"290 127 CURVE SMOOTH"
);
}
);
};
layerId = "9BB3BA15-8CAE-4C25-BC25-DFD61779F200";
name = "Bold [701]";
paths = (
{
closed = 1;
nodes = (
"357 -12 OFFCURVE",
"422 16 OFFCURVE",
"473 67 CURVE",
"527 0 LINE",
"693 0 LINE",
"552 173 LINE",
"579 216 OFFCURVE",
"597 286 OFFCURVE",
"597 350 CURVE",
"469 350 LINE",
"469 327 OFFCURVE",
"466 303 OFFCURVE",
"461 282 CURVE",
"384 374 LINE",
"445 414 OFFCURVE",
"495 465 OFFCURVE",
"495 550 CURVE SMOOTH",
"495 649 OFFCURVE",
"422 712 OFFCURVE",
"318 712 CURVE SMOOTH",
"221 712 OFFCURVE",
"143 652 OFFCURVE",
"143 548 CURVE SMOOTH",
"143 494 OFFCURVE",
"160 451 OFFCURVE",
"209 394 CURVE",
"129 352 OFFCURVE",
"60 293 OFFCURVE",
"60 190 CURVE SMOOTH",
"60 67 OFFCURVE",
"144 -12 OFFCURVE",
"273 -12 CURVE SMOOTH"
);
},
{
closed = 1;
nodes = (
"229 113 OFFCURVE",
"195 146 OFFCURVE",
"195 194 CURVE SMOOTH",
"195 241 OFFCURVE",
"223 275 OFFCURVE",
"279 306 CURVE",
"399 158 LINE",
"367 130 OFFCURVE",
"330 113 OFFCURVE",
"287 113 CURVE SMOOTH"
);
},
{
closed = 1;
nodes = (
"347 612 OFFCURVE",
"373 591 OFFCURVE",
"373 548 CURVE SMOOTH",
"373 507 OFFCURVE",
"350 478 OFFCURVE",
"315 457 CURVE",
"284 492 OFFCURVE",
"265 523 OFFCURVE",
"265 556 CURVE SMOOTH",
"265 590 OFFCURVE",
"289 612 OFFCURVE",
"318 612 CURVE SMOOTH"
);
}
);
width = 719;
},
{
layerId = "1D708A55-1947-4475-A0A3-21124B6DD42B";
paths = (
{
closed = 1;
nodes = (
"358 -12 OFFCURVE",
"419 11 OFFCURVE",
"468 62 CURVE",
"517 0 LINE",
"704 0 LINE",
"557 183 LINE",
"581 215 OFFCURVE",
"600 290 OFFCURVE",
"599 358 CURVE",
"451 358 LINE",
"451 339 OFFCURVE",
"451 322 OFFCURVE",
"451 309 CURVE",
"399 371 LINE",
"457 411 OFFCURVE",
"503 463 OFFCURVE",
"503 549 CURVE SMOOTH",
"503 652 OFFCURVE",
"430 712 OFFCURVE",
"320 712 CURVE SMOOTH",
"222 712 OFFCURVE",
"142 651 OFFCURVE",
"142 544 CURVE SMOOTH",
"142 492 OFFCURVE",
"154 445 OFFCURVE",
"204 391 CURVE",
"123 351 OFFCURVE",
"60 290 OFFCURVE",
"60 194 CURVE SMOOTH",
"60 68 OFFCURVE",
"143 -12 OFFCURVE",
"277 -12 CURVE SMOOTH"
);
},
{
closed = 1;
nodes = (
"240 133 OFFCURVE",
"212 160 OFFCURVE",
"212 197 CURVE SMOOTH",
"212 233 OFFCURVE",
"226 264 OFFCURVE",
"281 292 CURVE",
"386 163 LINE",
"356 143 OFFCURVE",
"326 133 OFFCURVE",
"291 133 CURVE SMOOTH"
);
},
{
closed = 1;
nodes = (
"343 606 OFFCURVE",
"364 589 OFFCURVE",
"364 548 CURVE SMOOTH",
"364 509 OFFCURVE",
"349 480 OFFCURVE",
"322 464 CURVE",
"291 497 OFFCURVE",
"281 526 OFFCURVE",
"281 557 CURVE SMOOTH",
"281 587 OFFCURVE",
"301 606 OFFCURVE",
"322 606 CURVE SMOOTH"
);
}
);
width = 733;
}
);
note = ampersand;
unicode = 0026;
},
{
glyphname = quotesingle;
lastChange = "2016-11-17 05:24:08 +0000";
layers = (
{
layerId = "02CCC12B-AAA5-4DEC-99A9-D81829579BCD";
paths = (
{
closed = 1;
nodes = (
"66 420 LINE",
"154 420 LINE",
"175 700 LINE",
"45 700 LINE"
);
}
);
width = 220;
},
{
layerId = "DE4AFDBE-F375-44ED-A5DB-4773839D6964";
paths = (
{
closed = 1;
nodes = (
"76 433 LINE",
"129 433 LINE",
"147 700 LINE",
"60 700 LINE"
);
}
);
width = 207;
},
{
layerId = "1ED176E8-AB71-4F43-9CA1-B943ACA5B6F8";
paths = (
{
closed = 1;
nodes = (
"69 409 LINE",
"177 409 LINE",
"201 700 LINE",
"45 700 LINE"
);
}
);
width = 246;
},
{
layerId = "3BB16070-9AE0-46D6-9B05-19A363C2D547";
paths = (
{
closed = 1;
nodes = (
"78 433 LINE",
"116 433 LINE",
"116 700 LINE",
"78 700 LINE"
);
}
);
width = 194;
},
{
layerId = "1D708A55-1947-4475-A0A3-21124B6DD42B";
paths = (
{
closed = 1;
nodes = (
"71 401 LINE",
"194 401 LINE",
"221 700 LINE",
"45 700 LINE"
);
}
);
width = 266;
}
);
leftKerningGroup = quotedbl;
note = quotesingle;
rightKerningGroup = quotedbl;
unicode = 0027;
},
{
glyphname = parenleft;
lastChange = "2016-11-17 05:24:08 +0000";
layers = (
{
layerId = "02CCC12B-AAA5-4DEC-99A9-D81829579BCD";
paths = (
{
closed = 1;
nodes = (
"294 -130 LINE",
"260 -82 OFFCURVE",
"174 66 OFFCURVE",
"174 284 CURVE SMOOTH",
"174 501 OFFCURVE",
"265 664 OFFCURVE",
"305 712 CURVE",
"203 712 LINE",
"136 632 OFFCURVE",
"70 486 OFFCURVE",
"70 284 CURVE SMOOTH",
"70 82 OFFCURVE",
"131 -50 OFFCURVE",
"192 -130 CURVE"
);
}
);
width = 345;
},
{
layerId = "DE4AFDBE-F375-44ED-A5DB-4773839D6964";
paths = (
{
closed = 1;
nodes = (
"274 -130 LINE",
"245 -87 OFFCURVE",
"154 56 OFFCURVE",
"154 284 CURVE SMOOTH",
"154 508 OFFCURVE",
"250 669 OFFCURVE",
"285 712 CURVE",
"218 712 LINE",
"151 632 OFFCURVE",
"85 496 OFFCURVE",
"85 284 CURVE SMOOTH",
"85 72 OFFCURVE",
"146 -50 OFFCURVE",
"207 -130 CURVE"
);
}
);
width = 340;
},
{
layerId = "1ED176E8-AB71-4F43-9CA1-B943ACA5B6F8";
paths = (
{
closed = 1;
nodes = (
"321 -130 LINE",
"284 -79 OFFCURVE",
"201 74 OFFCURVE",
"201 283 CURVE SMOOTH",
"201 495 OFFCURVE",
"289 659 OFFCURVE",
"332 712 CURVE",
"203 712 LINE",
"136 631 OFFCURVE",
"70 476 OFFCURVE",
"70 283 CURVE SMOOTH",
"70 89 OFFCURVE",
"131 -50 OFFCURVE",
"192 -130 CURVE"
);
}
);
width = 372;
},
{
layerId = "3BB16070-9AE0-46D6-9B05-19A363C2D547";
paths = (
{
closed = 1;
nodes = (
"262 -130 LINE",
"233 -87 OFFCURVE",
"142 56 OFFCURVE",
"142 284 CURVE SMOOTH",
"142 508 OFFCURVE",
"238 669 OFFCURVE",
"273 712 CURVE",
"237 712 LINE",
"170 632 OFFCURVE",
"104 496 OFFCURVE",
"104 284 CURVE SMOOTH",
"104 72 OFFCURVE",
"165 -50 OFFCURVE",
"226 -130 CURVE"
);
}
);
width = 336;
},
{
layerId = "1D708A55-1947-4475-A0A3-21124B6DD42B";
paths = (
{
closed = 1;
nodes = (
"341 -130 LINE",
"302 -77 OFFCURVE",
"221 80 OFFCURVE",
"221 282 CURVE SMOOTH",
"221 491 OFFCURVE",
"307 655 OFFCURVE",
"352 712 CURVE",
"203 712 LINE",
"136 630 OFFCURVE",
"70 469 OFFCURVE",
"70 282 CURVE SMOOTH",
"70 94 OFFCURVE",
"131 -50 OFFCURVE",
"192 -130 CURVE"
);
}
);
width = 392;
}
);
note = parenleft;
unicode = 0028;
},
{
glyphname = parenright;
lastChange = "2016-11-17 05:24:08 +0000";
layers = (
{
layerId = "02CCC12B-AAA5-4DEC-99A9-D81829579BCD";
paths = (
{
closed = 1;
nodes = (
"153 -130 LINE",
"214 -50 OFFCURVE",
"275 82 OFFCURVE",
"275 284 CURVE SMOOTH",
"275 486 OFFCURVE",
"209 632 OFFCURVE",
"142 712 CURVE",
"40 712 LINE",
"80 664 OFFCURVE",
"171 501 OFFCURVE",
"171 284 CURVE SMOOTH",
"171 66 OFFCURVE",
"85 -82 OFFCURVE",
"51 -130 CURVE"
);
}
);
width = 345;
},
{
layerId = "DE4AFDBE-F375-44ED-A5DB-4773839D6964";
paths = (
{
closed = 1;
nodes = (
"133 -130 LINE",
"194 -50 OFFCURVE",
"255 72 OFFCURVE",
"255 284 CURVE SMOOTH",
"255 496 OFFCURVE",
"189 632 OFFCURVE",
"122 712 CURVE",
"55 712 LINE",
"90 669 OFFCURVE",
"186 508 OFFCURVE",
"186 284 CURVE SMOOTH",
"186 56 OFFCURVE",
"95 -87 OFFCURVE",
"66 -130 CURVE"
);
}
);
width = 340;
},
{
layerId = "1ED176E8-AB71-4F43-9CA1-B943ACA5B6F8";
paths = (
{
closed = 1;
nodes = (
"180 -130 LINE",
"241 -50 OFFCURVE",
"302 89 OFFCURVE",
"302 283 CURVE SMOOTH",
"302 476 OFFCURVE",
"236 631 OFFCURVE",
"169 712 CURVE",
"40 712 LINE",
"83 659 OFFCURVE",
"171 495 OFFCURVE",
"171 283 CURVE SMOOTH",
"171 73 OFFCURVE",
"87 -78 OFFCURVE",
"51 -130 CURVE"
);
}
);
width = 372;
},
{
layerId = "3BB16070-9AE0-46D6-9B05-19A363C2D547";
paths = (
{
closed = 1;
nodes = (
"110 -130 LINE",
"171 -50 OFFCURVE",
"232 72 OFFCURVE",
"232 284 CURVE SMOOTH",
"232 496 OFFCURVE",
"166 632 OFFCURVE",
"99 712 CURVE",
"63 712 LINE",
"98 669 OFFCURVE",
"194 508 OFFCURVE",
"194 284 CURVE SMOOTH",
"194 56 OFFCURVE",
"103 -87 OFFCURVE",
"74 -130 CURVE"
);
}
);
width = 336;
},
{
layerId = "1D708A55-1947-4475-A0A3-21124B6DD42B";
paths = (
{
closed = 1;
nodes = (
"200 -130 LINE",
"261 -50 OFFCURVE",
"322 94 OFFCURVE",
"322 282 CURVE SMOOTH",
"322 469 OFFCURVE",
"256 630 OFFCURVE",
"189 712 CURVE",
"40 712 LINE",
"85 655 OFFCURVE",
"171 491 OFFCURVE",
"171 282 CURVE SMOOTH",
"171 78 OFFCURVE",
"89 -75 OFFCURVE",
"51 -130 CURVE"
);
}
);
width = 392;
}
);
note = parenright;
unicode = 0029;
},
{
glyphname = asterisk;
lastChange = "2016-11-17 05:24:08 +0000";
layers = (
{
layerId = "02CCC12B-AAA5-4DEC-99A9-D81829579BCD";
paths = (
{
closed = 1;
nodes = (
"357 293 LINE",
"432 348 LINE",
"364 441 LINE",
"307 483 LINE",
"377 483 LINE",
"480 517 LINE",
"451 606 LINE",
"348 573 LINE",
"292 533 LINE",
"312 599 LINE",
"312 712 LINE",
"218 712 LINE",
"218 599 LINE",
"237 534 LINE",
"182 573 LINE",
"79 606 LINE",
"50 517 LINE",
"153 483 LINE",
"222 483 LINE",
"166 441 LINE",
"98 348 LINE",
"173 293 LINE",
"242 386 LINE",
"265 455 LINE",
"288 386 LINE"
);
}
);
width = 530;
},
{
layerId = "DE4AFDBE-F375-44ED-A5DB-4773839D6964";
paths = (
{
closed = 1;
nodes = (
"366 301 LINE",
"421 344 LINE",
"358 432 LINE",
"296 488 LINE",
"373 493 LINE",
"477 527 LINE",
"454 593 LINE",
"355 561 LINE",
"284 512 LINE",
"302 595 LINE",
"302 707 LINE",
"233 707 LINE",
"233 595 LINE",
"249 512 LINE",
"178 561 LINE",
"81 593 LINE",
"58 527 LINE",
"160 493 LINE",
"235 488 LINE",
"177 432 LINE",
"113 344 LINE",
"169 301 LINE",
"235 393 LINE",
"266 473 LINE",
"298 393 LINE"
);
}
);
width = 535;
},
{
layerId = "1ED176E8-AB71-4F43-9CA1-B943ACA5B6F8";
paths = (
{
closed = 1;
nodes = (
"361 280 LINE",
"458 350 LINE",
"384 450 LINE",
"345 469 LINE",
"392 470 LINE",
"500 506 LINE",
"463 622 LINE",
"353 586 LINE",
"320 561 LINE",
"336 601 LINE",
"336 720 LINE",
"214 720 LINE",
"214 601 LINE",
"230 561 LINE",
"197 586 LINE",
"87 622 LINE",
"50 506 LINE",
"158 470 LINE",
"205 469 LINE",
"166 450 LINE",
"92 350 LINE",
"189 280 LINE",
"263 379 LINE",
"275 426 LINE",
"287 379 LINE"
);
}
);
width = 550;
},
{
layerId = "3BB16070-9AE0-46D6-9B05-19A363C2D547";
paths = (
{
closed = 1;
nodes = (
"373 310 LINE",
"404 334 LINE",
"344 417 LINE",
"271 490 LINE",
"370 511 LINE",
"466 543 LINE",
"453 579 LINE",
"356 547 LINE",
"269 502 LINE",
"282 595 LINE",
"282 700 LINE",
"242 700 LINE",
"242 595 LINE",
"255 502 LINE",
"168 547 LINE",
"71 579 LINE",
"58 543 LINE",
"154 511 LINE",
"253 490 LINE",
"180 417 LINE",
"120 334 LINE",
"151 310 LINE",
"211 393 LINE",
"262 483 LINE",
"313 393 LINE"
);
}
);
width = 524;
},
{
associatedMasterId = "1ED176E8-AB71-4F43-9CA1-B943ACA5B6F8";
layerId = "C2504470-EE0D-4A4D-A2F7-0DF0410E994B";
name = "Bold [701]";
paths = (
{
closed = 1;
nodes = (
"361 280 LINE",
"458 350 LINE",
"386 447 LINE",
"341 470 LINE",
"394 471 LINE",
"500 506 LINE",
"463 622 LINE",
"356 587 LINE",
"317 557 LINE",
"336 604 LINE",
"336 720 LINE",
"214 720 LINE",
"214 604 LINE",
"233 557 LINE",
"194 587 LINE",
"87 622 LINE",
"50 506 LINE",
"156 471 LINE",
"210 470 LINE",
"163 447 LINE",
"92 350 LINE",
"189 280 LINE",
"261 377 LINE",
"275 431 LINE",
"289 377 LINE"
);
}
);
width = 550;
},
{
layerId = "1D708A55-1947-4475-A0A3-21124B6DD42B";
paths = (
{
closed = 1;
nodes = (
"364 270 LINE",
"478 352 LINE",
"403 452 LINE",
"367 460 LINE",
"407 462 LINE",
"515 498 LINE",
"472 634 LINE",
"362 598 LINE",
"336 575 LINE",
"354 608 LINE",
"354 726 LINE",
"211 726 LINE",
"211 608 LINE",
"230 574 LINE",
"203 598 LINE",
"93 634 LINE",
"50 498 LINE",
"158 462 LINE",
"201 460 LINE",
"161 452 LINE",
"88 352 LINE",
"201 270 LINE",
"275 370 LINE",
"283 413 LINE",
"290 370 LINE"
);
}
);
width = 565;
}
);
note = asterisk;
unicode = 002A;
},
{
glyphname = plus;
lastChange = "2016-11-17 05:24:08 +0000";
layers = (
{
layerId = "02CCC12B-AAA5-4DEC-99A9-D81829579BCD";
paths = (
{
closed = 1;
nodes = (
"550 293 LINE",
"550 393 LINE",
"367 393 LINE",
"367 578 LINE",
"263 578 LINE",
"263 393 LINE",
"80 393 LINE",
"80 293 LINE",
"263 293 LINE",
"263 108 LINE",
"367 108 LINE",
"367 293 LINE"
);
}
);
width = 630;
},
{
layerId = "DE4AFDBE-F375-44ED-A5DB-4773839D6964";
paths = (
{
closed = 1;
nodes = (
"565 308 LINE",
"565 376 LINE",
"365 376 LINE",
"365 578 LINE",
"293 578 LINE",
"293 376 LINE",
"95 376 LINE",
"95 308 LINE",
"293 308 LINE",
"293 108 LINE",
"365 108 LINE",
"365 308 LINE"
);
}
);
width = 660;
},
{
layerId = "1ED176E8-AB71-4F43-9CA1-B943ACA5B6F8";
paths = (
{
closed = 1;
nodes = (
"550 280 LINE",
"550 406 LINE",
"380 406 LINE",
"380 578 LINE",
"250 578 LINE",
"250 406 LINE",
"80 406 LINE",
"80 280 LINE",
"250 280 LINE",
"250 108 LINE",
"380 108 LINE",
"380 280 LINE"
);
}
);
width = 630;
},
{
layerId = "3BB16070-9AE0-46D6-9B05-19A363C2D547";
paths = (
{
closed = 1;
nodes = (
"563 324 LINE",
"563 360 LINE",
"346 360 LINE",
"346 578 LINE",
"308 578 LINE",
"308 360 LINE",
"93 360 LINE",
"93 324 LINE",
"308 324 LINE",
"308 108 LINE",
"346 108 LINE",
"346 324 LINE"
);
}
);
width = 656;
},
{
layerId = "1D708A55-1947-4475-A0A3-21124B6DD42B";
paths = (
{
closed = 1;
nodes = (
"550 270 LINE",
"550 416 LINE",
"390 416 LINE",
"390 578 LINE",
"240 578 LINE",
"240 416 LINE",
"80 416 LINE",
"80 270 LINE",
"240 270 LINE",
"240 108 LINE",
"390 108 LINE",
"390 270 LINE"
);
}
);
width = 630;
}
);
note = plus;
unicode = 002B;
},
{
glyphname = comma;
lastChange = "2016-11-17 05:24:08 +0000";
layers = (
{
layerId = "02CCC12B-AAA5-4DEC-99A9-D81829579BCD";
paths = (
{
closed = 1;
nodes = (
"80 -141 LINE",
"139 -104 OFFCURVE",
"188 -34 OFFCURVE",
"188 43 CURVE SMOOTH",
"188 104 OFFCURVE",
"151 134 OFFCURVE",
"109 134 CURVE SMOOTH",
"70 134 OFFCURVE",
"35 104 OFFCURVE",
"35 58 CURVE SMOOTH",
"35 18 OFFCURVE",
"67 -9 OFFCURVE",
"102 -12 CURVE",
"96 -56 OFFCURVE",
"59 -100 OFFCURVE",
"41 -116 CURVE"
);
}
);
width = 223;
},
{
layerId = "DE4AFDBE-F375-44ED-A5DB-4773839D6964";
paths = (
{
closed = 1;
nodes = (
"92 -141 LINE",
"144 -109 OFFCURVE",
"183 -51 OFFCURVE",
"183 25 CURVE SMOOTH",
"183 84 OFFCURVE",
"146 109 OFFCURVE",
"111 109 CURVE SMOOTH",
"78 109 OFFCURVE",
"50 84 OFFCURVE",
"50 43 CURVE SMOOTH",
"50 7 OFFCURVE",
"81 -19 OFFCURVE",
"123 -19 CURVE",
"123 -78 OFFCURVE",
"91 -120 OFFCURVE",
"73 -136 CURVE"
);
}
);
width = 226;
},
{
layerId = "1ED176E8-AB71-4F43-9CA1-B943ACA5B6F8";
paths = (
{
closed = 1;
nodes = (
"90 -141 LINE",
"154 -101 OFFCURVE",
"212 -20 OFFCURVE",
"212 57 CURVE SMOOTH",
"212 119 OFFCURVE",
"174 153 OFFCURVE",
"127 153 CURVE SMOOTH",
"83 153 OFFCURVE",
"43 120 OFFCURVE",
"43 70 CURVE SMOOTH",
"43 29 OFFCURVE",
"68 3 OFFCURVE",
"100 -8 CURVE",
"89 -40 OFFCURVE",
"53 -84 OFFCURVE",
"35 -100 CURVE"
);
}
);
width = 247;
},
{
background = {
paths = (
{
closed = 1;
nodes = (
"86 -141 LINE",
"111 -116 OFFCURVE",
"139 -57 OFFCURVE",
"139 0 CURVE SMOOTH",
"139 34 OFFCURVE",
"124 46 OFFCURVE",
"106 46 CURVE SMOOTH",
"90 46 OFFCURVE",
"77 33 OFFCURVE",
"77 15 CURVE SMOOTH",
"77 -2 OFFCURVE",
"91 -14 OFFCURVE",
"109 -14 CURVE",
"109 -18 OFFCURVE",
"110 -22 OFFCURVE",
"110 -27 CURVE SMOOTH",
"110 -64 OFFCURVE",
"96 -111 OFFCURVE",
"77 -138 CURVE"
);
}
);
};
layerId = "3BB16070-9AE0-46D6-9B05-19A363C2D547";
paths = (
{
closed = 1;
nodes = (
"81 -141 LINE",
"106 -116 OFFCURVE",
"134 -57 OFFCURVE",
"134 0 CURVE SMOOTH",
"134 34 OFFCURVE",
"119 46 OFFCURVE",
"101 46 CURVE SMOOTH",
"85 46 OFFCURVE",
"72 33 OFFCURVE",
"72 15 CURVE SMOOTH",
"72 -2 OFFCURVE",
"86 -14 OFFCURVE",
"104 -14 CURVE",
"104 -57 OFFCURVE",
"98 -99 OFFCURVE",
"72 -138 CURVE"
);
}
);
width = 202;
},
{
layerId = "1D708A55-1947-4475-A0A3-21124B6DD42B";
paths = (
{
closed = 1;
nodes = (
"98 -141 LINE",
"165 -99 OFFCURVE",
"230 -10 OFFCURVE",
"230 68 CURVE SMOOTH",
"230 130 OFFCURVE",
"191 167 OFFCURVE",
"141 167 CURVE SMOOTH",
"93 167 OFFCURVE",
"49 132 OFFCURVE",
"49 79 CURVE SMOOTH",
"49 37 OFFCURVE",
"69 12 OFFCURVE",
"99 -5 CURVE",
"84 -28 OFFCURVE",
"49 -72 OFFCURVE",
"31 -88 CURVE"
);
}
);
width = 265;
}
);
leftKerningGroup = comma;
note = comma;
rightKerningGroup = comma;
unicode = 002C;
},
{
glyphname = hyphen;
lastChange = "2016-11-17 05:24:08 +0000";
layers = (
{
layerId = "02CCC12B-AAA5-4DEC-99A9-D81829579BCD";
paths = (
{
closed = 1;
nodes = (
"320 247 LINE",
"320 347 LINE",
"75 347 LINE",
"75 247 LINE"
);
}
);
width = 395;
},
{
layerId = "DE4AFDBE-F375-44ED-A5DB-4773839D6964";
paths = (
{
closed = 1;
nodes = (
"313 264 LINE",
"313 332 LINE",
"90 332 LINE",
"90 264 LINE"
);
}
);
width = 403;
},
{
layerId = "1ED176E8-AB71-4F43-9CA1-B943ACA5B6F8";
paths = (
{
closed = 1;
nodes = (
"337 233 LINE",
"337 358 LINE",
"75 358 LINE",
"75 233 LINE"
);
}
);
width = 412;
},
{
layerId = "3BB16070-9AE0-46D6-9B05-19A363C2D547";
paths = (
{
closed = 1;
nodes = (
"311 280 LINE",
"311 316 LINE",
"88 316 LINE",
"88 280 LINE"
);
}
);
width = 399;
},
{
layerId = "1D708A55-1947-4475-A0A3-21124B6DD42B";
paths = (
{
closed = 1;
nodes = (
"350 223 LINE",
"350 366 LINE",
"75 366 LINE",
"75 223 LINE"
);
}
);
width = 425;
}
);
leftKerningGroup = hyphen;
note = hyphen;
rightKerningGroup = hyphen;
unicode = 002D;
},
{
glyphname = period;
lastChange = "2016-11-17 05:24:08 +0000";
layers = (
{
layerId = "02CCC12B-AAA5-4DEC-99A9-D81829579BCD";
paths = (
{
closed = 1;
nodes = (
"153 -12 OFFCURVE",
"187 21 OFFCURVE",
"187 61 CURVE SMOOTH",
"187 101 OFFCURVE",
"153 135 OFFCURVE",
"111 135 CURVE SMOOTH",
"68 135 OFFCURVE",
"36 101 OFFCURVE",
"36 61 CURVE SMOOTH",
"36 21 OFFCURVE",
"68 -12 OFFCURVE",
"111 -12 CURVE SMOOTH"
);
}
);
width = 223;
},
{
layerId = "DE4AFDBE-F375-44ED-A5DB-4773839D6964";
paths = (
{
closed = 1;
nodes = (
"149 -14 OFFCURVE",
"176 17 OFFCURVE",
"176 49 CURVE SMOOTH",
"176 81 OFFCURVE",
"149 112 OFFCURVE",
"113 112 CURVE SMOOTH",
"77 112 OFFCURVE",
"50 81 OFFCURVE",
"50 49 CURVE SMOOTH",
"50 17 OFFCURVE",
"77 -14 OFFCURVE",
"113 -14 CURVE SMOOTH"
);
}
);
width = 226;
},
{
layerId = "1ED176E8-AB71-4F43-9CA1-B943ACA5B6F8";
paths = (
{
closed = 1;
nodes = (
"168 -12 OFFCURVE",
"205 23 OFFCURVE",
"205 70 CURVE SMOOTH",
"205 116 OFFCURVE",
"168 153 OFFCURVE",
"120 153 CURVE SMOOTH",
"72 153 OFFCURVE",
"36 116 OFFCURVE",
"36 70 CURVE SMOOTH",
"36 23 OFFCURVE",
"72 -12 OFFCURVE",
"120 -12 CURVE SMOOTH"
);
}
);
width = 241;
},
{
layerId = "3BB16070-9AE0-46D6-9B05-19A363C2D547";
paths = (
{
closed = 1;
nodes = (
"118 -14 OFFCURVE",
"130 -1 OFFCURVE",
"130 15 CURVE SMOOTH",
"130 32 OFFCURVE",
"118 46 OFFCURVE",
"101 46 CURVE SMOOTH",
"85 46 OFFCURVE",
"72 32 OFFCURVE",
"72 15 CURVE SMOOTH",
"72 -1 OFFCURVE",
"85 -14 OFFCURVE",
"101 -14 CURVE SMOOTH"
);
}
);
width = 202;
},
{
layerId = "1D708A55-1947-4475-A0A3-21124B6DD42B";
paths = (
{
closed = 1;
nodes = (
"179 -12 OFFCURVE",
"219 25 OFFCURVE",
"219 77 CURVE SMOOTH",
"219 127 OFFCURVE",
"179 167 OFFCURVE",
"127 167 CURVE SMOOTH",
"75 167 OFFCURVE",
"36 127 OFFCURVE",
"36 77 CURVE SMOOTH",
"36 25 OFFCURVE",
"75 -12 OFFCURVE",
"127 -12 CURVE SMOOTH"
);
}
);
width = 255;
}
);
leftKerningGroup = comma;
note = period;
rightKerningGroup = comma;
unicode = 002E;
},
{
glyphname = slash;
lastChange = "2016-11-17 05:24:08 +0000";
layers = (
{
layerId = "02CCC12B-AAA5-4DEC-99A9-D81829579BCD";
paths = (
{
closed = 1;
nodes = (
"90 -130 LINE",
"483 712 LINE",
"378 712 LINE",
"-15 -130 LINE"
);
}
);
width = 493;
},
{
layerId = "DE4AFDBE-F375-44ED-A5DB-4773839D6964";
paths = (
{
closed = 1;
nodes = (
"68 -130 LINE",
"461 712 LINE",
"393 712 LINE",
"0 -130 LINE"
);
}
);
width = 486;
},
{
layerId = "1ED176E8-AB71-4F43-9CA1-B943ACA5B6F8";
paths = (
{
closed = 1;
nodes = (
"119 -130 LINE",
"512 712 LINE",
"378 712 LINE",
"-15 -130 LINE"
);
}
);
width = 522;
},
{
layerId = "3BB16070-9AE0-46D6-9B05-19A363C2D547";
paths = (
{
closed = 1;
nodes = (
"52 -130 LINE",
"445 712 LINE",
"405 712 LINE",
"12 -130 LINE"
);
}
);
width = 482;
},
{
layerId = "1D708A55-1947-4475-A0A3-21124B6DD42B";
paths = (
{
closed = 1;
nodes = (
"141 -130 LINE",
"534 712 LINE",
"378 712 LINE",
"-15 -130 LINE"
);
}
);
width = 544;
}
);
note = slash;
unicode = 002F;
},
{
glyphname = zero;
lastChange = "2016-11-17 05:24:08 +0000";
layers = (
{
layerId = "02CCC12B-AAA5-4DEC-99A9-D81829579BCD";
paths = (
{
closed = 1;
nodes = (
"522 -12 OFFCURVE",
"574 189 OFFCURVE",
"574 350 CURVE SMOOTH",
"574 523 OFFCURVE",
"517 712 OFFCURVE",
"324 712 CURVE SMOOTH",
"126 712 OFFCURVE",
"74 511 OFFCURVE",
"74 350 CURVE SMOOTH",
"74 177 OFFCURVE",
"131 -12 OFFCURVE",
"324 -12 CURVE SMOOTH"
);
},
{
closed = 1;
nodes = (
"212 88 OFFCURVE",
"182 220 OFFCURVE",
"182 350 CURVE SMOOTH",
"182 472 OFFCURVE",
"209 612 OFFCURVE",
"324 612 CURVE SMOOTH",
"436 612 OFFCURVE",
"466 480 OFFCURVE",
"466 350 CURVE SMOOTH",
"466 228 OFFCURVE",
"439 88 OFFCURVE",
"324 88 CURVE SMOOTH"
);
}
);
width = 648;
},
{
layerId = "DE4AFDBE-F375-44ED-A5DB-4773839D6964";
paths = (
{
closed = 1;
nodes = (
"508 -12 OFFCURVE",
"555 202 OFFCURVE",
"555 350 CURVE SMOOTH",
"555 521 OFFCURVE",
"498 712 OFFCURVE",
"315 712 CURVE SMOOTH",
"120 712 OFFCURVE",
"75 496 OFFCURVE",
"75 350 CURVE SMOOTH",
"75 175 OFFCURVE",
"132 -12 OFFCURVE",
"315 -12 CURVE SMOOTH"
);
},
{
closed = 1;
nodes = (
"181 51 OFFCURVE",
"148 203 OFFCURVE",
"148 350 CURVE SMOOTH",
"148 477 OFFCURVE",
"175 649 OFFCURVE",
"315 649 CURVE SMOOTH",
"447 649 OFFCURVE",
"480 495 OFFCURVE",
"480 350 CURVE SMOOTH",
"480 221 OFFCURVE",
"455 51 OFFCURVE",
"315 51 CURVE SMOOTH"
);
}
);
width = 630;
},
{
layerId = "1ED176E8-AB71-4F43-9CA1-B943ACA5B6F8";
paths = (
{
closed = 1;
nodes = (
"531 -12 OFFCURVE",
"588 178 OFFCURVE",
"588 350 CURVE SMOOTH",
"588 525 OFFCURVE",
"531 712 OFFCURVE",
"330 712 CURVE SMOOTH",
"129 712 OFFCURVE",
"72 523 OFFCURVE",
"72 350 CURVE SMOOTH",
"72 178 OFFCURVE",
"129 -12 OFFCURVE",
"330 -12 CURVE SMOOTH"
);
},
{
closed = 1;
nodes = (
"235 116 OFFCURVE",
"207 233 OFFCURVE",
"207 350 CURVE SMOOTH",
"207 467 OFFCURVE",
"235 584 OFFCURVE",
"330 584 CURVE SMOOTH",
"425 584 OFFCURVE",
"453 467 OFFCURVE",
"453 350 CURVE SMOOTH",
"453 233 OFFCURVE",
"425 116 OFFCURVE",
"330 116 CURVE SMOOTH"
);
}
);
width = 660;
},
{
layerId = "3BB16070-9AE0-46D6-9B05-19A363C2D547";
paths = (
{
closed = 1;
nodes = (
"487 -12 OFFCURVE",
"531 202 OFFCURVE",
"531 350 CURVE SMOOTH",
"531 521 OFFCURVE",
"478 712 OFFCURVE",
"308 712 CURVE SMOOTH",
"127 712 OFFCURVE",
"85 496 OFFCURVE",
"85 350 CURVE SMOOTH",
"85 175 OFFCURVE",
"138 -12 OFFCURVE",
"308 -12 CURVE SMOOTH"
);
},
{
closed = 1;
nodes = (
"168 24 OFFCURVE",
"124 192 OFFCURVE",
"124 350 CURVE SMOOTH",
"124 481 OFFCURVE",
"159 676 OFFCURVE",
"308 676 CURVE SMOOTH",
"448 676 OFFCURVE",
"492 504 OFFCURVE",
"492 350 CURVE SMOOTH",
"492 217 OFFCURVE",
"456 24 OFFCURVE",
"308 24 CURVE SMOOTH"
);
}
);
width = 616;
},
{
layerId = "1D708A55-1947-4475-A0A3-21124B6DD42B";
paths = (
{
closed = 1;
nodes = (
"538 -12 OFFCURVE",
"599 170 OFFCURVE",
"599 350 CURVE SMOOTH",
"599 527 OFFCURVE",
"542 712 OFFCURVE",
"335 712 CURVE SMOOTH",
"131 712 OFFCURVE",
"71 532 OFFCURVE",
"71 350 CURVE SMOOTH",
"71 179 OFFCURVE",
"128 -12 OFFCURVE",
"335 -12 CURVE SMOOTH"
);
},
{
closed = 1;
nodes = (
"252 137 OFFCURVE",
"226 243 OFFCURVE",
"226 350 CURVE SMOOTH",
"226 463 OFFCURVE",
"255 563 OFFCURVE",
"335 563 CURVE SMOOTH",
"417 563 OFFCURVE",
"443 457 OFFCURVE",
"443 350 CURVE SMOOTH",
"443 237 OFFCURVE",
"415 137 OFFCURVE",
"335 137 CURVE SMOOTH"
);
}
);
width = 669;
}
);
note = zero;
unicode = 0030;
},
{
glyphname = one;
lastChange = "2016-11-17 05:24:08 +0000";
layers = (
{
layerId = "02CCC12B-AAA5-4DEC-99A9-D81829579BCD";
paths = (
{
closed = 1;
nodes = (
"253 0 LINE",
"253 700 LINE",
"173 700 LINE",
"153 639 OFFCURVE",
"102 620 OFFCURVE",
"34 620 CURVE",
"34 543 LINE",
"149 543 LINE",
"149 0 LINE"
);
}
);
width = 402;
},
{
layerId = "DE4AFDBE-F375-44ED-A5DB-4773839D6964";
paths = (
{
closed = 1;
nodes = (
"234 0 LINE",
"234 700 LINE",
"189 700 LINE",
"167 634 OFFCURVE",
"115 613 OFFCURVE",
"45 613 CURVE",
"45 573 LINE",
"164 573 LINE",
"164 0 LINE"
);
}
);
width = 344;
},
{
layerId = "1ED176E8-AB71-4F43-9CA1-B943ACA5B6F8";
paths = (
{
closed = 1;
nodes = (
"274 0 LINE",
"274 700 LINE",
"166 700 LINE",
"147 643 OFFCURVE",
"99 625 OFFCURVE",
"32 625 CURVE",
"32 518 LINE",
"139 518 LINE",
"139 0 LINE"
);
}
);
width = 411;
},
{
layerId = "3BB16070-9AE0-46D6-9B05-19A363C2D547";
paths = (
{
closed = 1;
nodes = (
"210 0 LINE",
"210 700 LINE",
"185 700 LINE",
"168 619 OFFCURVE",
"145 606 OFFCURVE",
"55 606 CURVE",
"55 582 LINE",
"174 582 LINE",
"174 0 LINE"
);
}
);
width = 330;
},
{
layerId = "1D708A55-1947-4475-A0A3-21124B6DD42B";
paths = (
{
closed = 1;
nodes = (
"290 0 LINE",
"290 700 LINE",
"161 700 LINE",
"143 646 OFFCURVE",
"97 629 OFFCURVE",
"31 629 CURVE",
"31 499 LINE",
"132 499 LINE",
"132 0 LINE"
);
}
);
width = 418;
}
);
note = one;
unicode = 0031;
},
{
glyphname = two;
lastChange = "2016-11-17 05:24:08 +0000";
layers = (
{
layerId = "02CCC12B-AAA5-4DEC-99A9-D81829579BCD";
paths = (
{
closed = 1;
nodes = (
"547 0 LINE",
"547 102 LINE",
"191 102 LINE",
"208 176 OFFCURVE",
"268 230 OFFCURVE",
"360 279 CURVE SMOOTH",
"465 335 OFFCURVE",
"541 386 OFFCURVE",
"541 505 CURVE SMOOTH",
"541 625 OFFCURVE",
"454 712 OFFCURVE",
"312 712 CURVE SMOOTH",
"198 712 OFFCURVE",
"109 651 OFFCURVE",
"75 562 CURVE",
"170 519 LINE",
"192 576 OFFCURVE",
"235 612 OFFCURVE",
"311 612 CURVE SMOOTH",
"383 612 OFFCURVE",
"433 566 OFFCURVE",
"433 508 CURVE SMOOTH",
"433 440 OFFCURVE",
"376 402 OFFCURVE",
"316 371 CURVE SMOOTH",
"186 304 OFFCURVE",
"64 192 OFFCURVE",
"64 0 CURVE"
);
}
);
width = 614;
},
{
layerId = "DE4AFDBE-F375-44ED-A5DB-4773839D6964";
paths = (
{
closed = 1;
nodes = (
"535 0 LINE",
"535 67 LINE",
"150 67 LINE",
"166 155 OFFCURVE",
"241 205 OFFCURVE",
"321 257 CURVE SMOOTH",
"422 322 OFFCURVE",
"529 387 OFFCURVE",
"529 515 CURVE SMOOTH",
"529 634 OFFCURVE",
"448 712 OFFCURVE",
"310 712 CURVE SMOOTH",
"191 712 OFFCURVE",
"107 646 OFFCURVE",
"86 564 CURVE",
"148 536 LINE",
"165 603 OFFCURVE",
"209 649 OFFCURVE",
"304 649 CURVE SMOOTH",
"401 649 OFFCURVE",
"456 591 OFFCURVE",
"456 515 CURVE SMOOTH",
"456 425 OFFCURVE",
"375 372 OFFCURVE",
"288 313 CURVE SMOOTH",
"187 245 OFFCURVE",
"76 175 OFFCURVE",
"76 0 CURVE"
);
}
);
width = 610;
},
{
background = {
paths = (
{
closed = 1;
nodes = (
"547 0 LINE",
"547 130 LINE",
"222 130 LINE",
"241 187 OFFCURVE",
"291 231 OFFCURVE",
"363 271 CURVE SMOOTH",
"468 328 OFFCURVE",
"541 377 OFFCURVE",
"541 505 CURVE SMOOTH",
"541 621 OFFCURVE",
"456 712 OFFCURVE",
"312 712 CURVE SMOOTH",
"206 712 OFFCURVE",
"113 653 OFFCURVE",
"73 560 CURVE",
"194 505 LINE",
"217 554 OFFCURVE",
"256 584 OFFCURVE",
"315 584 CURVE SMOOTH",
"370 584 OFFCURVE",
"406 554 OFFCURVE",
"406 502 CURVE SMOOTH",
"406 447 OFFCURVE",
"357 415 OFFCURVE",
"306 388 CURVE SMOOTH",
"172 316 OFFCURVE",
"62 207 OFFCURVE",
"62 0 CURVE"
);
}
);
};
layerId = "1ED176E8-AB71-4F43-9CA1-B943ACA5B6F8";
paths = (
{
closed = 1;
nodes = (
"547 0 LINE",
"547 130 LINE",
"222 130 LINE",
"242 190 OFFCURVE",
"288 228 OFFCURVE",
"381 281 CURVE SMOOTH",
"474 334 OFFCURVE",
"541 385 OFFCURVE",
"541 505 CURVE SMOOTH",
"541 621 OFFCURVE",
"456 712 OFFCURVE",
"312 712 CURVE SMOOTH",
"206 712 OFFCURVE",
"113 653 OFFCURVE",
"73 560 CURVE",
"194 505 LINE",
"217 554 OFFCURVE",
"256 584 OFFCURVE",
"315 584 CURVE SMOOTH",
"370 584 OFFCURVE",
"406 554 OFFCURVE",
"406 502 CURVE SMOOTH",
"406 447 OFFCURVE",
"357 415 OFFCURVE",
"306 388 CURVE SMOOTH",
"172 316 OFFCURVE",
"62 207 OFFCURVE",
"62 0 CURVE"
);
}
);
width = 612;
},
{
layerId = "3BB16070-9AE0-46D6-9B05-19A363C2D547";
paths = (
{
closed = 1;
nodes = (
"510 0 LINE",
"510 36 LINE",
"124 36 LINE",
"128 136 OFFCURVE",
"189 189 OFFCURVE",
"296 257 CURVE SMOOTH",
"397 321 OFFCURVE",
"504 387 OFFCURVE",
"504 523 CURVE SMOOTH",
"504 634 OFFCURVE",
"430 712 OFFCURVE",
"303 712 CURVE SMOOTH",
"194 712 OFFCURVE",
"121 647 OFFCURVE",
"97 562 CURVE",
"131 546 LINE",
"152 623 OFFCURVE",
"212 676 OFFCURVE",
"303 676 CURVE SMOOTH",
"405 676 OFFCURVE",
"466 612 OFFCURVE",
"466 523 CURVE SMOOTH",
"466 406 OFFCURVE",
"369 346 OFFCURVE",
"277 287 CURVE SMOOTH",
"163 213 OFFCURVE",
"83 158 OFFCURVE",
"83 0 CURVE"
);
}
);
width = 596;
},
{
layerId = "1D708A55-1947-4475-A0A3-21124B6DD42B";
paths = (
{
closed = 1;
nodes = (
"547 0 LINE",
"547 151 LINE",
"245 151 LINE",
"268 201 OFFCURVE",
"303 227 OFFCURVE",
"397 283 CURVE SMOOTH",
"481 333 OFFCURVE",
"541 384 OFFCURVE",
"541 505 CURVE SMOOTH",
"541 618 OFFCURVE",
"458 712 OFFCURVE",
"312 712 CURVE SMOOTH",
"212 712 OFFCURVE",
"116 655 OFFCURVE",
"72 559 CURVE",
"212 495 LINE",
"236 538 OFFCURVE",
"272 563 OFFCURVE",
"318 563 CURVE SMOOTH",
"360 563 OFFCURVE",
"386 545 OFFCURVE",
"386 498 CURVE SMOOTH",
"386 452 OFFCURVE",
"343 425 OFFCURVE",
"299 401 CURVE SMOOTH",
"162 325 OFFCURVE",
"61 218 OFFCURVE",
"61 0 CURVE"
);
}
);
width = 611;
}
);
note = two;
unicode = 0032;
},
{
glyphname = three;
lastChange = "2016-11-17 05:24:08 +0000";
layers = (
{
layerId = "02CCC12B-AAA5-4DEC-99A9-D81829579BCD";
paths = (
{
closed = 1;
nodes = (
"435 -12 OFFCURVE",
"539 65 OFFCURVE",
"539 206 CURVE SMOOTH",
"539 285 OFFCURVE",
"493 339 OFFCURVE",
"423 367 CURVE",
"484 398 OFFCURVE",
"513 454 OFFCURVE",
"513 519 CURVE SMOOTH",
"513 624 OFFCURVE",
"424 712 OFFCURVE",
"297 712 CURVE SMOOTH",
"184 712 OFFCURVE",
"106 655 OFFCURVE",
"73 570 CURVE",
"170 533 LINE",
"191 574 OFFCURVE",
"228 612 OFFCURVE",
"294 612 CURVE SMOOTH",
"366 612 OFFCURVE",
"405 573 OFFCURVE",
"405 509 CURVE SMOOTH",
"405 453 OFFCURVE",
"362 414 OFFCURVE",
"297 414 CURVE SMOOTH",
"243 414 LINE",
"243 314 LINE",
"297 314 LINE SMOOTH",
"392 314 OFFCURVE",
"431 263 OFFCURVE",
"431 202 CURVE SMOOTH",
"431 122 OFFCURVE",
"369 88 OFFCURVE",
"294 88 CURVE SMOOTH",
"235 88 OFFCURVE",
"177 115 OFFCURVE",
"145 188 CURVE",
"48 149 LINE",
"87 52 OFFCURVE",
"170 -12 OFFCURVE",
"294 -12 CURVE SMOOTH"
);
}
);
width = 603;
},
{
layerId = "DE4AFDBE-F375-44ED-A5DB-4773839D6964";
paths = (
{
closed = 1;
nodes = (
"415 -12 OFFCURVE",
"525 75 OFFCURVE",
"525 192 CURVE SMOOTH",
"525 284 OFFCURVE",
"480 351 OFFCURVE",
"407 380 CURVE",
"462 410 OFFCURVE",
"496 471 OFFCURVE",
"496 533 CURVE SMOOTH",
"496 641 OFFCURVE",
"407 712 OFFCURVE",
"291 712 CURVE SMOOTH",
"173 712 OFFCURVE",
"103 638 OFFCURVE",
"74 564 CURVE",
"139 539 LINE",
"160 587 OFFCURVE",
"205 647 OFFCURVE",
"294 647 CURVE SMOOTH",
"361 647 OFFCURVE",
"423 601 OFFCURVE",
"423 523 CURVE SMOOTH",
"423 446 OFFCURVE",
"368 396 OFFCURVE",
"285 396 CURVE SMOOTH",
"248 396 LINE",
"248 332 LINE",
"295 332 LINE SMOOTH",
"396 332 OFFCURVE",
"451 276 OFFCURVE",
"451 190 CURVE SMOOTH",
"451 97 OFFCURVE",
"376 53 OFFCURVE",
"287 53 CURVE SMOOTH",
"205 53 OFFCURVE",
"154 93 OFFCURVE",
"120 179 CURVE",
"55 152 LINE",
"89 60 OFFCURVE",
"151 -12 OFFCURVE",
"287 -12 CURVE SMOOTH"
);
}
);
width = 600;
},
{
layerId = "1ED176E8-AB71-4F43-9CA1-B943ACA5B6F8";
paths = (
{
closed = 1;
nodes = (
"439 -12 OFFCURVE",
"538 67 OFFCURVE",
"538 206 CURVE SMOOTH",
"538 286 OFFCURVE",
"489 344 OFFCURVE",
"429 368 CURVE",
"481 399 OFFCURVE",
"514 451 OFFCURVE",
"514 518 CURVE SMOOTH",
"514 627 OFFCURVE",
"425 712 OFFCURVE",
"295 712 CURVE SMOOTH",
"187 712 OFFCURVE",
"109 654 OFFCURVE",
"69 567 CURVE",
"191 520 LINE",
"212 557 OFFCURVE",
"244 584 OFFCURVE",
"293 584 CURVE SMOOTH",
"349 584 OFFCURVE",
"379 550 OFFCURVE",
"379 506 CURVE SMOOTH",
"379 458 OFFCURVE",
"346 428 OFFCURVE",
"295 428 CURVE SMOOTH",
"227 428 LINE",
"227 299 LINE",
"295 299 LINE SMOOTH",
"371 299 OFFCURVE",
"403 257 OFFCURVE",
"403 206 CURVE SMOOTH",
"403 149 OFFCURVE",
"358 116 OFFCURVE",
"297 116 CURVE SMOOTH",
"246 116 OFFCURVE",
"200 139 OFFCURVE",
"168 201 CURVE",
"46 152 LINE",
"86 52 OFFCURVE",
"174 -12 OFFCURVE",
"293 -12 CURVE SMOOTH"
);
}
);
width = 600;
},
{
layerId = "3BB16070-9AE0-46D6-9B05-19A363C2D547";
paths = (
{
closed = 1;
nodes = (
"410 -12 OFFCURVE",
"503 63 OFFCURVE",
"503 182 CURVE SMOOTH",
"503 278 OFFCURVE",
"447 350 OFFCURVE",
"361 367 CURVE",
"441 397 OFFCURVE",
"475 466 OFFCURVE",
"475 536 CURVE SMOOTH",
"475 641 OFFCURVE",
"394 712 OFFCURVE",
"286 712 CURVE SMOOTH",
"185 712 OFFCURVE",
"115 645 OFFCURVE",
"85 581 CURVE",
"119 567 LINE",
"144 616 OFFCURVE",
"195 676 OFFCURVE",
"286 676 CURVE SMOOTH",
"372 676 OFFCURVE",
"437 621 OFFCURVE",
"437 536 CURVE SMOOTH",
"437 439 OFFCURVE",
"369 381 OFFCURVE",
"278 381 CURVE SMOOTH",
"255 381 LINE",
"255 346 LINE",
"293 346 LINE SMOOTH",
"403 346 OFFCURVE",
"465 283 OFFCURVE",
"465 182 CURVE SMOOTH",
"465 79 OFFCURVE",
"385 24 OFFCURVE",
"284 24 CURVE SMOOTH",
"193 24 OFFCURVE",
"130 70 OFFCURVE",
"93 152 CURVE",
"58 139 LINE",
"91 60 OFFCURVE",
"162 -12 OFFCURVE",
"284 -12 CURVE SMOOTH"
);
}
);
width = 586;
},
{
associatedMasterId = "1ED176E8-AB71-4F43-9CA1-B943ACA5B6F8";
background = {
paths = (
{
closed = 1;
nodes = (
"439 -12 OFFCURVE",
"538 78 OFFCURVE",
"538 188 CURVE SMOOTH",
"538 298 OFFCURVE",
"439 388 OFFCURVE",
"318 388 CURVE SMOOTH",
"197 388 OFFCURVE",
"98 298 OFFCURVE",
"98 188 CURVE SMOOTH",
"98 78 OFFCURVE",
"197 -12 OFFCURVE",
"318 -12 CURVE SMOOTH"
);
}
);
};
layerId = "24566655-75FE-43B9-8EDC-55ABD59D4A39";
name = "Bold [701]";
paths = (
{
closed = 1;
nodes = (
"439 -12 OFFCURVE",
"538 70 OFFCURVE",
"538 194 CURVE SMOOTH",
"538 280 OFFCURVE",
"489 336 OFFCURVE",
"429 360 CURVE",
"481 391 OFFCURVE",
"514 445 OFFCURVE",
"514 514 CURVE SMOOTH",
"514 628 OFFCURVE",
"425 712 OFFCURVE",
"295 712 CURVE SMOOTH",
"187 712 OFFCURVE",
"109 654 OFFCURVE",
"69 567 CURVE",
"191 520 LINE",
"212 557 OFFCURVE",
"244 584 OFFCURVE",
"293 584 CURVE SMOOTH",
"349 584 OFFCURVE",
"379 549 OFFCURVE",
"379 502 CURVE SMOOTH",
"379 451 OFFCURVE",
"346 420 OFFCURVE",
"295 420 CURVE SMOOTH",
"227 420 LINE",
"227 291 LINE",
"295 291 LINE SMOOTH",
"371 291 OFFCURVE",
"403 249 OFFCURVE",
"403 206 CURVE SMOOTH",
"403 146 OFFCURVE",
"358 116 OFFCURVE",
"297 116 CURVE SMOOTH",
"246 116 OFFCURVE",
"200 139 OFFCURVE",
"168 201 CURVE",
"46 152 LINE",
"86 52 OFFCURVE",
"174 -12 OFFCURVE",
"297 -12 CURVE SMOOTH"
);
}
);
width = 600;
},
{
layerId = "1D708A55-1947-4475-A0A3-21124B6DD42B";
paths = (
{
closed = 1;
nodes = (
"442 -12 OFFCURVE",
"537 74 OFFCURVE",
"537 185 CURVE SMOOTH",
"537 276 OFFCURVE",
"486 334 OFFCURVE",
"434 355 CURVE",
"479 386 OFFCURVE",
"515 438 OFFCURVE",
"515 510 CURVE SMOOTH",
"515 631 OFFCURVE",
"426 712 OFFCURVE",
"294 712 CURVE SMOOTH",
"189 712 OFFCURVE",
"111 653 OFFCURVE",
"66 565 CURVE",
"207 510 LINE",
"228 544 OFFCURVE",
"256 563 OFFCURVE",
"292 563 CURVE SMOOTH",
"336 563 OFFCURVE",
"360 531 OFFCURVE",
"360 497 CURVE SMOOTH",
"360 450 OFFCURVE",
"334 425 OFFCURVE",
"294 425 CURVE SMOOTH",
"215 425 LINE",
"215 274 LINE",
"294 274 LINE SMOOTH",
"355 274 OFFCURVE",
"382 239 OFFCURVE",
"382 209 CURVE SMOOTH",
"382 164 OFFCURVE",
"350 137 OFFCURVE",
"299 137 CURVE SMOOTH",
"254 137 OFFCURVE",
"217 157 OFFCURVE",
"185 211 CURVE",
"45 154 LINE",
"85 52 OFFCURVE",
"177 -12 OFFCURVE",
"299 -12 CURVE SMOOTH"
);
}
);
width = 598;
}
);
note = three;
unicode = 0033;
},
{
glyphname = four;
lastChange = "2016-11-17 05:24:08 +0000";
layers = (
{
layerId = "02CCC12B-AAA5-4DEC-99A9-D81829579BCD";
paths = (
{
closed = 1;
nodes = (
"495 0 LINE",
"495 159 LINE",
"586 159 LINE",
"586 255 LINE",
"495 255 LINE",
"495 700 LINE",
"372 700 LINE",
"14 226 LINE",
"14 159 LINE",
"391 159 LINE",
"391 0 LINE"
);
},
{
closed = 1;
nodes = (
"152 255 LINE",
"391 574 LINE",
"391 255 LINE"
);
}
);
width = 645;
},
{
layerId = "DE4AFDBE-F375-44ED-A5DB-4773839D6964";
paths = (
{
closed = 1;
nodes = (
"445 0 LINE",
"445 189 LINE",
"551 189 LINE",
"551 249 LINE",
"445 249 LINE",
"445 700 LINE",
"403 700 LINE",
"35 226 LINE",
"35 189 LINE",
"375 189 LINE",
"375 0 LINE"
);
},
{
closed = 1;
nodes = (
"126 249 LINE",
"375 579 LINE",
"375 249 LINE"
);
}
);
width = 597;
},
{
layerId = "1ED176E8-AB71-4F43-9CA1-B943ACA5B6F8";
paths = (
{
closed = 1;
nodes = (
"510 0 LINE",
"510 140 LINE",
"595 140 LINE",
"595 265 LINE",
"510 265 LINE",
"510 700 LINE",
"370 700 LINE",
"12 226 LINE",
"12 140 LINE",
"378 140 LINE",
"378 0 LINE"
);
},
{
closed = 1;
nodes = (
"188 265 LINE",
"378 522 LINE",
"378 265 LINE"
);
}
);
width = 652;
},
{
layerId = "3BB16070-9AE0-46D6-9B05-19A363C2D547";
paths = (
{
closed = 1;
nodes = (
"421 0 LINE",
"421 204 LINE",
"527 204 LINE",
"527 237 LINE",
"421 237 LINE",
"421 700 LINE",
"405 700 LINE",
"43 225 LINE",
"43 204 LINE",
"385 204 LINE",
"385 0 LINE"
);
},
{
closed = 1;
nodes = (
"94 237 LINE",
"385 620 LINE",
"385 237 LINE"
);
}
);
width = 583;
},
{
layerId = "1D708A55-1947-4475-A0A3-21124B6DD42B";
paths = (
{
closed = 1;
nodes = (
"521 0 LINE",
"521 126 LINE",
"602 126 LINE",
"602 273 LINE",
"521 273 LINE",
"521 700 LINE",
"369 700 LINE",
"11 226 LINE",
"11 126 LINE",
"368 126 LINE",
"368 0 LINE"
);
},
{
closed = 1;
nodes = (
"215 273 LINE",
"368 483 LINE",
"368 273 LINE"
);
}
);
width = 657;
}
);
note = four;
unicode = 0034;
},
{
glyphname = five;
lastChange = "2016-11-17 05:24:08 +0000";
layers = (
{
layerId = "02CCC12B-AAA5-4DEC-99A9-D81829579BCD";
paths = (
{
closed = 1;
nodes = (
"429 -12 OFFCURVE",
"541 85 OFFCURVE",
"541 235 CURVE SMOOTH",
"541 349 OFFCURVE",
"468 460 OFFCURVE",
"319 460 CURVE SMOOTH",
"262 460 OFFCURVE",
"214 443 OFFCURVE",
"185 422 CURVE",
"200 600 LINE",
"496 600 LINE",
"496 700 LINE",
"103 700 LINE",
"79 354 LINE",
"192 312 LINE",
"219 342 OFFCURVE",
"256 360 OFFCURVE",
"304 360 CURVE SMOOTH",
"381 360 OFFCURVE",
"433 316 OFFCURVE",
"433 232 CURVE SMOOTH",
"433 147 OFFCURVE",
"369 88 OFFCURVE",
"273 88 CURVE SMOOTH",
"194 88 OFFCURVE",
"154 113 OFFCURVE",
"121 135 CURVE",
"59 52 LINE",
"92 23 OFFCURVE",
"160 -12 OFFCURVE",
"273 -12 CURVE SMOOTH"
);
}
);
width = 604;
},
{
layerId = "DE4AFDBE-F375-44ED-A5DB-4773839D6964";
paths = (
{
closed = 1;
nodes = (
"470 -12 OFFCURVE",
"563 110 OFFCURVE",
"563 227 CURVE SMOOTH",
"563 361 OFFCURVE",
"461 452 OFFCURVE",
"337 452 CURVE SMOOTH",
"279 452 OFFCURVE",
"219 431 OFFCURVE",
"176 393 CURVE",
"216 637 LINE",
"516 637 LINE",
"516 700 LINE",
"160 700 LINE",
"103 337 LINE",
"162 319 LINE",
"188 349 OFFCURVE",
"248 386 OFFCURVE",
"332 386 CURVE SMOOTH",
"426 386 OFFCURVE",
"489 310 OFFCURVE",
"489 218 CURVE SMOOTH",
"489 127 OFFCURVE",
"411 48 OFFCURVE",
"306 48 CURVE SMOOTH",
"214 48 OFFCURVE",
"162 83 OFFCURVE",
"116 128 CURVE",
"75 77 LINE",
"110 35 OFFCURVE",
"196 -12 OFFCURVE",
"309 -12 CURVE SMOOTH"
);
}
);
width = 638;
},
{
background = {
paths = (
{
closed = 1;
nodes = (
"429 -12 OFFCURVE",
"543 82 OFFCURVE",
"543 235 CURVE SMOOTH",
"543 360 OFFCURVE",
"467 466 OFFCURVE",
"315 466 CURVE SMOOTH",
"274 466 OFFCURVE",
"241 456 OFFCURVE",
"212 443 CURVE",
"220 570 LINE",
"499 570 LINE",
"499 700 LINE",
"95 700 LINE",
"77 348 LINE",
"202 289 LINE",
"230 320 OFFCURVE",
"261 338 OFFCURVE",
"309 338 CURVE SMOOTH",
"372 338 OFFCURVE",
"408 299 OFFCURVE",
"408 235 CURVE SMOOTH",
"408 160 OFFCURVE",
"354 116 OFFCURVE",
"274 116 CURVE SMOOTH",
"204 116 OFFCURVE",
"165 140 OFFCURVE",
"130 161 CURVE",
"57 55 LINE",
"97 23 OFFCURVE",
"168 -12 OFFCURVE",
"274 -12 CURVE SMOOTH"
);
}
);
};
layerId = "1ED176E8-AB71-4F43-9CA1-B943ACA5B6F8";
paths = (
{
closed = 1;
nodes = (
"429 -12 OFFCURVE",
"543 82 OFFCURVE",
"543 235 CURVE SMOOTH",
"543 360 OFFCURVE",
"467 466 OFFCURVE",
"315 466 CURVE SMOOTH",
"274 466 OFFCURVE",
"241 456 OFFCURVE",
"212 443 CURVE",
"220 570 LINE",
"499 570 LINE",
"499 700 LINE",
"95 700 LINE",
"77 348 LINE",
"202 289 LINE",
"230 320 OFFCURVE",
"261 338 OFFCURVE",
"309 338 CURVE SMOOTH",
"372 338 OFFCURVE",
"408 299 OFFCURVE",
"408 235 CURVE SMOOTH",
"408 160 OFFCURVE",
"354 116 OFFCURVE",
"274 116 CURVE SMOOTH",
"208 116 OFFCURVE",
"164 139 OFFCURVE",
"130 161 CURVE",
"57 55 LINE",
"97 23 OFFCURVE",
"168 -12 OFFCURVE",
"274 -12 CURVE SMOOTH"
);
}
);
width = 604;
},
{
layerId = "3BB16070-9AE0-46D6-9B05-19A363C2D547";
paths = (
{
closed = 1;
nodes = (
"461 -12 OFFCURVE",
"538 104 OFFCURVE",
"538 227 CURVE SMOOTH",
"538 361 OFFCURVE",
"442 452 OFFCURVE",
"313 452 CURVE SMOOTH",
"249 452 OFFCURVE",
"196 430 OFFCURVE",
"158 396 CURVE",
"201 664 LINE",
"492 664 LINE",
"492 700 LINE",
"169 700 LINE",
"112 345 LINE",
"142 337 LINE",
"179 379 OFFCURVE",
"233 416 OFFCURVE",
"312 416 CURVE SMOOTH",
"421 416 OFFCURVE",
"500 340 OFFCURVE",
"500 227 CURVE SMOOTH",
"500 122 OFFCURVE",
"438 24 OFFCURVE",
"300 24 CURVE SMOOTH",
"205 24 OFFCURVE",
"142 73 OFFCURVE",
"110 109 CURVE",
"86 79 LINE",
"120 41 OFFCURVE",
"196 -12 OFFCURVE",
"299 -12 CURVE SMOOTH"
);
}
);
width = 624;
},
{
layerId = "1D708A55-1947-4475-A0A3-21124B6DD42B";
paths = (
{
closed = 1;
nodes = (
"429 -12 OFFCURVE",
"545 80 OFFCURVE",
"545 235 CURVE SMOOTH",
"545 368 OFFCURVE",
"466 471 OFFCURVE",
"312 471 CURVE SMOOTH",
"283 471 OFFCURVE",
"261 466 OFFCURVE",
"232 459 CURVE",
"235 548 LINE",
"501 548 LINE",
"501 700 LINE",
"89 700 LINE",
"76 344 LINE",
"210 272 LINE",
"238 304 OFFCURVE",
"265 322 OFFCURVE",
"313 322 CURVE SMOOTH",
"365 322 OFFCURVE",
"389 286 OFFCURVE",
"389 237 CURVE SMOOTH",
"389 170 OFFCURVE",
"343 137 OFFCURVE",
"275 137 CURVE SMOOTH",
"219 137 OFFCURVE",
"172 159 OFFCURVE",
"137 181 CURVE",
"56 57 LINE",
"101 23 OFFCURVE",
"174 -12 OFFCURVE",
"275 -12 CURVE SMOOTH"
);
}
);
width = 604;
}
);
note = five;
unicode = 0035;
},
{
glyphname = six;
lastChange = "2016-11-17 05:24:08 +0000";
layers = (
{
layerId = "02CCC12B-AAA5-4DEC-99A9-D81829579BCD";
paths = (
{
closed = 1;
nodes = (
"451 -12 OFFCURVE",
"549 79 OFFCURVE",
"549 213 CURVE SMOOTH",
"549 348 OFFCURVE",
"459 440 OFFCURVE",
"332 440 CURVE SMOOTH",
"265 440 OFFCURVE",
"215 416 OFFCURVE",
"188 390 CURVE",
"225 527 OFFCURVE",
"331 594 OFFCURVE",
"447 612 CURVE",
"447 712 LINE",
"183 667 OFFCURVE",
"64 492 OFFCURVE",
"64 259 CURVE SMOOTH",
"64 106 OFFCURVE",
"143 -12 OFFCURVE",
"307 -12 CURVE SMOOTH"
);
},
{
closed = 1;
nodes = (
"229 88 OFFCURVE",
"172 134 OFFCURVE",
"172 213 CURVE SMOOTH",
"172 294 OFFCURVE",
"229 340 OFFCURVE",
"307 340 CURVE SMOOTH",
"385 340 OFFCURVE",
"441 294 OFFCURVE",
"441 213 CURVE SMOOTH",
"441 134 OFFCURVE",
"385 88 OFFCURVE",
"307 88 CURVE SMOOTH"
);
}
);
width = 598;
},
{
layerId = "DE4AFDBE-F375-44ED-A5DB-4773839D6964";
paths = (
{
closed = 1;
nodes = (
"419 -12 OFFCURVE",
"521 89 OFFCURVE",
"521 220 CURVE SMOOTH",
"521 327 OFFCURVE",
"429 434 OFFCURVE",
"314 434 CURVE SMOOTH",
"243 434 OFFCURVE",
"185 411 OFFCURVE",
"151 370 CURVE",
"173 489 OFFCURVE",
"290 618 OFFCURVE",
"423 657 CURVE",
"423 712 LINE",
"221 661 OFFCURVE",
"65 458 OFFCURVE",
"65 259 CURVE SMOOTH",
"65 106 OFFCURVE",
"144 -12 OFFCURVE",
"297 -12 CURVE SMOOTH"
);
},
{
closed = 1;
nodes = (
"204 51 OFFCURVE",
"134 120 OFFCURVE",
"134 210 CURVE SMOOTH",
"134 304 OFFCURVE",
"201 372 OFFCURVE",
"294 372 CURVE SMOOTH",
"393 372 OFFCURVE",
"454 304 OFFCURVE",
"454 210 CURVE SMOOTH",
"454 120 OFFCURVE",
"390 51 OFFCURVE",
"294 51 CURVE SMOOTH"
);
}
);
width = 596;
},
{
layerId = "1ED176E8-AB71-4F43-9CA1-B943ACA5B6F8";
paths = (
{
closed = 1;
nodes = (
"464 -12 OFFCURVE",
"567 80 OFFCURVE",
"567 215 CURVE SMOOTH",
"567 351 OFFCURVE",
"471 444 OFFCURVE",
"338 444 CURVE SMOOTH",
"287 444 OFFCURVE",
"248 428 OFFCURVE",
"223 409 CURVE",
"263 518 OFFCURVE",
"370 568 OFFCURVE",
"472 584 CURVE",
"472 712 LINE",
"183 666 OFFCURVE",
"62 484 OFFCURVE",
"62 258 CURVE SMOOTH",
"62 105 OFFCURVE",
"149 -12 OFFCURVE",
"317 -12 CURVE SMOOTH"
);
},
{
closed = 1;
nodes = (
"250 116 OFFCURVE",
"201 152 OFFCURVE",
"201 215 CURVE SMOOTH",
"201 277 OFFCURVE",
"250 316 OFFCURVE",
"317 316 CURVE SMOOTH",
"383 316 OFFCURVE",
"432 278 OFFCURVE",
"432 215 CURVE SMOOTH",
"432 152 OFFCURVE",
"383 116 OFFCURVE",
"317 116 CURVE SMOOTH"
);
}
);
width = 614;
},
{
layerId = "3BB16070-9AE0-46D6-9B05-19A363C2D547";
paths = (
{
closed = 1;
nodes = (
"415 -12 OFFCURVE",
"500 82 OFFCURVE",
"500 210 CURVE SMOOTH",
"500 333 OFFCURVE",
"418 425 OFFCURVE",
"287 425 CURVE SMOOTH",
"220 425 OFFCURVE",
"152 390 OFFCURVE",
"118 335 CURVE",
"153 510 OFFCURVE",
"255 625 OFFCURVE",
"401 675 CURVE",
"401 712 LINE",
"181 636 OFFCURVE",
"73 450 OFFCURVE",
"73 227 CURVE SMOOTH",
"73 113 OFFCURVE",
"132 -12 OFFCURVE",
"287 -12 CURVE SMOOTH"
);
},
{
closed = 1;
nodes = (
"183 24 OFFCURVE",
"113 104 OFFCURVE",
"113 210 CURVE SMOOTH",
"113 312 OFFCURVE",
"185 389 OFFCURVE",
"287 389 CURVE SMOOTH",
"395 389 OFFCURVE",
"462 312 OFFCURVE",
"462 205 CURVE SMOOTH",
"462 102 OFFCURVE",
"392 24 OFFCURVE",
"287 24 CURVE SMOOTH"
);
}
);
width = 582;
},
{
layerId = "1D708A55-1947-4475-A0A3-21124B6DD42B";
paths = (
{
closed = 1;
nodes = (
"474 -12 OFFCURVE",
"581 81 OFFCURVE",
"581 217 CURVE SMOOTH",
"581 353 OFFCURVE",
"480 447 OFFCURVE",
"343 447 CURVE SMOOTH",
"304 447 OFFCURVE",
"273 437 OFFCURVE",
"249 423 CURVE",
"292 511 OFFCURVE",
"399 549 OFFCURVE",
"491 563 CURVE",
"491 712 LINE",
"183 665 OFFCURVE",
"61 478 OFFCURVE",
"61 257 CURVE SMOOTH",
"61 104 OFFCURVE",
"154 -12 OFFCURVE",
"325 -12 CURVE SMOOTH"
);
},
{
closed = 1;
nodes = (
"266 137 OFFCURVE",
"223 166 OFFCURVE",
"223 217 CURVE SMOOTH",
"223 264 OFFCURVE",
"266 298 OFFCURVE",
"325 298 CURVE SMOOTH",
"382 298 OFFCURVE",
"425 266 OFFCURVE",
"425 217 CURVE SMOOTH",
"425 166 OFFCURVE",
"382 137 OFFCURVE",
"325 137 CURVE SMOOTH"
);
}
);
width = 626;
}
);
note = six;
unicode = 0036;
},
{
glyphname = seven;
lastChange = "2016-11-17 05:24:08 +0000";
layers = (
{
layerId = "02CCC12B-AAA5-4DEC-99A9-D81829579BCD";
paths = (
{
closed = 1;
nodes = (
"288 0 LINE",
"289 155 OFFCURVE",
"339 405 OFFCURVE",
"496 587 CURVE",
"496 700 LINE",
"24 700 LINE",
"24 598 LINE",
"381 598 LINE",
"250 411 OFFCURVE",
"182 239 OFFCURVE",
"180 0 CURVE"
);
}
);
width = 535;
},
{
layerId = "DE4AFDBE-F375-44ED-A5DB-4773839D6964";
paths = (
{
closed = 1;
nodes = (
"239 0 LINE",
"240 172 OFFCURVE",
"269 431 OFFCURVE",
"464 654 CURVE",
"464 700 LINE",
"45 700 LINE",
"45 640 LINE",
"384 640 LINE",
"214 424 OFFCURVE",
"171 219 OFFCURVE",
"169 0 CURVE"
);
}
);
width = 509;
},
{
background = {
paths = (
{
closed = 1;
nodes = (
"302 0 LINE",
"302 148 OFFCURVE",
"357 415 OFFCURVE",
"504 581 CURVE",
"504 700 LINE",
"22 700 LINE",
"22 570 LINE",
"348 570 LINE",
"228 402 OFFCURVE",
"167 228 OFFCURVE",
"167 0 CURVE"
);
}
);
};
layerId = "1ED176E8-AB71-4F43-9CA1-B943ACA5B6F8";
paths = (
{
closed = 1;
nodes = (
"302 0 LINE",
"302 148 OFFCURVE",
"357 415 OFFCURVE",
"504 581 CURVE",
"504 700 LINE",
"22 700 LINE",
"22 570 LINE",
"348 570 LINE",
"228 402 OFFCURVE",
"169 232 OFFCURVE",
"167 0 CURVE"
);
}
);
width = 541;
},
{
layerId = "3BB16070-9AE0-46D6-9B05-19A363C2D547";
paths = (
{
closed = 1;
nodes = (
"216 0 LINE",
"218 178 OFFCURVE",
"244 439 OFFCURVE",
"446 669 CURVE",
"446 700 LINE",
"49 700 LINE",
"49 664 LINE",
"408 664 LINE",
"227 446 OFFCURVE",
"181 226 OFFCURVE",
"177 0 CURVE"
);
}
);
width = 495;
},
{
layerId = "1D708A55-1947-4475-A0A3-21124B6DD42B";
paths = (
{
closed = 1;
nodes = (
"313 0 LINE",
"312 143 OFFCURVE",
"371 423 OFFCURVE",
"510 577 CURVE",
"510 700 LINE",
"21 700 LINE",
"21 549 LINE",
"323 549 LINE",
"212 395 OFFCURVE",
"159 227 OFFCURVE",
"157 0 CURVE"
);
}
);
width = 546;
}
);
note = seven;
unicode = 0037;
},
{
glyphname = eight;
lastChange = "2016-11-17 05:24:08 +0000";
layers = (
{
layerId = "02CCC12B-AAA5-4DEC-99A9-D81829579BCD";
paths = (
{
closed = 1;
nodes = (
"451 -12 OFFCURVE",
"549 79 OFFCURVE",
"549 205 CURVE SMOOTH",
"549 291 OFFCURVE",
"501 349 OFFCURVE",
"431 383 CURVE",
"487 415 OFFCURVE",
"519 462 OFFCURVE",
"519 529 CURVE SMOOTH",
"519 633 OFFCURVE",
"434 712 OFFCURVE",
"306 712 CURVE SMOOTH",
"178 712 OFFCURVE",
"94 633 OFFCURVE",
"94 529 CURVE SMOOTH",
"94 461 OFFCURVE",
"126 414 OFFCURVE",
"181 383 CURVE",
"112 349 OFFCURVE",
"64 291 OFFCURVE",
"64 205 CURVE SMOOTH",
"64 79 OFFCURVE",
"161 -12 OFFCURVE",
"306 -12 CURVE SMOOTH"
);
},
{
closed = 1;
nodes = (
"227 88 OFFCURVE",
"172 137 OFFCURVE",
"172 208 CURVE SMOOTH",
"172 276 OFFCURVE",
"227 332 OFFCURVE",
"306 332 CURVE SMOOTH",
"384 332 OFFCURVE",
"441 276 OFFCURVE",
"441 208 CURVE SMOOTH",
"441 137 OFFCURVE",
"384 88 OFFCURVE",
"306 88 CURVE SMOOTH"
);
},
{
closed = 1;
nodes = (
"243 432 OFFCURVE",
"200 473 OFFCURVE",
"200 523 CURVE SMOOTH",
"200 577 OFFCURVE",
"243 612 OFFCURVE",
"306 612 CURVE SMOOTH",
"369 612 OFFCURVE",
"413 577 OFFCURVE",
"413 523 CURVE SMOOTH",
"413 473 OFFCURVE",
"369 432 OFFCURVE",
"306 432 CURVE SMOOTH"
);
}
);
width = 613;
},
{
layerId = "DE4AFDBE-F375-44ED-A5DB-4773839D6964";
paths = (
{
closed = 1;
nodes = (
"436 -12 OFFCURVE",
"533 79 OFFCURVE",
"533 197 CURVE SMOOTH",
"533 284 OFFCURVE",
"482 359 OFFCURVE",
"408 387 CURVE",
"471 413 OFFCURVE",
"501 472 OFFCURVE",
"501 531 CURVE SMOOTH",
"501 628 OFFCURVE",
"417 712 OFFCURVE",
"304 712 CURVE SMOOTH",
"191 712 OFFCURVE",
"107 628 OFFCURVE",
"107 531 CURVE SMOOTH",
"107 472 OFFCURVE",
"140 413 OFFCURVE",
"199 387 CURVE",
"127 360 OFFCURVE",
"75 284 OFFCURVE",
"75 197 CURVE SMOOTH",
"75 79 OFFCURVE",
"172 -12 OFFCURVE",
"304 -12 CURVE SMOOTH"
);
},
{
closed = 1;
nodes = (
"215 51 OFFCURVE",
"148 109 OFFCURVE",
"148 207 CURVE SMOOTH",
"148 290 OFFCURVE",
"210 362 OFFCURVE",
"304 362 CURVE SMOOTH",
"398 362 OFFCURVE",
"460 290 OFFCURVE",
"460 207 CURVE SMOOTH",
"460 109 OFFCURVE",
"393 51 OFFCURVE",
"304 51 CURVE SMOOTH"
);
},
{
closed = 1;
nodes = (
"227 408 OFFCURVE",
"178 456 OFFCURVE",
"178 522 CURVE SMOOTH",
"178 600 OFFCURVE",
"232 649 OFFCURVE",
"304 649 CURVE SMOOTH",
"376 649 OFFCURVE",
"430 600 OFFCURVE",
"430 522 CURVE SMOOTH",
"430 456 OFFCURVE",
"381 408 OFFCURVE",
"304 408 CURVE SMOOTH"
);
}
);
width = 608;
},
{
layerId = "1ED176E8-AB71-4F43-9CA1-B943ACA5B6F8";
paths = (
{
closed = 1;
nodes = (
"470 -12 OFFCURVE",
"567 78 OFFCURVE",
"567 211 CURVE SMOOTH",
"567 291 OFFCURVE",
"519 352 OFFCURVE",
"450 384 CURVE",
"495 408 OFFCURVE",
"539 456 OFFCURVE",
"539 527 CURVE SMOOTH",
"539 636 OFFCURVE",
"454 712 OFFCURVE",
"314 712 CURVE SMOOTH",
"174 712 OFFCURVE",
"90 636 OFFCURVE",
"90 527 CURVE SMOOTH",
"90 454 OFFCURVE",
"133 407 OFFCURVE",
"178 383 CURVE",
"107 350 OFFCURVE",
"62 292 OFFCURVE",
"62 211 CURVE SMOOTH",
"62 78 OFFCURVE",
"159 -12 OFFCURVE",
"314 -12 CURVE SMOOTH"
);
},
{
closed = 1;
nodes = (
"244 110 OFFCURVE",
"197 153 OFFCURVE",
"197 213 CURVE SMOOTH",
"197 274 OFFCURVE",
"244 317 OFFCURVE",
"314 317 CURVE SMOOTH",
"382 317 OFFCURVE",
"432 274 OFFCURVE",
"432 213 CURVE SMOOTH",
"432 153 OFFCURVE",
"382 110 OFFCURVE",
"314 110 CURVE SMOOTH"
);
},
{
closed = 1;
nodes = (
"258 441 OFFCURVE",
"224 474 OFFCURVE",
"224 518 CURVE SMOOTH",
"224 561 OFFCURVE",
"258 592 OFFCURVE",
"314 592 CURVE SMOOTH",
"368 592 OFFCURVE",
"405 561 OFFCURVE",
"405 518 CURVE SMOOTH",
"405 474 OFFCURVE",
"368 441 OFFCURVE",
"314 441 CURVE SMOOTH"
);
}
);
width = 629;
},
{
layerId = "3BB16070-9AE0-46D6-9B05-19A363C2D547";
paths = (
{
closed = 1;
nodes = (
"420 -12 OFFCURVE",
"510 76 OFFCURVE",
"510 191 CURVE SMOOTH",
"510 285 OFFCURVE",
"454 361 OFFCURVE",
"363 386 CURVE",
"442 410 OFFCURVE",
"478 472 OFFCURVE",
"478 538 CURVE SMOOTH",
"478 634 OFFCURVE",
"401 712 OFFCURVE",
"297 712 CURVE SMOOTH",
"193 712 OFFCURVE",
"116 634 OFFCURVE",
"116 538 CURVE SMOOTH",
"116 472 OFFCURVE",
"156 408 OFFCURVE",
"229 386 CURVE",
"141 363 OFFCURVE",
"84 285 OFFCURVE",
"84 191 CURVE SMOOTH",
"84 76 OFFCURVE",
"174 -12 OFFCURVE",
"297 -12 CURVE SMOOTH"
);
},
{
closed = 1;
nodes = (
"199 24 OFFCURVE",
"124 88 OFFCURVE",
"124 191 CURVE SMOOTH",
"124 288 OFFCURVE",
"193 369 OFFCURVE",
"297 369 CURVE SMOOTH",
"401 369 OFFCURVE",
"470 288 OFFCURVE",
"470 191 CURVE SMOOTH",
"470 88 OFFCURVE",
"395 24 OFFCURVE",
"297 24 CURVE SMOOTH"
);
},
{
closed = 1;
nodes = (
"210 401 OFFCURVE",
"154 457 OFFCURVE",
"154 538 CURVE SMOOTH",
"154 624 OFFCURVE",
"216 676 OFFCURVE",
"297 676 CURVE SMOOTH",
"378 676 OFFCURVE",
"440 624 OFFCURVE",
"440 538 CURVE SMOOTH",
"440 457 OFFCURVE",
"384 401 OFFCURVE",
"297 401 CURVE SMOOTH"
);
}
);
width = 594;
},
{
layerId = "1D708A55-1947-4475-A0A3-21124B6DD42B";
paths = (
{
closed = 1;
nodes = (
"484 -12 OFFCURVE",
"581 77 OFFCURVE",
"581 216 CURVE SMOOTH",
"581 291 OFFCURVE",
"533 354 OFFCURVE",
"464 385 CURVE",
"501 403 OFFCURVE",
"554 452 OFFCURVE",
"554 526 CURVE SMOOTH",
"554 638 OFFCURVE",
"469 712 OFFCURVE",
"320 712 CURVE SMOOTH",
"171 712 OFFCURVE",
"87 638 OFFCURVE",
"87 526 CURVE SMOOTH",
"87 449 OFFCURVE",
"138 402 OFFCURVE",
"176 383 CURVE",
"103 351 OFFCURVE",
"61 293 OFFCURVE",
"61 216 CURVE SMOOTH",
"61 77 OFFCURVE",
"158 -12 OFFCURVE",
"320 -12 CURVE SMOOTH"
);
},
{
closed = 1;
nodes = (
"257 127 OFFCURVE",
"216 165 OFFCURVE",
"216 217 CURVE SMOOTH",
"216 273 OFFCURVE",
"257 306 OFFCURVE",
"320 306 CURVE SMOOTH",
"381 306 OFFCURVE",
"425 273 OFFCURVE",
"425 217 CURVE SMOOTH",
"425 165 OFFCURVE",
"381 127 OFFCURVE",
"320 127 CURVE SMOOTH"
);
},
{
closed = 1;
nodes = (
"269 448 OFFCURVE",
"242 475 OFFCURVE",
"242 514 CURVE SMOOTH",
"242 549 OFFCURVE",
"269 577 OFFCURVE",
"320 577 CURVE SMOOTH",
"367 577 OFFCURVE",
"399 549 OFFCURVE",
"399 514 CURVE SMOOTH",
"399 475 OFFCURVE",
"367 448 OFFCURVE",
"320 448 CURVE SMOOTH"
);
}
);
width = 641;
}
);
note = eight;
unicode = 0038;
},
{
glyphname = nine;
lastChange = "2016-11-17 05:24:08 +0000";
layers = (
{
layerId = "02CCC12B-AAA5-4DEC-99A9-D81829579BCD";
paths = (
{
closed = 1;
nodes = (
"419 0 OFFCURVE",
"534 179 OFFCURVE",
"534 441 CURVE SMOOTH",
"534 595 OFFCURVE",
"460 712 OFFCURVE",
"292 712 CURVE SMOOTH",
"148 712 OFFCURVE",
"49 621 OFFCURVE",
"49 487 CURVE SMOOTH",
"49 349 OFFCURVE",
"144 260 OFFCURVE",
"274 260 CURVE SMOOTH",
"343 260 OFFCURVE",
"392 287 OFFCURVE",
"413 311 CURVE",
"383 145 OFFCURVE",
"278 100 OFFCURVE",
"171 94 CURVE",
"171 -12 LINE"
);
},
{
closed = 1;
nodes = (
"211 366 OFFCURVE",
"159 410 OFFCURVE",
"159 487 CURVE SMOOTH",
"159 560 OFFCURVE",
"214 606 OFFCURVE",
"292 606 CURVE SMOOTH",
"369 606 OFFCURVE",
"424 560 OFFCURVE",
"424 488 CURVE SMOOTH",
"424 412 OFFCURVE",
"371 366 OFFCURVE",
"291 366 CURVE SMOOTH"
);
}
);
width = 598;
},
{
layerId = "DE4AFDBE-F375-44ED-A5DB-4773839D6964";
paths = (
{
closed = 1;
nodes = (
"379 39 OFFCURVE",
"521 242 OFFCURVE",
"521 441 CURVE SMOOTH",
"521 594 OFFCURVE",
"448 712 OFFCURVE",
"297 712 CURVE SMOOTH",
"167 712 OFFCURVE",
"65 611 OFFCURVE",
"65 480 CURVE SMOOTH",
"65 367 OFFCURVE",
"155 268 OFFCURVE",
"270 268 CURVE SMOOTH",
"343 268 OFFCURVE",
"402 292 OFFCURVE",
"436 336 CURVE",
"419 215 OFFCURVE",
"312 82 OFFCURVE",
"177 43 CURVE",
"177 -12 LINE"
);
},
{
closed = 1;
nodes = (
"193 324 OFFCURVE",
"132 394 OFFCURVE",
"132 488 CURVE SMOOTH",
"132 578 OFFCURVE",
"196 649 OFFCURVE",
"292 649 CURVE SMOOTH",
"382 649 OFFCURVE",
"452 578 OFFCURVE",
"452 488 CURVE SMOOTH",
"452 394 OFFCURVE",
"385 324 OFFCURVE",
"292 324 CURVE SMOOTH"
);
}
);
width = 596;
},
{
background = {
paths = (
{
closed = 1;
nodes = (
"434 -6 OFFCURVE",
"561 167 OFFCURVE",
"561 441 CURVE SMOOTH",
"561 598 OFFCURVE",
"483 712 OFFCURVE",
"304 712 CURVE SMOOTH",
"153 712 OFFCURVE",
"46 626 OFFCURVE",
"46 487 CURVE SMOOTH",
"46 342 OFFCURVE",
"147 260 OFFCURVE",
"288 260 CURVE SMOOTH",
"333 260 OFFCURVE",
"370 272 OFFCURVE",
"397 292 CURVE",
"356 163 OFFCURVE",
"253 129 OFFCURVE",
"156 127 CURVE",
"156 -12 LINE"
);
},
{
closed = 1;
nodes = (
"235 399 OFFCURVE",
"194 430 OFFCURVE",
"194 489 CURVE SMOOTH",
"194 541 OFFCURVE",
"234 576 OFFCURVE",
"304 576 CURVE SMOOTH",
"372 576 OFFCURVE",
"414 541 OFFCURVE",
"414 488 CURVE SMOOTH",
"414 429 OFFCURVE",
"373 399 OFFCURVE",
"303 399 CURVE SMOOTH"
);
}
);
};
layerId = "1ED176E8-AB71-4F43-9CA1-B943ACA5B6F8";
paths = (
{
closed = 1;
nodes = (
"429 -4 OFFCURVE",
"552 171 OFFCURVE",
"552 441 CURVE SMOOTH",
"552 597 OFFCURVE",
"475 712 OFFCURVE",
"300 712 CURVE SMOOTH",
"151 712 OFFCURVE",
"47 624 OFFCURVE",
"47 487 CURVE SMOOTH",
"47 344 OFFCURVE",
"146 260 OFFCURVE",
"283 260 CURVE SMOOTH",
"336 260 OFFCURVE",
"377 277 OFFCURVE",
"402 298 CURVE",
"365 157 OFFCURVE",
"261 119 OFFCURVE",
"161 116 CURVE",
"161 -12 LINE"
);
},
{
closed = 1;
nodes = (
"227 388 OFFCURVE",
"182 423 OFFCURVE",
"182 488 CURVE SMOOTH",
"182 547 OFFCURVE",
"227 586 OFFCURVE",
"300 586 CURVE SMOOTH",
"371 586 OFFCURVE",
"417 547 OFFCURVE",
"417 488 CURVE SMOOTH",
"417 423 OFFCURVE",
"372 388 OFFCURVE",
"299 388 CURVE SMOOTH"
);
}
);
width = 614;
},
{
layerId = "3BB16070-9AE0-46D6-9B05-19A363C2D547";
paths = (
{
closed = 1;
nodes = (
"371 47 OFFCURVE",
"500 245 OFFCURVE",
"500 480 CURVE SMOOTH",
"500 597 OFFCURVE",
"427 712 OFFCURVE",
"287 712 CURVE SMOOTH",
"162 712 OFFCURVE",
"72 619 OFFCURVE",
"72 497 CURVE SMOOTH",
"72 380 OFFCURVE",
"156 288 OFFCURVE",
"273 288 CURVE SMOOTH",
"361 288 OFFCURVE",
"417 326 OFFCURVE",
"449 374 CURVE",
"429 220 OFFCURVE",
"331 73 OFFCURVE",
"184 24 CURVE",
"184 -12 LINE"
);
},
{
closed = 1;
nodes = (
"177 324 OFFCURVE",
"110 400 OFFCURVE",
"110 502 CURVE SMOOTH",
"110 599 OFFCURVE",
"181 676 OFFCURVE",
"285 676 CURVE SMOOTH",
"383 676 OFFCURVE",
"459 599 OFFCURVE",
"459 497 CURVE SMOOTH",
"459 400 OFFCURVE",
"386 324 OFFCURVE",
"278 324 CURVE SMOOTH"
);
}
);
width = 582;
},
{
associatedMasterId = "1ED176E8-AB71-4F43-9CA1-B943ACA5B6F8";
background = {
paths = (
{
closed = 1;
nodes = (
"434 -6 OFFCURVE",
"561 167 OFFCURVE",
"561 441 CURVE SMOOTH",
"561 598 OFFCURVE",
"483 712 OFFCURVE",
"304 712 CURVE SMOOTH",
"153 712 OFFCURVE",
"46 626 OFFCURVE",
"46 487 CURVE SMOOTH",
"46 342 OFFCURVE",
"147 260 OFFCURVE",
"288 260 CURVE SMOOTH",
"333 260 OFFCURVE",
"370 272 OFFCURVE",
"397 292 CURVE",
"356 163 OFFCURVE",
"253 129 OFFCURVE",
"156 127 CURVE",
"156 -12 LINE"
);
},
{
closed = 1;
nodes = (
"235 399 OFFCURVE",
"194 430 OFFCURVE",
"194 489 CURVE SMOOTH",
"194 541 OFFCURVE",
"234 576 OFFCURVE",
"304 576 CURVE SMOOTH",
"372 576 OFFCURVE",
"414 541 OFFCURVE",
"414 488 CURVE SMOOTH",
"414 429 OFFCURVE",
"373 399 OFFCURVE",
"303 399 CURVE SMOOTH"
);
}
);
};
layerId = "026D7036-B921-4598-8C8E-A77773F0F2D7";
name = "Bold [701]";
paths = (
{
closed = 1;
nodes = (
"431 -4 OFFCURVE",
"556 171 OFFCURVE",
"556 441 CURVE SMOOTH",
"556 597 OFFCURVE",
"477 712 OFFCURVE",
"300 712 CURVE SMOOTH",
"151 712 OFFCURVE",
"47 624 OFFCURVE",
"47 487 CURVE SMOOTH",
"47 344 OFFCURVE",
"146 260 OFFCURVE",
"283 260 CURVE SMOOTH",
"336 260 OFFCURVE",
"377 277 OFFCURVE",
"402 298 CURVE",
"365 157 OFFCURVE",
"261 119 OFFCURVE",
"161 116 CURVE",
"161 -12 LINE"
);
},
{
closed = 1;
nodes = (
"227 388 OFFCURVE",
"182 423 OFFCURVE",
"182 488 CURVE SMOOTH",
"182 547 OFFCURVE",
"227 586 OFFCURVE",
"300 586 CURVE SMOOTH",
"365 586 OFFCURVE",
"411 547 OFFCURVE",
"411 488 CURVE SMOOTH",
"411 423 OFFCURVE",
"366 388 OFFCURVE",
"299 388 CURVE SMOOTH"
);
}
);
width = 614;
},
{
layerId = "1D708A55-1947-4475-A0A3-21124B6DD42B";
paths = (
{
closed = 1;
nodes = (
"440 -7 OFFCURVE",
"573 165 OFFCURVE",
"573 441 CURVE SMOOTH",
"573 599 OFFCURVE",
"490 712 OFFCURVE",
"306 712 CURVE SMOOTH",
"153 712 OFFCURVE",
"46 626 OFFCURVE",
"46 487 CURVE SMOOTH",
"46 340 OFFCURVE",
"148 260 OFFCURVE",
"290 260 CURVE SMOOTH",
"331 260 OFFCURVE",
"366 270 OFFCURVE",
"394 288 CURVE",
"352 166 OFFCURVE",
"248 133 OFFCURVE",
"154 133 CURVE",
"154 -12 LINE"
);
},
{
closed = 1;
nodes = (
"239 405 OFFCURVE",
"199 433 OFFCURVE",
"199 489 CURVE SMOOTH",
"199 537 OFFCURVE",
"237 571 OFFCURVE",
"306 571 CURVE SMOOTH",
"362 571 OFFCURVE",
"401 537 OFFCURVE",
"401 488 CURVE SMOOTH",
"401 431 OFFCURVE",
"362 405 OFFCURVE",
"305 405 CURVE SMOOTH"
);
}
);
width = 626;
}
);
note = nine;
unicode = 0039;
},
{
glyphname = colon;
lastChange = "2016-11-17 05:24:08 +0000";
layers = (
{
layerId = "02CCC12B-AAA5-4DEC-99A9-D81829579BCD";
paths = (
{
closed = 1;
nodes = (
"153 337 OFFCURVE",
"187 370 OFFCURVE",
"187 410 CURVE SMOOTH",
"187 450 OFFCURVE",
"153 484 OFFCURVE",
"111 484 CURVE SMOOTH",
"68 484 OFFCURVE",
"36 450 OFFCURVE",
"36 410 CURVE SMOOTH",
"36 370 OFFCURVE",
"68 337 OFFCURVE",
"111 337 CURVE SMOOTH"
);
},
{
closed = 1;
nodes = (
"153 -12 OFFCURVE",
"187 21 OFFCURVE",
"187 61 CURVE SMOOTH",
"187 101 OFFCURVE",
"153 135 OFFCURVE",
"111 135 CURVE SMOOTH",
"68 135 OFFCURVE",
"36 101 OFFCURVE",
"36 61 CURVE SMOOTH",
"36 21 OFFCURVE",
"68 -12 OFFCURVE",
"111 -12 CURVE SMOOTH"
);
}
);
width = 223;
},
{
layerId = "DE4AFDBE-F375-44ED-A5DB-4773839D6964";
paths = (
{
closed = 1;
nodes = (
"149 357 OFFCURVE",
"176 388 OFFCURVE",
"176 420 CURVE SMOOTH",
"176 452 OFFCURVE",
"149 483 OFFCURVE",
"113 483 CURVE SMOOTH",
"77 483 OFFCURVE",
"50 452 OFFCURVE",
"50 420 CURVE SMOOTH",
"50 388 OFFCURVE",
"77 357 OFFCURVE",
"113 357 CURVE SMOOTH"
);
},
{
closed = 1;
nodes = (
"149 -14 OFFCURVE",
"176 17 OFFCURVE",
"176 49 CURVE SMOOTH",
"176 81 OFFCURVE",
"149 112 OFFCURVE",
"113 112 CURVE SMOOTH",
"77 112 OFFCURVE",
"50 81 OFFCURVE",
"50 49 CURVE SMOOTH",
"50 17 OFFCURVE",
"77 -14 OFFCURVE",
"113 -14 CURVE SMOOTH"
);
}
);
width = 226;
},
{
layerId = "1ED176E8-AB71-4F43-9CA1-B943ACA5B6F8";
paths = (
{
closed = 1;
nodes = (
"168 321 OFFCURVE",
"205 356 OFFCURVE",
"205 403 CURVE SMOOTH",
"205 449 OFFCURVE",
"168 486 OFFCURVE",
"120 486 CURVE SMOOTH",
"72 486 OFFCURVE",
"36 449 OFFCURVE",
"36 403 CURVE SMOOTH",
"36 356 OFFCURVE",
"72 321 OFFCURVE",
"120 321 CURVE SMOOTH"
);
},
{
closed = 1;
nodes = (
"168 -12 OFFCURVE",
"205 23 OFFCURVE",
"205 70 CURVE SMOOTH",
"205 116 OFFCURVE",
"168 153 OFFCURVE",
"120 153 CURVE SMOOTH",
"72 153 OFFCURVE",
"36 116 OFFCURVE",
"36 70 CURVE SMOOTH",
"36 23 OFFCURVE",
"72 -12 OFFCURVE",
"120 -12 CURVE SMOOTH"
);
}
);
width = 241;
},
{
layerId = "3BB16070-9AE0-46D6-9B05-19A363C2D547";
paths = (
{
closed = 1;
nodes = (
"118 423 OFFCURVE",
"130 436 OFFCURVE",
"130 452 CURVE SMOOTH",
"130 469 OFFCURVE",
"118 483 OFFCURVE",
"101 483 CURVE SMOOTH",
"85 483 OFFCURVE",
"72 469 OFFCURVE",
"72 452 CURVE SMOOTH",
"72 436 OFFCURVE",
"85 423 OFFCURVE",
"101 423 CURVE SMOOTH"
);
},
{
closed = 1;
nodes = (
"118 -14 OFFCURVE",
"130 -1 OFFCURVE",
"130 15 CURVE SMOOTH",
"130 32 OFFCURVE",
"118 46 OFFCURVE",
"101 46 CURVE SMOOTH",
"85 46 OFFCURVE",
"72 32 OFFCURVE",
"72 15 CURVE SMOOTH",
"72 -1 OFFCURVE",
"85 -14 OFFCURVE",
"101 -14 CURVE SMOOTH"
);
}
);
width = 202;
},
{
layerId = "1D708A55-1947-4475-A0A3-21124B6DD42B";
paths = (
{
closed = 1;
nodes = (
"179 309 OFFCURVE",
"219 346 OFFCURVE",
"219 398 CURVE SMOOTH",
"219 448 OFFCURVE",
"179 488 OFFCURVE",
"127 488 CURVE SMOOTH",
"75 488 OFFCURVE",
"36 448 OFFCURVE",
"36 398 CURVE SMOOTH",
"36 346 OFFCURVE",
"75 309 OFFCURVE",
"127 309 CURVE SMOOTH"
);
},
{
closed = 1;
nodes = (
"179 -12 OFFCURVE",
"219 25 OFFCURVE",
"219 77 CURVE SMOOTH",
"219 127 OFFCURVE",
"179 167 OFFCURVE",
"127 167 CURVE SMOOTH",
"75 167 OFFCURVE",
"36 127 OFFCURVE",
"36 77 CURVE SMOOTH",
"36 25 OFFCURVE",
"75 -12 OFFCURVE",
"127 -12 CURVE SMOOTH"
);
}
);
width = 255;
}
);
leftKerningGroup = colon;
note = colon;
rightKerningGroup = colon;
unicode = 003A;
},
{
glyphname = semicolon;
lastChange = "2016-11-17 05:24:08 +0000";
layers = (
{
layerId = "02CCC12B-AAA5-4DEC-99A9-D81829579BCD";
paths = (
{
closed = 1;
nodes = (
"152 337 OFFCURVE",
"186 370 OFFCURVE",
"186 410 CURVE SMOOTH",
"186 450 OFFCURVE",
"152 484 OFFCURVE",
"110 484 CURVE SMOOTH",
"67 484 OFFCURVE",
"35 450 OFFCURVE",
"35 410 CURVE SMOOTH",
"35 370 OFFCURVE",
"67 337 OFFCURVE",
"110 337 CURVE SMOOTH"
);
},
{
closed = 1;
nodes = (
"80 -141 LINE",
"139 -104 OFFCURVE",
"188 -34 OFFCURVE",
"188 43 CURVE SMOOTH",
"188 104 OFFCURVE",
"151 134 OFFCURVE",
"109 134 CURVE SMOOTH",
"70 134 OFFCURVE",
"35 104 OFFCURVE",
"35 58 CURVE SMOOTH",
"35 18 OFFCURVE",
"67 -9 OFFCURVE",
"102 -12 CURVE",
"96 -56 OFFCURVE",
"59 -100 OFFCURVE",
"41 -116 CURVE"
);
}
);
width = 223;
},
{
layerId = "DE4AFDBE-F375-44ED-A5DB-4773839D6964";
paths = (
{
closed = 1;
nodes = (
"149 357 OFFCURVE",
"176 388 OFFCURVE",
"176 420 CURVE SMOOTH",
"176 452 OFFCURVE",
"149 483 OFFCURVE",
"113 483 CURVE SMOOTH",
"77 483 OFFCURVE",
"50 452 OFFCURVE",
"50 420 CURVE SMOOTH",
"50 388 OFFCURVE",
"77 357 OFFCURVE",
"113 357 CURVE SMOOTH"
);
},
{
closed = 1;
nodes = (
"92 -141 LINE",
"144 -109 OFFCURVE",
"183 -51 OFFCURVE",
"183 25 CURVE SMOOTH",
"183 84 OFFCURVE",
"146 109 OFFCURVE",
"111 109 CURVE SMOOTH",
"78 109 OFFCURVE",
"50 84 OFFCURVE",
"50 43 CURVE SMOOTH",
"50 7 OFFCURVE",
"81 -18 OFFCURVE",
"118 -18 CURVE",
"118 -77 OFFCURVE",
"91 -120 OFFCURVE",
"73 -136 CURVE"
);
}
);
width = 226;
},
{
layerId = "1ED176E8-AB71-4F43-9CA1-B943ACA5B6F8";
paths = (
{
closed = 1;
nodes = (
"172 321 OFFCURVE",
"209 356 OFFCURVE",
"209 403 CURVE SMOOTH",
"209 449 OFFCURVE",
"172 486 OFFCURVE",
"124 486 CURVE SMOOTH",
"76 486 OFFCURVE",
"40 449 OFFCURVE",
"40 403 CURVE SMOOTH",
"40 356 OFFCURVE",
"76 321 OFFCURVE",
"124 321 CURVE SMOOTH"
);
},
{
closed = 1;
nodes = (
"87 -141 LINE",
"151 -101 OFFCURVE",
"209 -27 OFFCURVE",
"209 57 CURVE SMOOTH",
"209 119 OFFCURVE",
"171 153 OFFCURVE",
"124 153 CURVE SMOOTH",
"80 153 OFFCURVE",
"40 120 OFFCURVE",
"40 70 CURVE SMOOTH",
"40 29 OFFCURVE",
"65 3 OFFCURVE",
"97 -8 CURVE",
"86 -46 OFFCURVE",
"51 -84 OFFCURVE",
"32 -100 CURVE"
);
}
);
width = 241;
},
{
background = {
paths = (
{
closed = 1;
nodes = (
"86 -141 LINE",
"111 -116 OFFCURVE",
"139 -57 OFFCURVE",
"139 0 CURVE SMOOTH",
"139 34 OFFCURVE",
"124 46 OFFCURVE",
"106 46 CURVE SMOOTH",
"90 46 OFFCURVE",
"77 33 OFFCURVE",
"77 15 CURVE SMOOTH",
"77 -2 OFFCURVE",
"91 -14 OFFCURVE",
"109 -14 CURVE",
"109 -18 OFFCURVE",
"110 -22 OFFCURVE",
"110 -27 CURVE SMOOTH",
"110 -64 OFFCURVE",
"96 -111 OFFCURVE",
"77 -138 CURVE"
);
}
);
};
layerId = "3BB16070-9AE0-46D6-9B05-19A363C2D547";
paths = (
{
closed = 1;
nodes = (
"118 423 OFFCURVE",
"130 436 OFFCURVE",
"130 452 CURVE SMOOTH",
"130 469 OFFCURVE",
"118 483 OFFCURVE",
"101 483 CURVE SMOOTH",
"85 483 OFFCURVE",
"72 469 OFFCURVE",
"72 452 CURVE SMOOTH",
"72 436 OFFCURVE",
"85 423 OFFCURVE",
"101 423 CURVE SMOOTH"
);
},
{
closed = 1;
nodes = (
"81 -141 LINE",
"106 -116 OFFCURVE",
"134 -57 OFFCURVE",
"134 0 CURVE SMOOTH",
"134 34 OFFCURVE",
"119 46 OFFCURVE",
"101 46 CURVE SMOOTH",
"85 46 OFFCURVE",
"72 33 OFFCURVE",
"72 15 CURVE SMOOTH",
"72 -2 OFFCURVE",
"86 -14 OFFCURVE",
"104 -14 CURVE",
"104 -57 OFFCURVE",
"98 -99 OFFCURVE",
"72 -138 CURVE"
);
}
);
width = 202;
},
{
layerId = "1D708A55-1947-4475-A0A3-21124B6DD42B";
paths = (
{
closed = 1;
nodes = (
"187 309 OFFCURVE",
"226 346 OFFCURVE",
"226 398 CURVE SMOOTH",
"226 448 OFFCURVE",
"187 488 OFFCURVE",
"135 488 CURVE SMOOTH",
"83 488 OFFCURVE",
"44 448 OFFCURVE",
"44 398 CURVE SMOOTH",
"44 346 OFFCURVE",
"83 309 OFFCURVE",
"135 309 CURVE SMOOTH"
);
},
{
closed = 1;
nodes = (
"92 -141 LINE",
"160 -99 OFFCURVE",
"225 -22 OFFCURVE",
"225 68 CURVE SMOOTH",
"225 130 OFFCURVE",
"186 167 OFFCURVE",
"135 167 CURVE SMOOTH",
"88 167 OFFCURVE",
"44 132 OFFCURVE",
"44 79 CURVE SMOOTH",
"44 37 OFFCURVE",
"64 12 OFFCURVE",
"93 -5 CURVE",
"79 -39 OFFCURVE",
"45 -72 OFFCURVE",
"25 -88 CURVE"
);
}
);
width = 255;
}
);
leftKerningGroup = colon;
note = semicolon;
rightKerningGroup = colon;
unicode = 003B;
},
{
glyphname = less;
lastChange = "2016-11-17 05:24:08 +0000";
layers = (
{
layerId = "02CCC12B-AAA5-4DEC-99A9-D81829579BCD";
paths = (
{
closed = 1;
nodes = (
"550 213 LINE",
"222 343 LINE",
"550 473 LINE",
"550 578 LINE",
"80 387 LINE",
"80 299 LINE",
"550 108 LINE"
);
}
);
width = 630;
},
{
layerId = "DE4AFDBE-F375-44ED-A5DB-4773839D6964";
paths = (
{
closed = 1;
nodes = (
"565 188 LINE",
"172 343 LINE",
"565 498 LINE",
"565 565 LINE",
"95 375 LINE",
"95 309 LINE",
"565 120 LINE"
);
}
);
width = 660;
},
{
layerId = "1ED176E8-AB71-4F43-9CA1-B943ACA5B6F8";
paths = (
{
closed = 1;
nodes = (
"550 233 LINE",
"274 343 LINE",
"550 452 LINE",
"550 588 LINE",
"80 396 LINE",
"80 290 LINE",
"550 98 LINE"
);
}
);
width = 630;
},
{
layerId = "3BB16070-9AE0-46D6-9B05-19A363C2D547";
paths = (
{
closed = 1;
nodes = (
"563 161 LINE",
"140 343 LINE",
"563 525 LINE",
"563 566 LINE",
"93 362 LINE",
"93 324 LINE",
"563 120 LINE"
);
}
);
width = 656;
},
{
layerId = "1D708A55-1947-4475-A0A3-21124B6DD42B";
paths = (
{
closed = 1;
nodes = (
"550 248 LINE",
"313 343 LINE",
"550 436 LINE",
"550 596 LINE",
"80 403 LINE",
"80 283 LINE",
"550 91 LINE"
);
}
);
width = 630;
}
);
note = less;
unicode = 003C;
},
{
glyphname = equal;
lastChange = "2016-11-17 05:24:08 +0000";
layers = (
{
layerId = "02CCC12B-AAA5-4DEC-99A9-D81829579BCD";
paths = (
{
closed = 1;
nodes = (
"550 196 LINE",
"550 296 LINE",
"80 296 LINE",
"80 196 LINE"
);
},
{
closed = 1;
nodes = (
"550 390 LINE",
"550 490 LINE",
"80 490 LINE",
"80 390 LINE"
);
}
);
width = 630;
},
{
layerId = "DE4AFDBE-F375-44ED-A5DB-4773839D6964";
paths = (
{
closed = 1;
nodes = (
"565 229 LINE",
"565 296 LINE",
"95 296 LINE",
"95 229 LINE"
);
},
{
closed = 1;
nodes = (
"565 388 LINE",
"565 455 LINE",
"95 455 LINE",
"95 388 LINE"
);
}
);
width = 660;
},
{
layerId = "1ED176E8-AB71-4F43-9CA1-B943ACA5B6F8";
paths = (
{
closed = 1;
nodes = (
"550 169 LINE",
"550 295 LINE",
"80 295 LINE",
"80 169 LINE"
);
},
{
closed = 1;
nodes = (
"550 391 LINE",
"550 517 LINE",
"80 517 LINE",
"80 391 LINE"
);
}
);
width = 630;
},
{
layerId = "3BB16070-9AE0-46D6-9B05-19A363C2D547";
paths = (
{
closed = 1;
nodes = (
"563 229 LINE",
"563 265 LINE",
"93 265 LINE",
"93 229 LINE"
);
},
{
closed = 1;
nodes = (
"563 419 LINE",
"563 455 LINE",
"93 455 LINE",
"93 419 LINE"
);
}
);
width = 656;
},
{
layerId = "1D708A55-1947-4475-A0A3-21124B6DD42B";
paths = (
{
closed = 1;
nodes = (
"550 149 LINE",
"550 294 LINE",
"80 294 LINE",
"80 149 LINE"
);
},
{
closed = 1;
nodes = (
"550 392 LINE",
"550 537 LINE",
"80 537 LINE",
"80 392 LINE"
);
}
);
width = 630;
}
);
note = equal;
unicode = 003D;
},
{
glyphname = greater;
lastChange = "2016-11-17 05:24:08 +0000";
layers = (
{
layerId = "02CCC12B-AAA5-4DEC-99A9-D81829579BCD";
paths = (
{
closed = 1;
nodes = (
"550 387 LINE",
"80 578 LINE",
"80 473 LINE",
"408 343 LINE",
"80 213 LINE",
"80 108 LINE",
"550 299 LINE"
);
}
);
width = 630;
},
{
layerId = "DE4AFDBE-F375-44ED-A5DB-4773839D6964";
paths = (
{
closed = 1;
nodes = (
"565 375 LINE",
"95 565 LINE",
"95 498 LINE",
"488 343 LINE",
"95 186 LINE",
"95 120 LINE",
"565 309 LINE"
);
}
);
width = 660;
},
{
layerId = "1ED176E8-AB71-4F43-9CA1-B943ACA5B6F8";
paths = (
{
closed = 1;
nodes = (
"550 396 LINE",
"80 588 LINE",
"80 453 LINE",
"356 343 LINE",
"80 234 LINE",
"80 98 LINE",
"550 290 LINE"
);
}
);
width = 630;
},
{
layerId = "3BB16070-9AE0-46D6-9B05-19A363C2D547";
paths = (
{
closed = 1;
nodes = (
"563 362 LINE",
"93 566 LINE",
"93 525 LINE",
"516 343 LINE",
"93 161 LINE",
"93 120 LINE",
"563 324 LINE"
);
}
);
width = 656;
},
{
layerId = "1D708A55-1947-4475-A0A3-21124B6DD42B";
paths = (
{
closed = 1;
nodes = (
"550 403 LINE",
"80 596 LINE",
"80 438 LINE",
"317 343 LINE",
"80 250 LINE",
"80 91 LINE",
"550 283 LINE"
);
}
);
width = 630;
}
);
note = greater;
unicode = 003E;
},
{
glyphname = question;
lastChange = "2016-11-17 05:24:08 +0000";
layers = (
{
layerId = "02CCC12B-AAA5-4DEC-99A9-D81829579BCD";
paths = (
{
closed = 1;
nodes = (
"293 190 LINE",
"293 209 LINE SMOOTH",
"293 355 OFFCURVE",
"466 350 OFFCURVE",
"466 514 CURVE SMOOTH",
"466 626 OFFCURVE",
"391 712 OFFCURVE",
"252 712 CURVE SMOOTH",
"116 712 OFFCURVE",
"20 624 OFFCURVE",
"20 478 CURVE",
"124 478 LINE",
"124 564 OFFCURVE",
"171 614 OFFCURVE",
"252 614 CURVE SMOOTH",
"323 614 OFFCURVE",
"362 572 OFFCURVE",
"362 514 CURVE SMOOTH",
"362 390 OFFCURVE",
"189 400 OFFCURVE",
"189 210 CURVE SMOOTH",
"189 190 LINE"
);
},
{
closed = 1;
nodes = (
"282 -12 OFFCURVE",
"316 21 OFFCURVE",
"316 61 CURVE SMOOTH",
"316 101 OFFCURVE",
"282 135 OFFCURVE",
"240 135 CURVE SMOOTH",
"197 135 OFFCURVE",
"165 101 OFFCURVE",
"165 61 CURVE SMOOTH",
"165 21 OFFCURVE",
"197 -12 OFFCURVE",
"240 -12 CURVE SMOOTH"
);
}
);
width = 501;
},
{
background = {
paths = (
{
closed = 1;
nodes = (
"288 170 LINE",
"288 193 LINE SMOOTH",
"288 357 OFFCURVE",
"476 352 OFFCURVE",
"476 528 CURVE SMOOTH",
"476 629 OFFCURVE",
"401 712 OFFCURVE",
"265 712 CURVE SMOOTH",
"158 712 OFFCURVE",
"75 654 OFFCURVE",
"46 562 CURVE",
"110 533 LINE",
"126 606 OFFCURVE",
"182 647 OFFCURVE",
"265 647 CURVE SMOOTH",
"355 647 OFFCURVE",
"404 594 OFFCURVE",
"404 530 CURVE SMOOTH",
"404 387 OFFCURVE",
"216 383 OFFCURVE",
"216 193 CURVE SMOOTH",
"216 170 LINE"
);
},
{
closed = 1;
nodes = (
"286 -14 OFFCURVE",
"313 17 OFFCURVE",
"313 49 CURVE SMOOTH",
"313 81 OFFCURVE",
"286 112 OFFCURVE",
"250 112 CURVE SMOOTH",
"214 112 OFFCURVE",
"187 81 OFFCURVE",
"187 49 CURVE SMOOTH",
"187 17 OFFCURVE",
"214 -14 OFFCURVE",
"250 -14 CURVE SMOOTH"
);
}
);
};
layerId = "DE4AFDBE-F375-44ED-A5DB-4773839D6964";
paths = (
{
closed = 1;
nodes = (
"288 170 LINE",
"288 193 LINE SMOOTH",
"288 357 OFFCURVE",
"476 352 OFFCURVE",
"476 528 CURVE SMOOTH",
"476 629 OFFCURVE",
"401 712 OFFCURVE",
"265 712 CURVE SMOOTH",
"127 712 OFFCURVE",
"44 624 OFFCURVE",
"44 511 CURVE",
"110 511 LINE",
"110 589 OFFCURVE",
"166 647 OFFCURVE",
"265 647 CURVE SMOOTH",
"355 647 OFFCURVE",
"404 594 OFFCURVE",
"404 530 CURVE SMOOTH",
"404 387 OFFCURVE",
"216 383 OFFCURVE",
"216 193 CURVE SMOOTH",
"216 170 LINE"
);
},
{
closed = 1;
nodes = (
"286 -14 OFFCURVE",
"313 17 OFFCURVE",
"313 49 CURVE SMOOTH",
"313 81 OFFCURVE",
"286 112 OFFCURVE",
"250 112 CURVE SMOOTH",
"214 112 OFFCURVE",
"187 81 OFFCURVE",
"187 49 CURVE SMOOTH",
"187 17 OFFCURVE",
"214 -14 OFFCURVE",
"250 -14 CURVE SMOOTH"
);
}
);
width = 526;
},
{
layerId = "1ED176E8-AB71-4F43-9CA1-B943ACA5B6F8";
paths = (
{
closed = 1;
nodes = (
"309 189 LINE",
"309 224 LINE SMOOTH",
"309 351 OFFCURVE",
"470 344 OFFCURVE",
"470 509 CURVE SMOOTH",
"470 624 OFFCURVE",
"394 712 OFFCURVE",
"253 712 CURVE SMOOTH",
"116 712 OFFCURVE",
"20 625 OFFCURVE",
"20 469 CURVE",
"150 469 LINE",
"150 544 OFFCURVE",
"186 587 OFFCURVE",
"253 587 CURVE SMOOTH",
"309 587 OFFCURVE",
"340 554 OFFCURVE",
"340 509 CURVE SMOOTH",
"340 406 OFFCURVE",
"179 410 OFFCURVE",
"179 225 CURVE SMOOTH",
"179 189 LINE"
);
},
{
closed = 1;
nodes = (
"293 -12 OFFCURVE",
"330 23 OFFCURVE",
"330 70 CURVE SMOOTH",
"330 116 OFFCURVE",
"293 153 OFFCURVE",
"245 153 CURVE SMOOTH",
"197 153 OFFCURVE",
"161 116 OFFCURVE",
"161 70 CURVE SMOOTH",
"161 23 OFFCURVE",
"197 -12 OFFCURVE",
"245 -12 CURVE SMOOTH"
);
}
);
width = 505;
},
{
background = {
paths = (
{
closed = 1;
nodes = (
"274 156 LINE",
"274 190 LINE SMOOTH",
"274 354 OFFCURVE",
"462 369 OFFCURVE",
"462 532 CURVE SMOOTH",
"462 631 OFFCURVE",
"393 712 OFFCURVE",
"268 712 CURVE SMOOTH",
"171 712 OFFCURVE",
"97 661 OFFCURVE",
"68 570 CURVE",
"102 555 LINE",
"126 634 OFFCURVE",
"182 676 OFFCURVE",
"268 676 CURVE SMOOTH",
"369 676 OFFCURVE",
"424 612 OFFCURVE",
"424 532 CURVE SMOOTH",
"424 386 OFFCURVE",
"236 368 OFFCURVE",
"236 190 CURVE SMOOTH",
"236 156 LINE"
);
},
{
closed = 1;
nodes = (
"272 -14 OFFCURVE",
"284 -1 OFFCURVE",
"284 15 CURVE SMOOTH",
"284 32 OFFCURVE",
"272 46 OFFCURVE",
"255 46 CURVE SMOOTH",
"239 46 OFFCURVE",
"226 32 OFFCURVE",
"226 15 CURVE SMOOTH",
"226 -1 OFFCURVE",
"239 -14 OFFCURVE",
"255 -14 CURVE SMOOTH"
);
}
);
};
guideLines = (
{
position = "{252, 532}";
}
);
layerId = "3BB16070-9AE0-46D6-9B05-19A363C2D547";
paths = (
{
closed = 1;
nodes = (
"269 156 LINE",
"269 190 LINE SMOOTH",
"269 354 OFFCURVE",
"457 369 OFFCURVE",
"457 532 CURVE SMOOTH",
"457 631 OFFCURVE",
"388 712 OFFCURVE",
"263 712 CURVE SMOOTH",
"138 712 OFFCURVE",
"62 628 OFFCURVE",
"62 525 CURVE",
"98 525 LINE",
"98 609 OFFCURVE",
"158 676 OFFCURVE",
"263 676 CURVE SMOOTH",
"364 676 OFFCURVE",
"419 612 OFFCURVE",
"419 532 CURVE SMOOTH",
"419 386 OFFCURVE",
"231 368 OFFCURVE",
"231 190 CURVE SMOOTH",
"231 156 LINE"
);
},
{
closed = 1;
nodes = (
"267 -14 OFFCURVE",
"279 -1 OFFCURVE",
"279 15 CURVE SMOOTH",
"279 32 OFFCURVE",
"267 46 OFFCURVE",
"250 46 CURVE SMOOTH",
"234 46 OFFCURVE",
"221 32 OFFCURVE",
"221 15 CURVE SMOOTH",
"221 -1 OFFCURVE",
"234 -14 OFFCURVE",
"250 -14 CURVE SMOOTH"
);
}
);
width = 522;
},
{
layerId = "1D708A55-1947-4475-A0A3-21124B6DD42B";
paths = (
{
closed = 1;
nodes = (
"321 188 LINE",
"321 235 LINE SMOOTH",
"321 348 OFFCURVE",
"473 340 OFFCURVE",
"473 505 CURVE SMOOTH",
"473 623 OFFCURVE",
"396 712 OFFCURVE",
"254 712 CURVE SMOOTH",
"116 712 OFFCURVE",
"20 626 OFFCURVE",
"20 462 CURVE",
"170 462 LINE",
"170 529 OFFCURVE",
"197 567 OFFCURVE",
"254 567 CURVE SMOOTH",
"299 567 OFFCURVE",
"324 541 OFFCURVE",
"324 505 CURVE SMOOTH",
"324 418 OFFCURVE",
"172 418 OFFCURVE",
"172 236 CURVE SMOOTH",
"172 188 LINE"
);
},
{
closed = 1;
nodes = (
"301 -12 OFFCURVE",
"341 25 OFFCURVE",
"341 77 CURVE SMOOTH",
"341 127 OFFCURVE",
"301 167 OFFCURVE",
"249 167 CURVE SMOOTH",
"197 167 OFFCURVE",
"158 127 OFFCURVE",
"158 77 CURVE SMOOTH",
"158 25 OFFCURVE",
"197 -12 OFFCURVE",
"249 -12 CURVE SMOOTH"
);
}
);
width = 508;
}
);
note = question;
unicode = 003F;
},
{
glyphname = at;
lastChange = "2016-11-17 05:24:08 +0000";
layers = (
{
layerId = "02CCC12B-AAA5-4DEC-99A9-D81829579BCD";
paths = (
{
closed = 1;
nodes = (
"455 -12 OFFCURVE",
"490 -10 OFFCURVE",
"522 -5 CURVE",
"543 84 LINE",
"506 75 OFFCURVE",
"465 70 OFFCURVE",
"420 70 CURVE SMOOTH",
"253 70 OFFCURVE",
"152 168 OFFCURVE",
"152 336 CURVE SMOOTH",
"152 501 OFFCURVE",
"266 630 OFFCURVE",
"430 630 CURVE SMOOTH",
"584 630 OFFCURVE",
"675 533 OFFCURVE",
"675 410 CURVE SMOOTH",
"675 315 OFFCURVE",
"628 237 OFFCURVE",
"584 237 CURVE SMOOTH",
"573 237 OFFCURVE",
"567 243 OFFCURVE",
"567 262 CURVE SMOOTH",
"567 279 OFFCURVE",
"573 311 OFFCURVE",
"581 354 CURVE SMOOTH",
"613 523 LINE",
"524 523 LINE",
"516 478 LINE",
"495 519 OFFCURVE",
"461 536 OFFCURVE",
"417 536 CURVE SMOOTH",
"308 536 OFFCURVE",
"236 429 OFFCURVE",
"236 329 CURVE SMOOTH",
"236 227 OFFCURVE",
"294 158 OFFCURVE",
"380 158 CURVE SMOOTH",
"429 158 OFFCURVE",
"470 178 OFFCURVE",
"497 221 CURVE",
"503 183 OFFCURVE",
"536 162 OFFCURVE",
"570 162 CURVE SMOOTH",
"670 162 OFFCURVE",
"759 266 OFFCURVE",
"759 411 CURVE SMOOTH",
"759 576 OFFCURVE",
"629 712 OFFCURVE",
"426 712 CURVE SMOOTH",
"223 712 OFFCURVE",
"60 557 OFFCURVE",
"60 337 CURVE SMOOTH",
"60 114 OFFCURVE",
"210 -12 OFFCURVE",
"416 -12 CURVE SMOOTH"
);
},
{
closed = 1;
nodes = (
"352 244 OFFCURVE",
"326 278 OFFCURVE",
"326 328 CURVE SMOOTH",
"326 394 OFFCURVE",
"367 450 OFFCURVE",
"425 450 CURVE SMOOTH",
"469 450 OFFCURVE",
"493 417 OFFCURVE",
"493 367 CURVE SMOOTH",
"493 310 OFFCURVE",
"456 244 OFFCURVE",
"395 244 CURVE SMOOTH"
);
}
);
width = 819;
},
{
layerId = "DE4AFDBE-F375-44ED-A5DB-4773839D6964";
paths = (
{
closed = 1;
nodes = (
"447 -12 OFFCURVE",
"495 -7 OFFCURVE",
"531 3 CURVE",
"546 69 LINE",
"510 57 OFFCURVE",
"451 50 OFFCURVE",
"403 50 CURVE SMOOTH",
"222 50 OFFCURVE",
"116 177 OFFCURVE",
"116 334 CURVE SMOOTH",
"116 515 OFFCURVE",
"230 650 OFFCURVE",
"421 650 CURVE SMOOTH",
"568 650 OFFCURVE",
"689 571 OFFCURVE",
"689 417 CURVE SMOOTH",
"689 301 OFFCURVE",
"650 215 OFFCURVE",
"595 215 CURVE SMOOTH",
"567 215 OFFCURVE",
"550 234 OFFCURVE",
"550 266 CURVE SMOOTH",
"550 271 OFFCURVE",
"550 278 OFFCURVE",
"551 284 CURVE SMOOTH",
"591 516 LINE",
"528 516 LINE",
"514 433 LINE",
"503 495 OFFCURVE",
"461 529 OFFCURVE",
"403 529 CURVE SMOOTH",
"288 529 OFFCURVE",
"216 419 OFFCURVE",
"216 322 CURVE SMOOTH",
"216 223 OFFCURVE",
"279 151 OFFCURVE",
"362 151 CURVE SMOOTH",
"418 151 OFFCURVE",
"461 184 OFFCURVE",
"489 236 CURVE",
"498 190 OFFCURVE",
"530 160 OFFCURVE",
"585 160 CURVE SMOOTH",
"676 160 OFFCURVE",
"749 266 OFFCURVE",
"749 413 CURVE SMOOTH",
"749 592 OFFCURVE",
"613 712 OFFCURVE",
"418 712 CURVE SMOOTH",
"222 712 OFFCURVE",
"50 557 OFFCURVE",
"50 335 CURVE SMOOTH",
"50 114 OFFCURVE",
"206 -12 OFFCURVE",
"399 -12 CURVE SMOOTH"
);
},
{
closed = 1;
nodes = (
"324 212 OFFCURVE",
"288 254 OFFCURVE",
"288 321 CURVE SMOOTH",
"288 400 OFFCURVE",
"332 468 OFFCURVE",
"408 468 CURVE SMOOTH",
"456 468 OFFCURVE",
"498 425 OFFCURVE",
"498 359 CURVE SMOOTH",
"498 279 OFFCURVE",
"451 212 OFFCURVE",
"381 212 CURVE SMOOTH"
);
}
);
width = 799;
},
{
layerId = "1ED176E8-AB71-4F43-9CA1-B943ACA5B6F8";
paths = (
{
closed = 1;
nodes = (
"463 -12 OFFCURVE",
"499 -9 OFFCURVE",
"538 -4 CURVE",
"567 105 LINE",
"518 93 OFFCURVE",
"473 86 OFFCURVE",
"430 86 CURVE SMOOTH",
"268 86 OFFCURVE",
"164 174 OFFCURVE",
"164 337 CURVE SMOOTH",
"164 498 OFFCURVE",
"276 614 OFFCURVE",
"440 614 CURVE SMOOTH",
"603 614 OFFCURVE",
"679 522 OFFCURVE",
"679 410 CURVE SMOOTH",
"679 308 OFFCURVE",
"631 248 OFFCURVE",
"583 248 CURVE SMOOTH",
"571 248 OFFCURVE",
"566 254 OFFCURVE",
"566 265 CURVE SMOOTH",
"566 274 OFFCURVE",
"571 305 OFFCURVE",
"579 345 CURVE SMOOTH",
"612 523 LINE",
"513 523 LINE",
"508 495 LINE",
"495 518 OFFCURVE",
"466 536 OFFCURVE",
"426 536 CURVE SMOOTH",
"313 536 OFFCURVE",
"240 430 OFFCURVE",
"240 329 CURVE SMOOTH",
"240 225 OFFCURVE",
"299 158 OFFCURVE",
"384 158 CURVE SMOOTH",
"425 158 OFFCURVE",
"460 171 OFFCURVE",
"483 210 CURVE",
"494 173 OFFCURVE",
"535 158 OFFCURVE",
"564 158 CURVE SMOOTH",
"685 158 OFFCURVE",
"777 265 OFFCURVE",
"777 412 CURVE SMOOTH",
"777 577 OFFCURVE",
"644 712 OFFCURVE",
"435 712 CURVE SMOOTH",
"226 712 OFFCURVE",
"60 557 OFFCURVE",
"60 338 CURVE SMOOTH",
"60 114 OFFCURVE",
"208 -12 OFFCURVE",
"426 -12 CURVE SMOOTH"
);
},
{
closed = 1;
nodes = (
"363 256 OFFCURVE",
"342 284 OFFCURVE",
"342 327 CURVE SMOOTH",
"342 387 OFFCURVE",
"376 438 OFFCURVE",
"428 438 CURVE SMOOTH",
"463 438 OFFCURVE",
"482 411 OFFCURVE",
"482 368 CURVE SMOOTH",
"482 316 OFFCURVE",
"450 256 OFFCURVE",
"396 256 CURVE SMOOTH"
);
}
);
width = 837;
},
{
layerId = "3BB16070-9AE0-46D6-9B05-19A363C2D547";
paths = (
{
closed = 1;
nodes = (
"441 -12 OFFCURVE",
"482 -8 OFFCURVE",
"517 1 CURVE",
"525 37 LINE",
"488 28 OFFCURVE",
"441 24 OFFCURVE",
"401 24 CURVE SMOOTH",
"211 24 OFFCURVE",
"100 160 OFFCURVE",
"100 333 CURVE SMOOTH",
"100 532 OFFCURVE",
"243 676 OFFCURVE",
"416 676 CURVE SMOOTH",
"580 676 OFFCURVE",
"695 571 OFFCURVE",
"695 419 CURVE SMOOTH",
"695 286 OFFCURVE",
"645 191 OFFCURVE",
"581 191 CURVE SMOOTH",
"552 191 OFFCURVE",
"534 212 OFFCURVE",
"534 251 CURVE SMOOTH",
"534 266 OFFCURVE",
"536 290 OFFCURVE",
"540 311 CURVE SMOOTH",
"575 516 LINE",
"540 516 LINE",
"525 430 LINE",
"513 480 OFFCURVE",
"473 529 OFFCURVE",
"402 529 CURVE SMOOTH",
"293 529 OFFCURVE",
"226 422 OFFCURVE",
"226 320 CURVE SMOOTH",
"226 212 OFFCURVE",
"283 151 OFFCURVE",
"369 151 CURVE SMOOTH",
"408 151 OFFCURVE",
"465 166 OFFCURVE",
"501 234 CURVE",
"506 185 OFFCURVE",
"538 160 OFFCURVE",
"581 160 CURVE SMOOTH",
"665 160 OFFCURVE",
"733 268 OFFCURVE",
"733 419 CURVE SMOOTH",
"733 594 OFFCURVE",
"603 712 OFFCURVE",
"416 712 CURVE SMOOTH",
"227 712 OFFCURVE",
"62 556 OFFCURVE",
"62 334 CURVE SMOOTH",
"62 114 OFFCURVE",
"212 -12 OFFCURVE",
"397 -12 CURVE SMOOTH"
);
},
{
closed = 1;
nodes = (
"308 186 OFFCURVE",
"264 237 OFFCURVE",
"264 319 CURVE SMOOTH",
"264 413 OFFCURVE",
"314 494 OFFCURVE",
"406 494 CURVE SMOOTH",
"462 494 OFFCURVE",
"511 442 OFFCURVE",
"511 361 CURVE SMOOTH",
"511 266 OFFCURVE",
"457 186 OFFCURVE",
"373 186 CURVE SMOOTH"
);
}
);
width = 795;
},
{
layerId = "1D708A55-1947-4475-A0A3-21124B6DD42B";
paths = (
{
closed = 1;
nodes = (
"469 -12 OFFCURVE",
"506 -8 OFFCURVE",
"550 -3 CURVE",
"585 121 LINE",
"527 107 OFFCURVE",
"479 98 OFFCURVE",
"438 98 CURVE SMOOTH",
"279 98 OFFCURVE",
"173 179 OFFCURVE",
"173 338 CURVE SMOOTH",
"173 496 OFFCURVE",
"284 602 OFFCURVE",
"448 602 CURVE SMOOTH",
"617 602 OFFCURVE",
"682 514 OFFCURVE",
"682 410 CURVE SMOOTH",
"682 303 OFFCURVE",
"633 256 OFFCURVE",
"582 256 CURVE SMOOTH",
"570 256 OFFCURVE",
"565 262 OFFCURVE",
"565 267 CURVE SMOOTH",
"565 270 OFFCURVE",
"570 301 OFFCURVE",
"578 338 CURVE SMOOTH",
"611 523 LINE",
"505 523 LINE",
"502 508 LINE",
"495 517 OFFCURVE",
"470 536 OFFCURVE",
"433 536 CURVE SMOOTH",
"317 536 OFFCURVE",
"243 431 OFFCURVE",
"243 329 CURVE SMOOTH",
"243 224 OFFCURVE",
"303 158 OFFCURVE",
"387 158 CURVE SMOOTH",
"422 158 OFFCURVE",
"453 166 OFFCURVE",
"473 202 CURVE",
"487 166 OFFCURVE",
"534 155 OFFCURVE",
"560 155 CURVE SMOOTH",
"696 155 OFFCURVE",
"791 264 OFFCURVE",
"791 413 CURVE SMOOTH",
"791 578 OFFCURVE",
"655 712 OFFCURVE",
"442 712 CURVE SMOOTH",
"228 712 OFFCURVE",
"60 557 OFFCURVE",
"60 339 CURVE SMOOTH",
"60 114 OFFCURVE",
"207 -12 OFFCURVE",
"434 -12 CURVE SMOOTH"
);
},
{
closed = 1;
nodes = (
"371 265 OFFCURVE",
"354 289 OFFCURVE",
"354 326 CURVE SMOOTH",
"354 382 OFFCURVE",
"383 429 OFFCURVE",
"430 429 CURVE SMOOTH",
"459 429 OFFCURVE",
"474 407 OFFCURVE",
"474 369 CURVE SMOOTH",
"474 321 OFFCURVE",
"446 265 OFFCURVE",
"397 265 CURVE SMOOTH"
);
}
);
width = 851;
}
);
leftKerningGroup = O;
note = at;
rightKerningGroup = at;
unicode = 0040;
},
